<svg width="1920" height="687" viewBox="0 0 1920 687" fill="none" xmlns="http://www.w3.org/2000/svg">
<path fill-rule="evenodd" clip-rule="evenodd" d="M137.047 675.252C136.83 668.791 137.237 664.447 137.95 665.599C138.66 666.751 139.773 667.165 140.421 666.519C141.067 665.872 140.4 664.147 138.938 662.685C135.11 658.858 134.377 662.141 136.043 675.652L137.44 687L137.047 675.252ZM30.3884 666.771C31.9129 664.305 28.5461 660.939 26.0804 662.464C23.3109 664.175 23.7579 668.668 26.6985 668.668C28.0833 668.668 29.7423 667.815 30.3884 666.771ZM137.021 638.116C137.017 626.593 136.734 622.106 136.394 628.145C136.051 634.184 136.053 643.612 136.399 649.096C136.745 654.579 137.024 649.638 137.021 638.116ZM145.626 617C148.464 615.542 151.963 613.106 153.404 611.589C155.04 609.864 153.076 610.377 148.165 612.96C138.344 618.124 138.695 617.881 139.659 618.845C140.103 619.29 142.788 618.459 145.626 617ZM134.195 618.929C134.195 617.733 123.503 612.434 122.705 613.232C122.326 613.611 124.755 615.227 128.106 616.825C131.455 618.421 134.195 619.367 134.195 618.929ZM12.2921 610.433C19.4709 606.112 22.7888 605.002 24.9402 606.207C28.3558 608.118 33.5368 604.721 32.2638 601.404C31.4745 599.351 35.0369 596.936 52.9952 587.341C57.7973 584.774 61.9743 582.035 62.2764 581.251C62.5786 580.467 63.7573 580.183 64.8958 580.621C66.4639 581.225 66.8445 571.151 66.4708 538.991L65.9767 496.566L92.6645 481.379C107.343 473.027 123.044 464.037 127.554 461.401L135.756 456.609L146.763 462.462C158.688 468.805 177.572 479.354 194.877 489.34C200.879 492.804 205.791 495.035 205.791 494.297C205.791 493.558 202.45 491.187 198.369 489.026C194.289 486.866 186.626 482.521 181.344 479.373C176.061 476.223 163.914 469.174 154.35 463.707L136.96 453.768L128.157 458.492C120.271 462.724 102.248 473.126 85.3005 483.228C81.9391 485.232 75.8954 488.609 71.8703 490.733L64.5518 494.597L49.5254 486.047C40.6895 481.019 33.6031 475.698 32.3284 473.131C30.659 469.776 29.0281 468.889 25.2737 469.292C22.588 469.582 19.4761 469.076 18.3568 468.17C15.844 466.131 3.42291 459.164 2.30182 459.164C1.84955 459.164 1.48114 459.95 1.48114 460.91C1.48114 461.871 2.23907 462.656 3.16632 462.656C6.66754 462.656 21.5751 473.374 22.8447 476.801C23.8121 479.42 25.4587 480.249 28.9774 479.895C31.6229 479.628 35.7511 480.651 38.1522 482.168C40.5532 483.685 47.2326 487.627 52.9952 490.927L63.4726 496.926L63.9406 537.264L64.4086 577.601L59.575 580.933C50.1488 587.433 31.4257 597.088 28.2475 597.088C26.4733 597.088 24.0706 598.612 22.9075 600.473C21.7446 602.336 18.2154 605.103 15.067 606.622C9.25372 609.428 -0.202148 616.182 1.58423 616.254C2.1203 616.275 6.93988 613.656 12.2921 610.433ZM252.099 605.356C254.707 602.198 254.219 598.598 250.903 596.507C247.044 594.073 242.102 598.069 242.815 603.045C243.407 607.195 249.363 608.677 252.099 605.356ZM109.748 605.276C109.748 604.796 103.266 600.693 95.3414 596.157C87.417 591.623 78.712 586.372 75.9949 584.49C73.2795 582.608 70.6636 581.459 70.1851 581.939C69.4098 582.714 74.074 585.607 102.326 601.875C106.407 604.227 109.748 605.756 109.748 605.276ZM178.288 597.835C184.815 594.295 184.419 592.819 177.851 596.215C174.97 597.704 172.612 599.296 172.612 599.752C172.612 600.875 172.799 600.812 178.288 597.835ZM213.649 580.651C210.768 578.341 208.017 576.841 207.537 577.318C206.386 578.46 214.342 584.869 216.899 584.858C217.992 584.853 216.53 582.96 213.649 580.651ZM197.496 575.998C201.511 573.66 201.382 568.698 197.205 564.92C194.535 562.504 193.122 562.286 190.22 563.838C185.578 566.322 185.423 573.648 189.96 576.076C193.979 578.227 193.662 578.231 197.496 575.998ZM86.5438 574.739C89.2557 573.016 87.5253 566.219 84.0346 564.88C82.566 564.316 80.2871 564.751 78.9669 565.846C72.7835 570.977 79.6968 579.09 86.5438 574.739ZM208.534 535.11C208.534 513.024 208.283 504.231 207.979 515.566C207.673 526.904 207.675 544.974 207.981 555.721C208.286 566.471 208.536 557.195 208.534 535.11ZM86.5613 511.104C90.5881 505.903 90.4921 502.715 86.2505 500.782C80.233 498.041 76.5694 500.039 76.5694 506.062C76.5694 512.588 82.9291 515.799 86.5613 511.104ZM416.089 508.798C419.382 505.503 418.214 502.811 413.49 502.811C411.299 502.811 410.101 504.009 410.101 506.2C410.101 510.922 412.793 512.09 416.089 508.798ZM305.908 510.376C308.466 507.818 306.994 502.811 303.683 502.811C299.569 502.811 297.966 505.037 299.396 508.765C300.489 511.616 303.84 512.445 305.908 510.376ZM195.045 507.284C194.711 505.683 193.655 504.414 192.694 504.464C190.103 504.602 190.578 508.508 193.298 509.414C194.767 509.903 195.42 509.105 195.045 507.284ZM361.206 474.877C361.206 472.248 360.295 471.305 358.15 471.717C356.47 472.042 355.094 473.463 355.094 474.877C355.094 476.291 356.47 477.713 358.15 478.037C360.295 478.449 361.206 477.507 361.206 474.877ZM140.401 476.471C142.2 473.559 138.154 470.221 135.744 472.63C133.729 474.645 134.99 478.369 137.688 478.369C138.535 478.369 139.755 477.515 140.401 476.471ZM250.858 474.746C250.514 473.715 249.485 472.87 248.574 472.87C247.662 472.87 246.634 473.715 246.29 474.746C245.946 475.778 246.972 476.623 248.574 476.623C250.175 476.623 251.202 475.778 250.858 474.746ZM250.757 416.108C251.956 415.623 252.939 413.393 252.939 411.153C252.939 406.768 250.393 405.139 245.518 406.403C242.004 407.314 241.481 412.092 244.557 415.169C246.791 417.402 247.343 417.485 250.757 416.108ZM31.148 414.668C34.2546 410.926 32.0002 406.789 26.8558 406.789C22.0239 406.789 20.7491 411.387 24.5315 415.169C27.2714 417.908 28.5391 417.812 31.148 414.668ZM142.263 412.983C143.606 409.486 141.613 406.789 137.688 406.789C133.67 406.789 132.084 409.044 133.504 412.742C134.836 416.216 140.957 416.384 142.263 412.983ZM196.99 383.303C200.332 379.277 198.452 374.553 193.265 373.952C187.206 373.249 184.441 379.956 189.322 383.523C193.337 386.458 194.397 386.428 196.99 383.303ZM88.7232 383.303C93.1482 377.973 86.4007 370.218 79.6061 372.824C76.1049 374.169 74.4424 380.656 76.8558 383.565C79.3773 386.603 86.1074 386.454 88.7232 383.303ZM640.604 287.242V248.004L646.005 245.212C648.976 243.676 651.047 242.061 650.607 241.621C650.168 241.181 647.35 242.221 644.345 243.932L638.881 247.042L638.868 286.76C638.863 308.605 639.251 326.479 639.731 326.479C640.211 326.479 640.604 308.823 640.604 287.242ZM87.796 320.244C91.0422 316.997 91.0702 316.765 88.732 312.397C86.5684 308.357 79.627 307.955 76.5257 311.691C74.8318 313.732 74.7725 315.377 76.2759 318.675C78.5216 323.602 83.7272 324.31 87.796 320.244ZM196.428 318.622C197.97 314.605 195.677 310.439 192.284 311.094C188.495 311.822 187.169 317.687 190.34 319.696C193.749 321.856 195.291 321.585 196.428 318.622ZM140.616 285.275C141.852 282.055 137.628 278.701 135.288 281.041C133.381 282.947 135.131 288.07 137.688 288.07C138.709 288.07 140.026 286.813 140.616 285.275ZM30.5804 285.334C31.1584 283.829 30.7743 281.741 29.7266 280.693C27.205 278.172 22.2684 282.109 23.5991 285.578C24.8773 288.906 29.269 288.752 30.5804 285.334ZM72.2038 245.099C74.1246 243.611 80.0182 240.098 85.3005 237.293C90.5829 234.487 104.591 226.498 116.429 219.539L137.955 206.887L137.765 165.604L137.574 124.32L145.053 120.088C151.649 116.355 207.748 83.6951 208.831 82.9583C209.502 82.5009 209.682 30.2541 209.067 13.9687C208.76 5.80676 208.093 17.5721 207.586 40.113L206.664 81.0955L171.82 101.108L136.975 121.121L126.417 115.386C116.785 110.152 79.4716 88.4997 70.021 82.6598C66.1304 80.2557 66.092 79.8332 66.092 40.1165C66.092 14.5378 65.4598 0.00177002 64.3457 0.00177002C63.2333 0.00177002 62.5855 14.7211 62.5628 40.5931L62.5244 81.1845L33.109 98.2067C16.9301 107.57 2.6441 115.229 1.36414 115.229C-0.308777 115.229 -0.430969 115.761 0.931091 117.123C2.29315 118.485 6.68671 116.826 16.5599 111.227C24.1142 106.943 33.0444 101.877 36.4059 99.9683C39.7674 98.0618 47.47 93.5819 53.5242 90.0151L64.5308 83.5275L98.9265 103.172C117.843 113.977 133.87 123.642 134.539 124.651C135.21 125.66 135.809 143.926 135.872 165.243L135.987 203.997L131.162 207.325C128.508 209.155 120.836 213.675 114.113 217.369C107.39 221.065 94.2099 228.663 84.8221 234.255C75.4361 239.847 66.5181 244.423 65.0041 244.423C63.4918 244.423 54.9684 240.137 46.0644 234.898C31.3837 226.259 29.9553 224.958 30.7254 220.931C31.4222 217.287 30.9001 216.489 27.8232 216.489C25.7609 216.489 23.613 217.687 23.0507 219.153C22.4185 220.798 21.273 221.247 20.0489 220.327C14.4103 216.081 1.48114 209.572 1.48114 210.977C1.48114 213.804 60.7991 247.943 65.5629 247.859C67.2952 247.829 70.2829 246.586 72.2038 245.099ZM802.028 238.257C803.931 236.818 804.45 235.694 803.214 235.694C802 235.694 799.83 236.872 798.389 238.312C795.041 241.659 797.58 241.621 802.028 238.257ZM673.536 229.506C678.683 226.299 683.397 223.143 684.014 222.491C685.812 220.588 668.018 229.91 664.178 232.879C658.032 237.637 663.864 235.535 673.536 229.506ZM960.936 229.527C962.801 228.118 963.539 226.964 962.579 226.964C961.618 226.964 959.308 228.118 957.443 229.527C955.58 230.938 954.84 232.09 955.8 232.09C956.76 232.09 959.072 230.938 960.936 229.527ZM824.202 225.133L828.325 221.554L822.649 224.304C817.065 227.01 815.474 228.71 818.527 228.71C819.38 228.71 821.935 227.1 824.202 225.133ZM744.505 223.473C741.624 221.564 738.481 220.004 737.52 220.004C736.56 220.004 738.131 221.564 741.013 223.473C743.894 225.381 747.037 226.942 747.998 226.942C748.958 226.942 747.387 225.381 744.505 223.473ZM913.078 222.526C914.692 220.581 914.784 219.303 913.41 217.93C911.171 215.691 906.032 217.231 906.032 220.14C906.032 221.512 906.947 221.395 908.903 219.771C911.456 217.654 911.636 217.825 910.532 221.304C909.079 225.88 909.947 226.297 913.078 222.526ZM803.586 224.054C805.749 221.891 804.77 216.87 801.974 215.798C798.031 214.284 796.019 216.026 796.019 220.957C796.019 223.925 796.99 225.218 799.22 225.218C800.982 225.218 802.947 224.695 803.586 224.054ZM583.729 222.289C584.365 220.632 583.687 218.197 582.17 216.678C579.755 214.265 579.199 214.282 576.627 216.852C575.056 218.424 574.245 220.95 574.827 222.463C576.227 226.112 582.308 225.994 583.729 222.289ZM141 222.062C143.087 218.165 141.966 216.489 137.276 216.489C134.857 216.489 134.104 217.523 134.51 220.281C135.25 225.307 138.749 226.268 141 222.062ZM691.245 221.515C691.245 220.499 693.012 218.198 695.174 216.402C699.04 213.189 698.998 213.184 692.612 216.122C685.53 219.38 684.611 220.817 688.626 222.359C690.066 222.91 691.245 222.532 691.245 221.515ZM732.282 217.318C726.978 213.018 722.003 210.494 723.451 212.835C724.107 213.898 727.149 215.979 730.209 217.46C735.374 219.956 735.523 219.946 732.282 217.318ZM707.41 209.919C711.48 207.398 712.79 207.288 715.876 209.214C721.179 212.526 721.862 210.517 716.602 207.072C712.357 204.291 711.885 204.355 705.665 208.582C698.424 213.5 699.859 214.602 707.41 209.919ZM712.837 164.546C712.706 145.584 712.944 128.475 713.366 126.526C713.867 124.204 719.969 119.718 731.064 113.508C740.377 108.294 755.426 99.4794 764.505 93.9171C773.584 88.3548 782.069 83.8033 783.363 83.8033C788.126 83.8033 795.787 89.1125 796.332 92.7911C796.758 95.6647 798.155 96.618 802.131 96.7402C810.321 96.9916 849.721 120.117 852.95 126.568C854.998 130.661 855.531 138.154 855.372 160.621C855.087 200.724 855.905 199.561 857.05 158.233C857.939 126.151 858.273 123.358 861.503 121.032C870.797 114.342 905.154 96.0226 908.43 96.0104C910.688 96.0017 912.946 94.2715 914.189 91.5916L916.232 87.1868L909.385 91.1691C873.563 112.006 858.075 120.466 855.76 120.466C853.268 120.466 805.049 93.5312 803.004 90.9963C802.524 90.4009 798.398 88.1558 793.836 86.0084L785.542 82.1028V41.0523C785.542 16.4233 784.882 0.00177002 783.89 0.00177002C782.896 0.00177002 782.297 16.1475 782.385 40.5862L782.531 81.1705L774.481 85.8984C770.053 88.4997 762.282 92.9395 757.214 95.7625C752.145 98.5873 739.916 105.672 730.038 111.507L712.079 122.116L676.777 101.48L641.477 80.8423V40.4221V0H634.826C630.836 0.00177002 628.606 0.700073 629.254 1.74762C629.847 2.70782 632.25 3.49347 634.595 3.49347H638.858L638.903 43.2119L638.949 82.9304L658.548 93.8997C669.328 99.9333 682.077 107.186 686.879 110.016C691.682 112.846 698.949 116.887 703.032 118.996L710.454 122.832V160.93C710.454 181.886 711.044 199.029 711.763 199.027C712.483 199.025 712.966 183.508 712.837 164.546ZM86.9333 194.374C88.917 192.985 90.5393 190.367 90.5393 188.555C90.5393 181.003 77.8755 178.197 75.6369 185.252C73.0245 193.482 80.0758 199.175 86.9333 194.374ZM636.846 192.246C640.299 190.06 638.566 184.191 634.468 184.191C631.965 184.191 631 185.364 631 188.41C631 193.067 633.235 194.531 636.846 192.246ZM528.595 192.276C530.106 191.295 530.527 189.357 529.755 186.926C527.928 181.172 519.241 182.518 519.241 188.555C519.241 193.232 524.127 195.176 528.595 192.276ZM637.594 130.708C644.64 126.766 638.598 115.122 631.482 118.93C629.776 119.843 628.38 122.499 628.38 124.831C628.38 129.968 633.303 133.108 637.594 130.708ZM748.522 128.847C753.891 123.478 746.774 115.686 740.929 120.536C737.416 123.452 737.761 126.989 741.771 129.135C745.981 131.387 745.981 131.387 748.522 128.847ZM529.849 126.677C531.244 121.119 529.62 118.721 524.464 118.721C519.337 118.721 516.253 123.499 518.577 127.841C521.132 132.612 528.552 131.846 529.849 126.677ZM955.8 96.9427C951.958 94.5771 948.029 92.6409 947.069 92.6409C946.108 92.6409 948.466 94.5771 952.308 96.9427C956.149 99.3083 960.078 101.245 961.039 101.245C961.999 101.245 959.642 99.3083 955.8 96.9427ZM31.8256 96.8641C35.6777 93.011 32.6078 87.295 26.6846 87.295C21.7095 87.295 19.2753 91.644 21.9086 95.8253C24.3918 99.7675 28.492 100.197 31.8256 96.8641ZM692.404 95.0345C693.861 91.2425 690.166 87.6757 687.52 90.3206C685.285 92.5554 686.67 97.7703 689.499 97.7703C690.52 97.7703 691.826 96.5394 692.404 95.0345ZM140.401 94.1266C141.046 93.0826 140.768 91.4222 139.783 90.4376C137.579 88.2343 134.195 90.0954 134.195 93.5085C134.195 96.4486 138.69 96.8956 140.401 94.1266ZM928.374 41.4661C928.016 -0.743713 927.418 4.15344 926.564 56.3077C926.317 71.4339 926.702 83.8068 927.424 83.8051C928.145 83.8051 928.571 64.7507 928.374 41.4661ZM582.299 36.6056C589.108 34.0305 589.338 26.1007 582.708 22.5531C576.028 18.9793 569.417 24.4613 571.706 31.6752C573.109 36.0905 577.837 38.2921 582.299 36.6056ZM803.441 34.7794C809.512 31.244 805.318 21.668 798.286 23.0088C794.521 23.7263 793.168 30.612 796.1 34.1422C798.55 37.0944 799.348 37.1625 803.441 34.7794ZM30.2906 34.2643C34.3907 31.2667 33.116 23.7245 28.3942 23.0507C23.7684 22.389 20.0734 26.7361 21.4844 31.1829C22.9058 35.6593 26.6095 36.9565 30.2906 34.2643ZM693.499 33.8297C695.558 31.7695 694.888 24.7861 692.555 24.0004C687.674 22.3593 684.066 24.8437 684.602 29.4738C685.124 33.9641 690.655 36.6719 693.499 33.8297ZM140.81 32.845C143.997 29.6588 143.363 26.5634 139.258 25.2609C134.393 23.7176 131.022 27.0295 133.486 30.935C135.929 34.8073 138.243 35.4114 140.81 32.845ZM912.682 29.5505C912.338 28.5187 911.311 27.6738 910.398 27.6738C909.485 27.6738 908.458 28.5187 908.114 29.5505C907.77 30.5823 908.797 31.4274 910.398 31.4274C911.999 31.4274 913.026 30.5823 912.682 29.5505ZM861.212 4.07489C863.983 1.30591 861.858 0.00177002 854.572 0.00177002C848.354 0.00177002 846.974 0.534241 847.774 2.62054C848.789 5.26202 858.926 6.36023 861.212 4.07489ZM527.258 1.61322C529.047 0.478394 528.41 0.0471802 524.916 0.0279541C519.702 6.10352e-05 518.762 0.855469 522.455 2.27136C523.742 2.76544 525.904 2.46869 527.258 1.61322ZM86.1737 1.74762C86.811 0.71582 84.8885 0.0122681 81.4746 0.0279541C77.102 0.0488892 76.3336 0.466125 78.3156 1.74762C81.7103 3.94043 84.8186 3.94043 86.1737 1.74762Z" fill="#00A651" fill-opacity="0.15"/>
<path fill-rule="evenodd" clip-rule="evenodd" d="M1785.95 11.7479C1786.17 18.2094 1785.76 22.5531 1785.05 21.4008C1784.34 20.2486 1783.23 19.8348 1782.58 20.4808C1781.93 21.1285 1782.6 22.8534 1784.06 24.3147C1787.89 28.1416 1788.62 24.8594 1786.96 11.3481L1785.56 0L1785.95 11.7479ZM1892.61 20.2293C1891.09 22.6945 1894.45 26.0605 1896.92 24.5364C1899.69 22.8255 1899.24 18.3316 1896.3 18.3316C1894.92 18.3316 1893.26 19.1853 1892.61 20.2293ZM1785.98 48.8842C1785.98 60.407 1786.27 64.8938 1786.61 58.8549C1786.95 52.8159 1786.95 43.3883 1786.6 37.9045C1786.26 32.4207 1785.98 37.3615 1785.98 48.8842ZM1777.37 70.0005C1774.54 71.4583 1771.04 73.8938 1769.6 75.4109C1767.96 77.1358 1769.92 76.6226 1774.83 74.0404C1784.66 68.8762 1784.3 69.1188 1783.34 68.1551C1782.9 67.7099 1780.21 68.541 1777.37 70.0005ZM1788.8 68.0713C1788.8 69.2672 1799.5 74.5659 1800.29 73.7681C1800.67 73.3892 1798.24 71.7725 1794.89 70.1751C1791.54 68.5794 1788.8 67.6331 1788.8 68.0713ZM1910.71 76.5667C1903.53 80.8877 1900.21 81.9981 1898.06 80.7934C1894.64 78.8817 1889.46 82.2792 1890.74 85.5963C1891.53 87.6495 1887.96 90.064 1870 99.6593C1865.2 102.226 1861.03 104.965 1860.72 105.749C1860.42 106.533 1859.24 106.817 1858.1 106.379C1856.54 105.775 1856.16 115.849 1856.53 148.009L1857.02 190.434L1830.34 205.621C1815.66 213.973 1799.96 222.963 1795.45 225.599L1787.24 230.391L1776.24 224.538C1764.31 218.195 1745.43 207.646 1728.12 197.66C1722.12 194.196 1717.21 191.965 1717.21 192.703C1717.21 193.442 1720.55 195.813 1724.63 197.974C1728.71 200.134 1736.37 204.479 1741.66 207.627C1746.94 210.777 1759.09 217.826 1768.65 223.293L1786.04 233.232L1794.84 228.508C1802.73 224.276 1820.75 213.874 1837.7 203.772C1841.06 201.768 1847.1 198.391 1851.13 196.267L1858.45 192.403L1873.47 200.953C1882.31 205.981 1889.4 211.302 1890.67 213.869C1892.34 217.224 1893.97 218.111 1897.73 217.708C1900.41 217.418 1903.52 217.924 1904.64 218.83C1907.16 220.869 1919.58 227.836 1920.7 227.836C1921.15 227.836 1921.52 227.05 1921.52 226.09C1921.52 225.129 1920.76 224.344 1919.83 224.344C1916.33 224.344 1901.42 213.626 1900.16 210.199C1899.19 207.58 1897.54 206.751 1894.02 207.105C1891.38 207.372 1887.25 206.349 1884.85 204.832C1882.45 203.315 1875.77 199.373 1870 196.073L1859.53 190.074L1859.06 149.736L1858.59 109.399L1863.42 106.067C1872.85 99.5667 1891.57 89.9121 1894.75 89.9121C1896.53 89.9121 1898.93 88.3879 1900.09 86.5269C1901.26 84.664 1904.78 81.8968 1907.93 80.3779C1913.75 77.5723 1923.2 70.8176 1921.42 70.746C1920.88 70.725 1916.06 73.3438 1910.71 76.5667ZM1670.9 81.6437C1668.29 84.8019 1668.78 88.4019 1672.1 90.4935C1675.96 92.9272 1680.9 88.9309 1680.19 83.9552C1679.59 79.8053 1673.64 78.323 1670.9 81.6437ZM1813.25 81.724C1813.25 82.2041 1819.73 86.3069 1827.66 90.8426C1835.58 95.3766 1844.29 100.628 1847.01 102.51C1849.72 104.392 1852.34 105.541 1852.81 105.061C1853.59 104.286 1848.93 101.393 1820.67 85.1249C1816.59 82.7733 1813.25 81.2439 1813.25 81.724ZM1744.71 89.1649C1738.18 92.7055 1738.58 94.1807 1745.15 90.785C1748.03 89.2958 1750.39 87.7036 1750.39 87.2479C1750.39 86.1253 1750.2 86.1882 1744.71 89.1649ZM1709.35 106.349C1712.23 108.659 1714.98 110.159 1715.46 109.682C1716.61 108.54 1708.66 102.131 1706.1 102.142C1705.01 102.147 1706.47 104.04 1709.35 106.349ZM1725.5 111.002C1721.49 113.34 1721.62 118.302 1725.8 122.08C1728.47 124.496 1729.88 124.714 1732.78 123.162C1737.42 120.678 1737.58 113.352 1733.04 110.924C1729.02 108.773 1729.34 108.769 1725.5 111.002ZM1836.46 112.261C1833.74 113.984 1835.47 120.781 1838.97 122.12C1840.43 122.684 1842.71 122.249 1844.03 121.154C1850.22 116.023 1843.3 107.91 1836.46 112.261ZM1714.47 151.89C1714.47 173.976 1714.72 182.769 1715.02 171.434C1715.33 160.096 1715.32 142.026 1715.02 131.279C1714.71 120.529 1714.46 129.805 1714.47 151.89ZM1836.44 175.896C1832.41 181.097 1832.51 184.285 1836.75 186.218C1842.77 188.959 1846.43 186.961 1846.43 180.938C1846.43 174.412 1840.07 171.201 1836.44 175.896ZM1506.91 178.202C1503.62 181.497 1504.79 184.189 1509.51 184.189C1511.7 184.189 1512.9 182.991 1512.9 180.8C1512.9 176.078 1510.21 174.91 1506.91 178.202ZM1617.09 176.624C1614.53 179.182 1616.01 184.189 1619.32 184.189C1623.43 184.189 1625.03 181.963 1623.6 178.235C1622.51 175.384 1619.16 174.555 1617.09 176.624ZM1727.96 179.716C1728.29 181.317 1729.35 182.586 1730.31 182.536C1732.9 182.398 1732.42 178.492 1729.7 177.586C1728.23 177.097 1727.58 177.895 1727.96 179.716ZM1561.79 212.123C1561.79 214.752 1562.71 215.695 1564.85 215.283C1566.53 214.958 1567.91 213.537 1567.91 212.123C1567.91 210.709 1566.53 209.287 1564.85 208.963C1562.71 208.551 1561.79 209.493 1561.79 212.123ZM1782.6 210.529C1780.8 213.441 1784.85 216.779 1787.26 214.37C1789.27 212.355 1788.01 208.631 1785.31 208.631C1784.47 208.631 1783.24 209.485 1782.6 210.529ZM1672.14 212.254C1672.49 213.285 1673.51 214.13 1674.43 214.13C1675.34 214.13 1676.37 213.285 1676.71 212.254C1677.05 211.222 1676.03 210.377 1674.43 210.377C1672.82 210.377 1671.8 211.222 1672.14 212.254ZM1672.24 270.892C1671.04 271.377 1670.06 273.607 1670.06 275.847C1670.06 280.232 1672.61 281.861 1677.48 280.597C1681 279.686 1681.52 274.908 1678.44 271.831C1676.21 269.598 1675.66 269.515 1672.24 270.892ZM1891.85 272.332C1888.75 276.074 1891 280.211 1896.14 280.211C1900.98 280.211 1902.25 275.613 1898.47 271.831C1895.73 269.092 1894.46 269.188 1891.85 272.332ZM1780.74 274.017C1779.39 277.514 1781.39 280.211 1785.31 280.211C1789.33 280.211 1790.92 277.956 1789.5 274.258C1788.16 270.784 1782.04 270.616 1780.74 274.017ZM1726.01 303.697C1722.67 307.723 1724.55 312.447 1729.73 313.048C1735.79 313.751 1738.56 307.044 1733.68 303.477C1729.66 300.542 1728.6 300.572 1726.01 303.697ZM1834.28 303.697C1829.85 309.027 1836.6 316.782 1843.39 314.176C1846.9 312.831 1848.56 306.344 1846.14 303.435C1843.62 300.397 1836.89 300.546 1834.28 303.697ZM1282.4 399.758V438.996L1276.99 441.788C1274.02 443.324 1271.95 444.939 1272.39 445.379C1272.83 445.819 1275.65 444.779 1278.66 443.068L1284.12 439.958L1284.13 400.24C1284.14 378.395 1283.75 360.521 1283.27 360.521C1282.79 360.521 1282.4 378.177 1282.4 399.758ZM1835.2 366.756C1831.96 370.003 1831.93 370.235 1834.27 374.603C1836.43 378.643 1843.37 379.045 1846.47 375.309C1848.17 373.268 1848.23 371.623 1846.72 368.325C1844.48 363.398 1839.27 362.69 1835.2 366.756ZM1726.57 368.378C1725.03 372.395 1727.32 376.561 1730.72 375.906C1734.51 375.178 1735.83 369.313 1732.66 367.304C1729.25 365.144 1727.71 365.415 1726.57 368.378ZM1782.38 401.725C1781.15 404.945 1785.37 408.299 1787.71 405.959C1789.62 404.053 1787.87 398.93 1785.31 398.93C1784.29 398.93 1782.97 400.187 1782.38 401.725ZM1892.42 401.666C1891.84 403.171 1892.23 405.259 1893.27 406.307C1895.8 408.828 1900.73 404.891 1899.4 401.422C1898.12 398.094 1893.73 398.248 1892.42 401.666ZM1850.8 441.901C1848.88 443.389 1842.98 446.902 1837.7 449.707C1832.42 452.513 1818.41 460.502 1806.57 467.461L1785.05 480.113L1785.24 521.396L1785.43 562.68L1777.95 566.912C1771.35 570.645 1715.25 603.305 1714.17 604.042C1713.5 604.499 1713.32 656.746 1713.93 673.031C1714.24 681.193 1714.91 669.428 1715.41 646.887L1716.34 605.905L1751.18 585.892L1786.02 565.879L1796.58 571.614C1806.21 576.848 1843.53 598.5 1852.98 604.34C1856.87 606.744 1856.91 607.167 1856.91 646.883C1856.91 672.462 1857.54 686.998 1858.65 686.998C1859.77 686.998 1860.41 672.279 1860.44 646.407L1860.48 605.815L1889.89 588.793C1906.07 579.43 1920.36 571.771 1921.64 571.771C1923.31 571.771 1923.43 571.239 1922.07 569.877C1920.71 568.515 1916.31 570.174 1906.44 575.773C1898.89 580.057 1889.96 585.123 1886.59 587.032C1883.23 588.938 1875.53 593.418 1869.48 596.985L1858.47 603.473L1824.07 583.828C1805.16 573.023 1789.13 563.358 1788.46 562.349C1787.79 561.34 1787.19 543.074 1787.13 521.757L1787.01 483.003L1791.84 479.675C1794.49 477.845 1802.16 473.325 1808.89 469.631C1815.61 465.935 1828.79 458.337 1838.18 452.745C1847.56 447.153 1856.48 442.577 1858 442.577C1859.51 442.577 1868.03 446.863 1876.94 452.102C1891.62 460.741 1893.04 462.042 1892.27 466.069C1891.58 469.713 1892.1 470.511 1895.18 470.511C1897.24 470.511 1899.39 469.313 1899.95 467.847C1900.58 466.202 1901.73 465.753 1902.95 466.673C1908.59 470.919 1921.52 477.428 1921.52 476.023C1921.52 473.196 1862.2 439.057 1857.44 439.141C1855.7 439.171 1852.72 440.414 1850.8 441.901ZM1120.97 448.743C1119.07 450.182 1118.55 451.306 1119.79 451.306C1121 451.306 1123.17 450.128 1124.61 448.688C1127.96 445.341 1125.42 445.379 1120.97 448.743ZM1249.46 457.494C1244.32 460.701 1239.6 463.857 1238.99 464.509C1237.19 466.412 1254.98 457.09 1258.82 454.121C1264.97 449.363 1259.14 451.465 1249.46 457.494ZM962.064 457.473C960.199 458.882 959.461 460.036 960.421 460.036C961.382 460.036 963.692 458.882 965.557 457.473C967.42 456.062 968.16 454.91 967.2 454.91C966.24 454.91 963.928 456.062 962.064 457.473ZM1098.8 461.867L1094.68 465.446L1100.35 462.696C1105.94 459.99 1107.53 458.29 1104.47 458.29C1103.62 458.29 1101.06 459.9 1098.8 461.867ZM1178.49 463.527C1181.38 465.436 1184.52 466.996 1185.48 466.996C1186.44 466.996 1184.87 465.436 1181.99 463.527C1179.11 461.619 1175.96 460.058 1175 460.058C1174.04 460.058 1175.61 461.619 1178.49 463.527ZM1009.92 464.474C1008.31 466.419 1008.22 467.697 1009.59 469.07C1011.83 471.309 1016.97 469.769 1016.97 466.86C1016.97 465.488 1016.05 465.605 1014.1 467.229C1011.54 469.346 1011.36 469.175 1012.47 465.696C1013.92 461.12 1013.05 460.703 1009.92 464.474ZM1119.41 462.946C1117.25 465.109 1118.23 470.13 1121.03 471.202C1124.97 472.716 1126.98 470.974 1126.98 466.043C1126.98 463.075 1126.01 461.782 1123.78 461.782C1122.02 461.782 1120.05 462.305 1119.41 462.946ZM1339.27 464.711C1338.64 466.368 1339.31 468.803 1340.83 470.322C1343.25 472.735 1343.8 472.718 1346.37 470.148C1347.94 468.576 1348.75 466.05 1348.17 464.537C1346.77 460.888 1340.69 461.006 1339.27 464.711ZM1782 464.938C1779.91 468.835 1781.03 470.511 1785.72 470.511C1788.14 470.511 1788.9 469.477 1788.49 466.719C1787.75 461.693 1784.25 460.732 1782 464.938ZM1231.76 465.485C1231.76 466.501 1229.99 468.802 1227.83 470.598C1223.96 473.811 1224 473.816 1230.39 470.878C1237.47 467.62 1238.39 466.183 1234.37 464.641C1232.93 464.09 1231.76 464.468 1231.76 465.485ZM1190.72 469.682C1196.02 473.982 1201 476.506 1199.55 474.165C1198.89 473.102 1195.85 471.021 1192.79 469.54C1187.63 467.044 1187.48 467.054 1190.72 469.682ZM1215.59 477.081C1211.52 479.602 1210.21 479.712 1207.12 477.786C1201.82 474.474 1201.14 476.483 1206.4 479.928C1210.64 482.709 1211.11 482.645 1217.33 478.418C1224.58 473.5 1223.14 472.398 1215.59 477.081ZM1210.16 522.454C1210.29 541.416 1210.06 558.525 1209.63 560.474C1209.13 562.796 1203.03 567.282 1191.94 573.492C1182.62 578.706 1167.57 587.521 1158.5 593.083C1149.42 598.645 1140.93 603.197 1139.64 603.197C1134.87 603.197 1127.21 597.888 1126.67 594.209C1126.24 591.335 1124.85 590.382 1120.87 590.26C1112.68 590.008 1073.28 566.883 1070.05 560.432C1068 556.339 1067.47 548.846 1067.63 526.379C1067.91 486.276 1067.1 487.439 1065.95 528.767C1065.06 560.849 1064.73 563.642 1061.5 565.968C1052.2 572.658 1017.85 590.977 1014.57 590.99C1012.31 590.998 1010.05 592.728 1008.81 595.408L1006.77 599.813L1013.62 595.831C1049.44 574.994 1064.92 566.534 1067.24 566.534C1069.73 566.534 1117.95 593.469 1120 596.004C1120.48 596.599 1124.6 598.844 1129.16 600.992L1137.46 604.897V645.948C1137.46 670.577 1138.12 686.998 1139.11 686.998C1140.1 686.998 1140.7 670.852 1140.62 646.414L1140.47 605.829L1148.52 601.102C1152.95 598.5 1160.72 594.061 1165.79 591.237C1170.85 588.413 1183.08 581.328 1192.96 575.493L1210.92 564.884L1246.22 585.52L1281.52 606.158V646.578V687H1288.17C1292.16 686.998 1294.39 686.3 1293.75 685.252C1293.15 684.292 1290.75 683.507 1288.4 683.507H1284.14L1284.1 643.788L1284.05 604.07L1264.45 593.1C1253.67 587.067 1240.92 579.814 1236.12 576.984C1231.32 574.154 1224.05 570.113 1219.97 568.004L1212.55 564.168V526.07C1212.55 505.114 1211.96 487.971 1211.24 487.973C1210.52 487.975 1210.03 503.492 1210.16 522.454ZM1836.07 492.626C1834.08 494.015 1832.46 496.633 1832.46 498.445C1832.46 505.997 1845.12 508.803 1847.36 501.748C1849.98 493.518 1842.92 487.825 1836.07 492.626ZM1286.15 494.754C1282.7 496.94 1284.43 502.809 1288.53 502.809C1291.03 502.809 1292 501.636 1292 498.59C1292 493.933 1289.77 492.469 1286.15 494.754ZM1394.4 494.724C1392.89 495.705 1392.47 497.643 1393.25 500.074C1395.07 505.828 1403.76 504.482 1403.76 498.445C1403.76 493.768 1398.87 491.824 1394.4 494.724ZM1285.41 556.292C1278.36 560.234 1284.4 571.878 1291.52 568.07C1293.22 567.157 1294.62 564.501 1294.62 562.169C1294.62 557.032 1289.7 553.892 1285.41 556.292ZM1174.48 558.153C1169.11 563.522 1176.23 571.314 1182.07 566.464C1185.58 563.548 1185.24 560.011 1181.23 557.865C1177.02 555.613 1177.02 555.613 1174.48 558.153ZM1393.15 560.323C1391.76 565.881 1393.38 568.279 1398.54 568.279C1403.66 568.279 1406.75 563.501 1404.42 559.159C1401.87 554.388 1394.45 555.154 1393.15 560.323ZM967.2 590.057C971.042 592.423 974.971 594.359 975.931 594.359C976.892 594.359 974.534 592.423 970.692 590.057C966.851 587.692 962.922 585.755 961.961 585.755C961.001 585.755 963.358 587.692 967.2 590.057ZM1891.17 590.136C1887.32 593.989 1890.39 599.705 1896.32 599.705C1901.29 599.705 1903.72 595.356 1901.09 591.175C1898.61 587.232 1894.51 586.803 1891.17 590.136ZM1230.6 591.966C1229.14 595.758 1232.83 599.324 1235.48 596.679C1237.71 594.445 1236.33 589.23 1233.5 589.23C1232.48 589.23 1231.17 590.461 1230.6 591.966ZM1782.6 592.873C1781.95 593.917 1782.23 595.578 1783.22 596.562C1785.42 598.766 1788.8 596.905 1788.8 593.491C1788.8 590.551 1784.31 590.104 1782.6 592.873ZM994.626 645.534C994.984 687.744 995.582 682.847 996.436 630.692C996.683 615.566 996.298 603.193 995.576 603.195C994.855 603.195 994.429 622.249 994.626 645.534ZM1340.7 650.394C1333.89 652.97 1333.66 660.899 1340.29 664.447C1346.97 668.021 1353.58 662.539 1351.29 655.325C1349.89 650.909 1345.16 648.708 1340.7 650.394ZM1119.56 652.221C1113.49 655.756 1117.68 665.332 1124.71 663.991C1128.48 663.274 1129.83 656.388 1126.9 652.858C1124.45 649.906 1123.65 649.837 1119.56 652.221ZM1892.71 652.736C1888.61 655.733 1889.88 663.275 1894.61 663.949C1899.23 664.611 1902.93 660.264 1901.52 655.817C1900.09 651.341 1896.39 650.044 1892.71 652.736ZM1229.5 653.17C1227.44 655.23 1228.11 662.214 1230.45 663C1235.33 664.641 1238.93 662.156 1238.4 657.526C1237.88 653.036 1232.35 650.328 1229.5 653.17ZM1782.19 654.155C1779 657.341 1779.64 660.437 1783.74 661.739C1788.61 663.282 1791.98 659.971 1789.51 656.065C1787.07 652.193 1784.76 651.589 1782.19 654.155ZM1010.32 657.449C1010.66 658.481 1011.69 659.326 1012.6 659.326C1013.52 659.326 1014.54 658.481 1014.89 657.449C1015.23 656.418 1014.2 655.573 1012.6 655.573C1011 655.573 1009.97 656.418 1010.32 657.449ZM1061.79 682.925C1059.02 685.694 1061.14 686.998 1068.43 686.998C1074.65 686.998 1076.03 686.466 1075.23 684.379C1074.21 681.738 1064.07 680.64 1061.79 682.925ZM1395.74 685.387C1393.95 686.522 1394.59 686.953 1398.08 686.972C1403.3 687 1404.24 686.145 1400.54 684.729C1399.26 684.235 1397.1 684.531 1395.74 685.387ZM1836.83 685.252C1836.19 686.284 1838.11 686.988 1841.53 686.972C1845.9 686.951 1846.67 686.534 1844.68 685.252C1841.29 683.06 1838.18 683.06 1836.83 685.252Z" fill="#00A651" fill-opacity="0.15"/>
</svg>
