<svg width="782" height="703" viewBox="0 0 782 703" fill="none" xmlns="http://www.w3.org/2000/svg">
<path fill-rule="evenodd" clip-rule="evenodd" d="M111.288 547.475C111.112 542.236 111.443 538.715 112.021 539.649C112.599 540.583 113.502 540.919 114.028 540.395C114.553 539.87 114.011 538.471 112.824 537.286C109.716 534.184 109.12 536.845 110.473 547.799L111.607 557L111.288 547.475ZM24.6768 540.599C25.9147 538.6 23.1807 535.871 21.1785 537.107C18.9294 538.494 19.2925 542.137 21.6804 542.137C22.8049 542.137 24.1521 541.445 24.6768 540.599ZM111.267 517.366C111.264 508.024 111.034 504.386 110.758 509.282C110.48 514.178 110.481 521.822 110.762 526.268C111.043 530.714 111.27 526.708 111.267 517.366ZM118.255 500.246C120.559 499.064 123.401 497.089 124.571 495.859C125.9 494.46 124.304 494.877 120.317 496.97C112.342 501.157 112.627 500.96 113.41 501.742C113.77 502.103 115.951 501.429 118.255 500.246ZM108.973 501.81C108.973 500.84 100.29 496.544 99.6421 497.191C99.3344 497.498 101.307 498.809 104.028 500.104C106.748 501.398 108.973 502.165 108.973 501.81ZM9.98175 494.922C15.8112 491.419 18.5056 490.518 20.2526 491.495C23.0262 493.045 27.2335 490.29 26.1997 487.601C25.5588 485.936 28.4515 483.979 43.0345 476.199C46.9341 474.118 50.326 471.897 50.5713 471.262C50.8166 470.626 51.7738 470.396 52.6984 470.751C53.9717 471.241 54.2808 463.073 53.9774 436.998L53.5761 402.602L75.2478 390.288C87.1677 383.517 99.9171 376.228 103.58 374.091L110.24 370.205L119.178 374.951C128.862 380.094 144.196 388.646 158.249 396.743C163.123 399.551 167.112 401.36 167.112 400.762C167.112 400.163 164.399 398.241 161.085 396.488C157.771 394.737 151.549 391.214 147.259 388.662C142.97 386.108 133.106 380.393 125.339 375.961L111.217 367.902L104.069 371.733C97.6653 375.164 83.0299 383.597 69.2679 391.787C66.5383 393.412 61.6305 396.15 58.3619 397.873L52.4189 401.005L40.2169 394.073C33.0417 389.997 27.2873 385.682 26.2521 383.601C24.8965 380.881 23.5721 380.162 20.5234 380.489C18.3424 380.724 15.8155 380.313 14.9066 379.579C12.866 377.925 2.77954 372.277 1.8692 372.277C1.50195 372.277 1.20276 372.914 1.20276 373.693C1.20276 374.471 1.81824 375.108 2.57123 375.108C5.41437 375.108 17.52 383.798 18.5509 386.577C19.3365 388.7 20.6736 389.372 23.5309 389.085C25.6793 388.869 29.0315 389.698 30.9813 390.928C32.9311 392.158 38.355 395.354 43.0345 398.03L51.5427 402.893L51.9227 435.598L52.3027 468.302L48.3776 471.004C40.7231 476.274 25.519 484.102 22.9382 484.102C21.4976 484.102 19.5464 485.338 18.6019 486.846C17.6575 488.357 14.7917 490.6 12.235 491.832C7.51447 494.107 -0.164185 499.583 1.28644 499.641C1.7218 499.658 5.6355 497.535 9.98175 494.922ZM204.716 490.806C206.833 488.245 206.438 485.326 203.745 483.63C200.611 481.657 196.598 484.897 197.177 488.932C197.657 492.296 202.494 493.498 204.716 490.806ZM89.1203 490.741C89.1203 490.351 83.8566 487.025 77.4216 483.347C70.9866 479.671 63.9178 475.414 61.7113 473.888C59.5063 472.362 57.3821 471.43 56.9935 471.82C56.3639 472.448 60.1515 474.794 83.0937 487.983C86.4076 489.89 89.1203 491.13 89.1203 490.741ZM144.778 484.708C150.078 481.837 149.756 480.641 144.423 483.394C142.083 484.602 140.169 485.892 140.169 486.262C140.169 487.172 140.321 487.121 144.778 484.708ZM173.493 470.775C171.153 468.902 168.92 467.686 168.53 468.073C167.595 468.998 174.056 474.195 176.132 474.186C177.019 474.182 175.833 472.648 173.493 470.775ZM160.376 467.003C163.636 465.107 163.531 461.084 160.139 458.021C157.971 456.062 156.824 455.885 154.467 457.144C150.698 459.158 150.572 465.097 154.256 467.066C157.52 468.81 157.262 468.813 160.376 467.003ZM70.2775 465.982C72.4797 464.585 71.0745 459.074 68.2399 457.989C67.0474 457.532 65.1968 457.884 64.1248 458.771C59.1035 462.932 64.7175 469.509 70.2775 465.982ZM169.339 433.852C169.339 415.946 169.135 408.816 168.888 418.007C168.64 427.199 168.642 441.849 168.89 450.563C169.138 459.278 169.341 451.758 169.339 433.852ZM70.2917 414.389C73.5617 410.172 73.4838 407.587 70.0394 406.02C65.1528 403.798 62.1779 405.417 62.1779 410.301C62.1779 415.592 67.3422 418.195 70.2917 414.389ZM337.883 412.519C340.557 409.848 339.609 407.665 335.773 407.665C333.993 407.665 333.021 408.636 333.021 410.412C333.021 414.241 335.207 415.188 337.883 412.519ZM248.411 413.798C250.489 411.725 249.293 407.665 246.605 407.665C243.264 407.665 241.962 409.47 243.123 412.492C244.011 414.803 246.732 415.476 248.411 413.798ZM158.385 411.291C158.114 409.993 157.256 408.964 156.476 409.005C154.372 409.117 154.758 412.284 156.967 413.018C158.16 413.415 158.69 412.768 158.385 411.291ZM293.316 385.017C293.316 382.885 292.576 382.121 290.834 382.455C289.47 382.718 288.353 383.87 288.353 385.017C288.353 386.164 289.47 387.316 290.834 387.579C292.576 387.913 293.316 387.149 293.316 385.017ZM114.012 386.309C115.473 383.948 112.187 381.242 110.23 383.195C108.594 384.829 109.618 387.848 111.809 387.848C112.496 387.848 113.488 387.156 114.012 386.309ZM203.708 384.911C203.429 384.074 202.593 383.389 201.853 383.389C201.113 383.389 200.278 384.074 199.998 384.911C199.719 385.747 200.553 386.432 201.853 386.432C203.154 386.432 203.987 385.747 203.708 384.911ZM203.626 337.368C204.6 336.975 205.398 335.167 205.398 333.351C205.398 329.796 203.331 328.475 199.372 329.5C196.519 330.239 196.093 334.113 198.592 336.607C200.405 338.417 200.854 338.485 203.626 337.368ZM25.2936 336.201C27.8163 333.167 25.9856 329.813 21.8081 329.813C17.8844 329.813 16.8492 333.541 19.9207 336.607C22.1456 338.828 23.1751 338.75 25.2936 336.201ZM115.524 334.835C116.614 331.999 114.996 329.813 111.809 329.813C108.546 329.813 107.258 331.641 108.411 334.639C109.493 337.456 114.463 337.592 115.524 334.835ZM159.965 310.771C162.679 307.507 161.152 303.677 156.94 303.19C152.02 302.619 149.775 308.058 153.738 310.95C156.998 313.329 157.859 313.305 159.965 310.771ZM72.0473 310.771C75.6406 306.45 70.1613 300.162 64.6438 302.275C61.8007 303.365 60.4507 308.625 62.4104 310.984C64.458 313.447 69.9231 313.326 72.0473 310.771ZM520.2 232.888V201.074L524.586 198.811C526.998 197.565 528.68 196.256 528.322 195.899C527.966 195.543 525.678 196.386 523.237 197.773L518.8 200.294L518.79 232.497C518.786 250.208 519.101 264.7 519.491 264.7C519.881 264.7 520.2 250.385 520.2 232.888ZM71.2943 259.645C73.9304 257.012 73.9531 256.824 72.0544 253.282C70.2975 250.007 64.6608 249.681 62.1423 252.71C60.7668 254.365 60.7186 255.698 61.9396 258.372C63.7631 262.367 67.9904 262.942 71.2943 259.645ZM159.508 258.33C160.76 255.073 158.898 251.695 156.143 252.226C153.066 252.816 151.99 257.571 154.565 259.2C157.333 260.951 158.585 260.732 159.508 258.33ZM114.187 231.292C115.191 228.682 111.76 225.963 109.86 227.86C108.312 229.406 109.733 233.559 111.809 233.559C112.638 233.559 113.707 232.539 114.187 231.292ZM24.8328 231.341C25.3021 230.12 24.9901 228.427 24.1393 227.578C22.0917 225.534 18.0829 228.726 19.1635 231.539C20.2015 234.237 23.7678 234.112 24.8328 231.341ZM58.6328 198.719C60.1926 197.513 64.9785 194.665 69.2679 192.39C73.5575 190.116 84.9329 183.638 94.5457 177.996L112.026 167.738L111.871 134.267L111.716 100.795L117.79 97.3636C123.146 94.3373 168.701 67.8576 169.58 67.2603C170.125 66.8894 170.271 24.5292 169.772 11.3254C169.522 4.70795 168.981 14.247 168.569 32.5225L167.821 65.7499L139.525 81.9757L111.23 98.2016L102.657 93.5517C94.8349 89.308 64.5346 71.7531 56.8602 67.0182C53.7009 65.0691 53.6697 64.7265 53.6697 32.5253C53.6697 11.7869 53.1564 0.00146484 52.2516 0.00146484C51.3484 0.00146484 50.8223 11.9355 50.8038 32.9117L50.7726 65.8221L26.886 79.6232C13.748 87.2145 2.14716 93.4243 1.10773 93.4243C-0.250732 93.4243 -0.349976 93.856 0.756104 94.9601C1.86212 96.0642 5.42993 94.7195 13.4474 90.18C19.5818 86.7064 26.8336 82.5986 29.5632 81.0515C32.293 79.5057 38.5479 75.8736 43.4641 72.9817L52.402 67.7217L80.3328 83.6489C95.6943 92.4094 108.709 100.246 109.252 101.064C109.797 101.882 110.283 116.691 110.334 133.974L110.428 165.395L106.51 168.093C104.354 169.577 98.1248 173.241 92.6653 176.237C87.206 179.233 76.5027 185.393 68.8795 189.927C61.2576 194.461 54.0157 198.171 52.7863 198.171C51.5583 198.171 44.6369 194.696 37.4064 190.448C25.485 183.444 24.3251 182.39 24.9504 179.124C25.5162 176.17 25.0923 175.523 22.5937 175.523C20.919 175.523 19.1748 176.494 18.7182 177.683C18.2049 179.017 17.2747 179.38 16.2806 178.634C11.7018 175.192 1.20276 169.915 1.20276 171.054C1.20276 173.346 49.3717 201.025 53.2401 200.957C54.6467 200.933 57.0729 199.925 58.6328 198.719ZM651.283 193.172C652.829 192.005 653.25 191.094 652.246 191.094C651.261 191.094 649.498 192.049 648.328 193.217C645.61 195.93 647.672 195.899 651.283 193.172ZM546.942 186.077C551.121 183.477 554.95 180.918 555.45 180.39C556.911 178.847 542.461 186.404 539.343 188.812C534.352 192.669 539.088 190.965 546.942 186.077ZM780.324 186.094C781.838 184.952 782.438 184.016 781.658 184.016C780.878 184.016 779.002 184.952 777.488 186.094C775.975 187.238 775.373 188.172 776.153 188.172C776.933 188.172 778.811 187.238 780.324 186.094ZM669.289 182.531L672.637 179.63L668.029 181.859C663.494 184.053 662.202 185.432 664.681 185.432C665.374 185.432 667.449 184.127 669.289 182.531ZM604.572 181.185C602.233 179.638 599.68 178.373 598.9 178.373C598.12 178.373 599.396 179.638 601.736 181.185C604.076 182.732 606.628 183.998 607.408 183.998C608.188 183.998 606.912 182.732 604.572 181.185ZM741.461 180.418C742.772 178.841 742.847 177.805 741.731 176.691C739.913 174.876 735.74 176.125 735.74 178.483C735.74 179.596 736.483 179.501 738.071 178.184C740.144 176.467 740.29 176.606 739.394 179.427C738.214 183.137 738.919 183.475 741.461 180.418ZM652.548 181.657C654.305 179.903 653.51 175.832 651.239 174.963C648.038 173.735 646.404 175.148 646.404 179.145C646.404 181.552 647.192 182.601 649.003 182.601C650.434 182.601 652.029 182.176 652.548 181.657ZM474.015 180.225C474.531 178.882 473.981 176.908 472.748 175.676C470.787 173.72 470.336 173.734 468.248 175.818C466.971 177.092 466.313 179.14 466.786 180.367C467.923 183.325 472.86 183.229 474.015 180.225ZM114.499 180.041C116.193 176.882 115.283 175.523 111.474 175.523C109.51 175.523 108.899 176.361 109.228 178.598C109.829 182.673 112.671 183.451 114.499 180.041ZM561.323 179.598C561.323 178.775 562.758 176.909 564.513 175.452C567.653 172.848 567.619 172.844 562.433 175.226C556.681 177.867 555.935 179.032 559.195 180.282C560.365 180.729 561.323 180.422 561.323 179.598ZM594.646 176.196C590.34 172.709 586.3 170.662 587.475 172.561C588.008 173.423 590.479 175.11 592.963 176.31C597.157 178.334 597.278 178.326 594.646 176.196ZM574.449 170.197C577.755 168.153 578.818 168.064 581.324 169.625C585.63 172.31 586.185 170.681 581.914 167.888C578.466 165.633 578.084 165.686 573.033 169.112C567.152 173.1 568.318 173.993 574.449 170.197ZM578.856 133.409C578.75 118.036 578.943 104.164 579.286 102.584C579.693 100.701 584.648 97.0636 593.658 92.0287C601.22 87.802 613.441 80.6551 620.813 76.1453C628.185 71.6356 635.075 67.9453 636.126 67.9453C639.995 67.9453 646.215 72.2499 646.658 75.2324C647.004 77.5623 648.138 78.3351 651.367 78.4342C658.018 78.638 690.013 97.3877 692.634 102.618C694.298 105.936 694.73 112.011 694.601 130.227C694.37 162.741 695.034 161.799 695.964 128.291C696.686 102.28 696.957 100.015 699.58 98.1295C707.127 92.7053 735.026 77.8524 737.687 77.8425C739.52 77.8354 741.354 76.4327 742.363 74.2599L744.022 70.6886L738.462 73.9173C709.373 90.8113 696.796 97.6708 694.916 97.6708C692.893 97.6708 653.737 75.8325 652.076 73.7772C651.686 73.2945 648.335 71.4742 644.631 69.7331L637.896 66.5667V33.2841C637.896 13.3156 637.36 0.00146484 636.554 0.00146484C635.748 0.00146484 635.261 13.092 635.332 32.9061L635.451 65.8108L628.914 69.644C625.318 71.7531 619.008 75.3527 614.893 77.6415C610.776 79.9318 600.846 85.6759 592.824 90.4065L578.241 99.0085L549.574 82.2773L520.909 65.5446V32.7731V0H515.508C512.267 0.00140381 510.457 0.567627 510.983 1.41693C511.465 2.19543 513.416 2.83246 515.32 2.83246H518.782L518.819 35.035L518.855 67.2376L534.771 76.1312C543.525 81.0231 553.878 86.9031 557.777 89.1977C561.677 91.4922 567.579 94.769 570.894 96.4789L576.921 99.5888V130.478C576.921 147.468 577.4 161.367 577.984 161.365C578.569 161.364 578.961 148.783 578.856 133.409ZM70.5938 157.593C72.2047 156.466 73.522 154.345 73.522 152.875C73.522 146.752 63.2385 144.477 61.4206 150.197C59.2993 156.87 65.0252 161.486 70.5938 157.593ZM517.148 155.868C519.952 154.095 518.545 149.336 515.217 149.336C513.185 149.336 512.401 150.288 512.401 152.758C512.401 156.533 514.216 157.721 517.148 155.868ZM429.243 155.892C430.47 155.096 430.812 153.525 430.185 151.555C428.702 146.889 421.647 147.98 421.647 152.875C421.647 156.667 425.615 158.243 429.243 155.892ZM517.755 105.974C523.477 102.778 518.57 93.338 512.792 96.4252C511.407 97.1655 510.274 99.3185 510.274 101.21C510.274 105.374 514.271 107.92 517.755 105.974ZM607.834 104.465C612.194 100.113 606.414 93.7952 601.668 97.7274C598.815 100.091 599.096 102.959 602.352 104.699C605.771 106.525 605.771 106.525 607.834 104.465ZM430.262 102.706C431.395 98.2002 430.076 96.2553 425.888 96.2553C421.725 96.2553 419.221 100.13 421.108 103.65C423.183 107.518 429.208 106.897 430.262 102.706ZM776.153 78.5984C773.034 76.6804 769.843 75.1106 769.063 75.1106C768.283 75.1106 770.198 76.6804 773.317 78.5984C776.437 80.5164 779.627 82.0862 780.407 82.0862C781.187 82.0862 779.273 80.5164 776.153 78.5984ZM25.8438 78.5347C28.972 75.4107 26.4791 70.7763 21.6691 70.7763C17.6292 70.7763 15.6525 74.3023 17.7908 77.6924C19.8073 80.8886 23.1368 81.2369 25.8438 78.5347ZM562.264 77.0513C563.447 73.9768 560.446 71.0849 558.298 73.2294C556.483 75.0413 557.607 79.2693 559.904 79.2693C560.734 79.2693 561.795 78.2714 562.264 77.0513ZM114.012 76.3152C114.536 75.4687 114.31 74.1226 113.51 73.3242C111.721 71.5379 108.973 73.0468 108.973 75.8141C108.973 78.1978 112.623 78.5602 114.012 76.3152ZM753.882 33.6195C753.591 -0.602966 753.106 3.36749 752.413 45.6527C752.211 57.9166 752.525 67.9482 753.11 67.9468C753.696 67.9468 754.042 52.498 753.882 33.6195ZM472.853 29.6788C478.382 27.5909 478.569 21.1617 473.185 18.2854C467.761 15.3879 462.393 19.8326 464.252 25.6814C465.39 29.2612 469.23 31.0461 472.853 29.6788ZM652.431 28.1982C657.361 25.3318 653.955 17.5678 648.245 18.6549C645.187 19.2366 644.088 24.8193 646.469 27.6815C648.459 30.0751 649.107 30.1303 652.431 28.1982ZM24.5973 27.7806C27.9268 25.3502 26.8917 19.2352 23.0574 18.6888C19.301 18.1523 16.3005 21.6769 17.4463 25.2822C18.6005 28.9116 21.6081 29.9633 24.5973 27.7806ZM563.153 27.4282C564.825 25.7579 564.281 20.0958 562.386 19.4589C558.423 18.1283 555.493 20.1426 555.928 23.8965C556.352 27.5372 560.843 29.7325 563.153 27.4282ZM114.344 26.6298C116.932 24.0465 116.417 21.5368 113.083 20.4808C109.133 19.2296 106.396 21.9147 108.397 25.0812C110.381 28.2208 112.26 28.7106 114.344 26.6298ZM741.139 23.9587C740.86 23.1222 740.026 22.4371 739.285 22.4371C738.543 22.4371 737.709 23.1222 737.43 23.9587C737.15 24.7953 737.984 25.4804 739.285 25.4804C740.585 25.4804 741.419 24.7953 741.139 23.9587ZM699.343 3.30383C701.594 1.05884 699.868 0.00146484 693.952 0.00146484C688.902 0.00146484 687.782 0.433167 688.431 2.12469C689.255 4.26636 697.487 5.15668 699.343 3.30383ZM428.157 1.30792C429.611 0.387878 429.093 0.038269 426.256 0.0227051C422.021 6.10352e-05 421.259 0.693604 424.258 1.84155C425.303 2.24213 427.058 2.00153 428.157 1.30792ZM69.977 1.41693C70.4946 0.580383 68.9333 0.00994873 66.1611 0.0227051C62.6104 0.0396729 61.9864 0.37793 63.5958 1.41693C66.3525 3.19482 68.8766 3.19482 69.977 1.41693Z" fill="#00A651" fill-opacity="0.1"/>
<path fill-rule="evenodd" clip-rule="evenodd" d="M670.712 155.525C670.888 160.764 670.557 164.285 669.979 163.351C669.401 162.417 668.498 162.081 667.972 162.605C667.447 163.13 667.989 164.529 669.176 165.714C672.284 168.816 672.88 166.155 671.527 155.201L670.393 146L670.712 155.525ZM757.323 162.401C756.085 164.4 758.819 167.129 760.822 165.893C763.071 164.506 762.708 160.863 760.32 160.863C759.195 160.863 757.848 161.555 757.323 162.401ZM670.733 185.634C670.736 194.976 670.966 198.614 671.242 193.718C671.52 188.822 671.519 181.178 671.238 176.732C670.957 172.286 670.73 176.292 670.733 185.634ZM663.745 202.754C661.441 203.936 658.599 205.911 657.429 207.141C656.1 208.54 657.696 208.123 661.683 206.03C669.658 201.843 669.373 202.04 668.59 201.258C668.23 200.897 666.049 201.571 663.745 202.754ZM673.027 201.19C673.027 202.16 681.71 206.456 682.358 205.809C682.666 205.502 680.693 204.191 677.972 202.896C675.252 201.602 673.027 200.835 673.027 201.19ZM772.018 208.078C766.189 211.581 763.494 212.482 761.747 211.505C758.974 209.955 754.767 212.71 755.8 215.399C756.441 217.064 753.548 219.021 738.966 226.801C735.066 228.882 731.674 231.103 731.429 231.738C731.183 232.374 730.226 232.604 729.302 232.249C728.028 231.759 727.719 239.927 728.023 266.002L728.424 300.398L706.752 312.712C694.832 319.483 682.083 326.772 678.42 328.909L671.76 332.795L662.822 328.049C653.138 322.906 637.804 314.354 623.751 306.257C618.877 303.449 614.888 301.64 614.888 302.238C614.888 302.837 617.601 304.759 620.915 306.512C624.229 308.263 630.451 311.786 634.741 314.338C639.03 316.892 648.894 322.607 656.661 327.039L670.783 335.098L677.931 331.267C684.335 327.836 698.97 319.403 712.732 311.213C715.462 309.588 720.37 306.85 723.638 305.127L729.581 301.995L741.783 308.927C748.958 313.003 754.713 317.318 755.748 319.399C757.104 322.119 758.428 322.838 761.477 322.511C763.658 322.276 766.185 322.687 767.093 323.421C769.134 325.075 779.22 330.723 780.131 330.723C780.498 330.723 780.797 330.086 780.797 329.307C780.797 328.529 780.182 327.892 779.429 327.892C776.586 327.892 764.48 319.202 763.449 316.423C762.664 314.3 761.326 313.628 758.469 313.915C756.321 314.131 752.969 313.302 751.019 312.072C749.069 310.842 743.645 307.646 738.966 304.97L730.457 300.107L730.077 267.402L729.697 234.698L733.622 231.996C741.277 226.726 756.481 218.898 759.062 218.898C760.502 218.898 762.454 217.662 763.398 216.154C764.342 214.643 767.208 212.4 769.765 211.168C774.486 208.893 782.164 203.417 780.714 203.359C780.278 203.342 776.365 205.465 772.018 208.078ZM577.284 212.194C575.167 214.755 575.562 217.674 578.255 219.37C581.389 221.343 585.402 218.103 584.823 214.068C584.343 210.704 579.506 209.502 577.284 212.194ZM692.88 212.259C692.88 212.649 698.143 215.975 704.578 219.653C711.013 223.329 718.082 227.586 720.289 229.112C722.494 230.638 724.618 231.57 725.006 231.18C725.636 230.552 721.849 228.206 698.906 215.017C695.592 213.11 692.88 211.87 692.88 212.259ZM637.222 218.292C631.922 221.163 632.244 222.359 637.577 219.606C639.917 218.398 641.831 217.108 641.831 216.738C641.831 215.828 641.679 215.879 637.222 218.292ZM608.507 232.225C610.847 234.098 613.08 235.314 613.47 234.927C614.405 234.002 607.944 228.805 605.868 228.814C604.981 228.818 606.167 230.352 608.507 232.225ZM621.624 235.997C618.364 237.893 618.469 241.916 621.861 244.979C624.029 246.938 625.176 247.115 627.533 245.856C631.302 243.842 631.428 237.903 627.744 235.934C624.48 234.19 624.738 234.187 621.624 235.997ZM711.722 237.018C709.52 238.415 710.925 243.926 713.76 245.011C714.953 245.468 716.803 245.116 717.875 244.229C722.896 240.068 717.283 233.491 711.722 237.018ZM612.661 269.148C612.661 287.054 612.865 294.184 613.112 284.993C613.36 275.801 613.358 261.151 613.11 252.437C612.862 243.722 612.659 251.242 612.661 269.148ZM711.708 288.611C708.438 292.828 708.516 295.413 711.961 296.98C716.847 299.202 719.822 297.583 719.822 292.699C719.822 287.408 714.658 284.805 711.708 288.611ZM444.117 290.481C441.443 293.152 442.391 295.335 446.227 295.335C448.007 295.335 448.979 294.364 448.979 292.588C448.979 288.759 446.793 287.812 444.117 290.481ZM533.589 289.202C531.511 291.275 532.707 295.335 535.395 295.335C538.736 295.335 540.038 293.53 538.877 290.508C537.989 288.197 535.268 287.524 533.589 289.202ZM623.615 291.709C623.886 293.007 624.744 294.036 625.524 293.995C627.628 293.883 627.242 290.716 625.033 289.982C623.84 289.585 623.31 290.232 623.615 291.709ZM488.684 317.983C488.684 320.115 489.424 320.879 491.166 320.545C492.53 320.282 493.647 319.13 493.647 317.983C493.647 316.836 492.53 315.684 491.166 315.421C489.424 315.087 488.684 315.851 488.684 317.983ZM667.988 316.691C666.527 319.052 669.813 321.758 671.77 319.805C673.406 318.171 672.382 315.152 670.191 315.152C669.504 315.152 668.512 315.844 667.988 316.691ZM578.292 318.089C578.571 318.926 579.407 319.611 580.147 319.611C580.887 319.611 581.722 318.926 582.002 318.089C582.281 317.253 581.447 316.568 580.147 316.568C578.846 316.568 578.013 317.253 578.292 318.089ZM578.374 365.632C577.4 366.025 576.602 367.833 576.602 369.649C576.602 373.204 578.669 374.525 582.628 373.5C585.481 372.761 585.907 368.887 583.408 366.393C581.595 364.583 581.146 364.515 578.374 365.632ZM756.706 366.799C754.184 369.833 756.014 373.187 760.192 373.187C764.116 373.187 765.151 369.459 762.079 366.393C759.854 364.172 758.825 364.25 756.706 366.799ZM666.476 368.165C665.386 371.001 667.004 373.187 670.191 373.187C673.454 373.187 674.742 371.359 673.589 368.361C672.507 365.544 667.537 365.408 666.476 368.165ZM622.035 392.229C619.321 395.493 620.848 399.323 625.06 399.81C629.98 400.381 632.225 394.942 628.262 392.05C625.002 389.671 624.141 389.695 622.035 392.229ZM709.953 392.229C706.359 396.55 711.839 402.838 717.356 400.725C720.199 399.635 721.549 394.375 719.59 392.016C717.542 389.553 712.077 389.674 709.953 392.229ZM261.8 470.112V501.926L257.414 504.189C255.002 505.435 253.32 506.744 253.678 507.101C254.034 507.457 256.322 506.614 258.763 505.227L263.2 502.706L263.21 470.503C263.214 452.792 262.899 438.3 262.509 438.3C262.119 438.3 261.8 452.615 261.8 470.112ZM710.706 443.355C708.07 445.988 708.047 446.176 709.946 449.718C711.703 452.993 717.339 453.319 719.858 450.29C721.233 448.635 721.281 447.302 720.06 444.628C718.237 440.633 714.01 440.058 710.706 443.355ZM622.492 444.67C621.24 447.927 623.102 451.305 625.857 450.774C628.934 450.184 630.01 445.429 627.435 443.8C624.667 442.049 623.415 442.268 622.492 444.67ZM667.813 471.708C666.809 474.318 670.24 477.037 672.14 475.14C673.688 473.594 672.267 469.441 670.191 469.441C669.362 469.441 668.293 470.461 667.813 471.708ZM757.167 471.659C756.698 472.88 757.01 474.573 757.861 475.422C759.908 477.466 763.917 474.274 762.836 471.461C761.799 468.763 758.232 468.888 757.167 471.659ZM723.367 504.281C721.807 505.487 717.022 508.335 712.732 510.61C708.443 512.884 697.067 519.362 687.454 525.004L669.974 535.262L670.129 568.733L670.284 602.205L664.21 605.636C658.854 608.663 613.299 635.142 612.42 635.74C611.875 636.111 611.729 678.471 612.228 691.675C612.478 698.292 613.019 688.753 613.431 670.477L614.179 637.25L642.475 621.024L670.77 604.798L679.343 609.448C687.165 613.692 717.465 631.247 725.14 635.982C728.299 637.931 728.33 638.273 728.33 670.475C728.33 691.213 728.844 702.999 729.748 702.999C730.652 702.999 731.178 691.065 731.196 670.088L731.227 637.178L755.114 623.377C768.252 615.785 779.853 609.576 780.892 609.576C782.251 609.576 782.35 609.144 781.244 608.04C780.138 606.936 776.57 608.28 768.553 612.82C762.418 616.294 755.166 620.401 752.437 621.949C749.707 623.494 743.452 627.126 738.536 630.018L729.598 635.278L701.667 619.351C686.306 610.591 673.291 602.754 672.748 601.936C672.203 601.118 671.717 586.309 671.666 569.026L671.572 537.605L675.49 534.907C677.646 533.423 683.875 529.759 689.335 526.763C694.794 523.767 705.497 517.607 713.121 513.073C720.742 508.539 727.984 504.829 729.214 504.829C730.442 504.829 737.363 508.304 744.594 512.552C756.515 519.556 757.675 520.61 757.05 523.876C756.484 526.83 756.908 527.477 759.406 527.477C761.081 527.477 762.825 526.506 763.282 525.317C763.795 523.983 764.725 523.62 765.719 524.366C770.298 527.808 780.797 533.085 780.797 531.946C780.797 529.654 732.628 501.975 728.76 502.043C727.353 502.067 724.927 503.075 723.367 504.281ZM130.717 509.828C129.171 510.995 128.75 511.906 129.754 511.906C130.739 511.906 132.502 510.951 133.672 509.783C136.39 507.07 134.328 507.101 130.717 509.828ZM235.058 516.923C230.879 519.523 227.05 522.082 226.55 522.61C225.089 524.153 239.539 516.596 242.657 514.188C247.648 510.331 242.912 512.035 235.058 516.923ZM1.67633 516.906C0.161884 518.048 -0.43794 518.984 0.341973 518.984C1.12189 518.984 2.99793 518.048 4.51238 516.906C6.02542 515.762 6.62666 514.828 5.84675 514.828C5.06683 514.828 3.18937 515.762 1.67633 516.906ZM112.711 520.469L109.363 523.37L113.971 521.141C118.506 518.947 119.798 517.568 117.319 517.568C116.626 517.568 114.551 518.873 112.711 520.469ZM177.428 521.815C179.767 523.362 182.32 524.627 183.1 524.627C183.88 524.627 182.604 523.362 180.264 521.815C177.924 520.268 175.372 519.002 174.592 519.002C173.812 519.002 175.088 520.268 177.428 521.815ZM40.5387 522.582C39.2285 524.159 39.1533 525.195 40.2693 526.309C42.0872 528.124 46.2604 526.875 46.2604 524.517C46.2604 523.404 45.5174 523.499 43.9292 524.816C41.8561 526.533 41.71 526.394 42.6062 523.573C43.786 519.863 43.0812 519.525 40.5387 522.582ZM129.452 521.343C127.695 523.097 128.49 527.168 130.761 528.037C133.962 529.265 135.596 527.852 135.596 523.855C135.596 521.448 134.808 520.399 132.997 520.399C131.566 520.399 129.971 520.824 129.452 521.343ZM307.985 522.775C307.469 524.118 308.019 526.092 309.252 527.324C311.213 529.28 311.664 529.266 313.752 527.182C315.029 525.908 315.687 523.86 315.214 522.633C314.077 519.675 309.14 519.771 307.985 522.775ZM667.501 522.959C665.807 526.118 666.717 527.477 670.526 527.477C672.49 527.477 673.101 526.639 672.772 524.402C672.171 520.327 669.329 519.549 667.501 522.959ZM220.677 523.402C220.677 524.225 219.242 526.091 217.487 527.548C214.347 530.152 214.381 530.156 219.567 527.774C225.319 525.133 226.065 523.968 222.805 522.718C221.635 522.271 220.677 522.578 220.677 523.402ZM187.354 526.804C191.66 530.291 195.7 532.338 194.525 530.439C193.992 529.577 191.521 527.89 189.037 526.69C184.843 524.666 184.722 524.674 187.354 526.804ZM207.551 532.803C204.245 534.847 203.182 534.936 200.676 533.375C196.37 530.69 195.815 532.319 200.086 535.112C203.534 537.367 203.916 537.314 208.967 533.888C214.848 529.9 213.682 529.007 207.551 532.803ZM203.144 569.591C203.25 584.964 203.057 598.836 202.714 600.416C202.307 602.299 197.352 605.936 188.342 610.971C180.78 615.198 168.559 622.345 161.187 626.855C153.815 631.364 146.925 635.055 145.874 635.055C142.005 635.055 135.785 630.75 135.342 627.768C134.996 625.438 133.862 624.665 130.633 624.566C123.982 624.362 91.9875 605.612 89.3656 600.382C87.7022 597.064 87.2697 590.989 87.3988 572.773C87.6299 540.259 86.9663 541.201 86.036 574.709C85.3143 600.72 85.0434 602.985 82.4201 604.871C74.8734 610.295 46.9737 625.148 44.3135 625.157C42.48 625.165 40.6465 626.567 39.6369 628.74L37.9778 632.311L43.5378 629.083C72.6272 612.189 85.2037 605.329 87.084 605.329C89.1075 605.329 128.263 627.168 129.924 629.223C130.314 629.705 133.665 631.526 137.369 633.267L144.104 636.433V669.716C144.104 689.684 144.64 702.999 145.446 702.999C146.252 702.999 146.739 689.908 146.668 670.094L146.549 637.189L153.086 633.356C156.682 631.247 162.992 627.647 167.107 625.358C171.224 623.068 181.154 617.324 189.176 612.594L203.759 603.992L232.426 620.723L261.091 637.455V670.227V703H266.492C269.733 702.999 271.543 702.432 271.017 701.583C270.535 700.805 268.584 700.168 266.68 700.168H263.218L263.181 667.965L263.145 635.762L247.229 626.869C238.475 621.977 228.122 616.097 224.223 613.802C220.323 611.508 214.421 608.231 211.106 606.521L205.079 603.411V572.522C205.079 555.532 204.6 541.633 204.016 541.635C203.431 541.636 203.039 554.217 203.144 569.591ZM711.406 545.407C709.795 546.534 708.478 548.655 708.478 550.125C708.478 556.248 718.761 558.523 720.579 552.803C722.701 546.13 716.975 541.514 711.406 545.407ZM264.852 547.132C262.048 548.905 263.455 553.664 266.783 553.664C268.815 553.664 269.599 552.712 269.599 550.242C269.599 546.467 267.784 545.279 264.852 547.132ZM352.757 547.108C351.53 547.904 351.188 549.475 351.815 551.445C353.298 556.111 360.353 555.02 360.353 550.125C360.353 546.333 356.385 544.757 352.757 547.108ZM264.245 597.026C258.523 600.222 263.43 609.662 269.208 606.575C270.593 605.835 271.726 603.682 271.726 601.79C271.726 597.626 267.729 595.08 264.245 597.026ZM174.166 598.535C169.806 602.887 175.586 609.205 180.332 605.273C183.185 602.909 182.904 600.041 179.648 598.301C176.229 596.475 176.229 596.475 174.166 598.535ZM351.738 600.294C350.605 604.8 351.924 606.745 356.112 606.745C360.275 606.745 362.779 602.87 360.892 599.35C358.817 595.482 352.792 596.103 351.738 600.294ZM5.84675 624.402C8.9664 626.32 12.157 627.889 12.9369 627.889C13.7168 627.889 11.8024 626.32 8.68279 624.402C5.56314 622.484 2.37258 620.914 1.59267 620.914C0.812757 620.914 2.72709 622.484 5.84675 624.402ZM756.156 624.465C753.028 627.589 755.521 632.224 760.331 632.224C764.371 632.224 766.348 628.698 764.209 625.308C762.193 622.111 758.863 621.763 756.156 624.465ZM219.736 625.949C218.553 629.023 221.554 631.915 223.702 629.771C225.517 627.959 224.393 623.731 222.096 623.731C221.266 623.731 220.205 624.729 219.736 625.949ZM667.988 626.685C667.464 627.531 667.69 628.877 668.49 629.676C670.279 631.462 673.027 629.953 673.027 627.186C673.027 624.802 669.377 624.44 667.988 626.685ZM28.1182 669.38C28.4089 703.603 28.8939 699.633 29.5873 657.347C29.7887 645.083 29.4753 635.052 28.8896 635.053C28.304 635.053 27.958 650.502 28.1182 669.38ZM309.147 673.321C303.618 675.409 303.431 681.838 308.815 684.715C314.239 687.612 319.607 683.167 317.748 677.319C316.61 673.739 312.77 671.954 309.147 673.321ZM129.569 674.802C124.639 677.668 128.045 685.432 133.755 684.345C136.813 683.763 137.912 678.181 135.531 675.318C133.541 672.925 132.893 672.87 129.569 674.802ZM757.403 675.219C754.073 677.65 755.108 683.765 758.943 684.311C762.699 684.848 765.7 681.323 764.554 677.718C763.399 674.088 760.392 673.037 757.403 675.219ZM218.847 675.572C217.175 677.242 217.719 682.904 219.614 683.541C223.577 684.872 226.507 682.857 226.072 679.104C225.648 675.463 221.157 673.267 218.847 675.572ZM667.656 676.37C665.068 678.953 665.583 681.463 668.917 682.519C672.867 683.77 675.604 681.085 673.603 677.919C671.619 674.779 669.74 674.289 667.656 676.37ZM40.8606 679.041C41.14 679.878 41.9738 680.563 42.7154 680.563C43.457 680.563 44.2908 679.878 44.5702 679.041C44.8495 678.205 44.0157 677.52 42.7154 677.52C41.4151 677.52 40.5813 678.205 40.8606 679.041ZM82.6569 699.696C80.4065 701.941 82.1322 702.999 88.0482 702.999C93.0978 702.999 94.218 702.567 93.5686 700.875C92.7447 698.734 84.5131 697.843 82.6569 699.696ZM353.843 701.692C352.389 702.612 352.907 702.962 355.744 702.977C359.979 703 360.741 702.306 357.742 701.158C356.697 700.758 354.942 700.998 353.843 701.692ZM712.023 701.583C711.505 702.42 713.067 702.99 715.839 702.977C719.39 702.96 720.014 702.622 718.404 701.583C715.648 699.805 713.123 699.805 712.023 701.583Z" fill="#00A651" fill-opacity="0.1"/>
</svg>
