<svg width="768" height="986" viewBox="0 0 768 986" fill="none" xmlns="http://www.w3.org/2000/svg">
<path fill-rule="evenodd" clip-rule="evenodd" d="M716.768 384.883C716.848 387.412 716.696 389.112 716.43 388.661C716.164 388.21 715.749 388.048 715.506 388.301C715.265 388.554 715.514 389.23 716.061 389.801C717.491 391.299 717.766 390.015 717.143 384.727L716.621 380.285L716.768 384.883ZM756.64 388.203C756.07 389.167 757.329 390.485 758.25 389.888C759.286 389.219 759.119 387.46 758.019 387.46C757.502 387.46 756.881 387.794 756.64 388.203ZM716.777 399.418C716.779 403.928 716.884 405.684 717.012 403.32C717.14 400.957 717.139 397.267 717.01 395.12C716.88 392.974 716.776 394.908 716.777 399.418ZM713.56 407.682C712.5 408.253 711.191 409.206 710.653 409.8C710.041 410.475 710.776 410.274 712.611 409.264C716.283 407.242 716.151 407.337 715.791 406.96C715.625 406.786 714.621 407.111 713.56 407.682ZM717.834 406.927C717.834 407.395 721.831 409.469 722.129 409.157C722.271 409.009 721.363 408.376 720.11 407.751C718.858 407.126 717.834 406.756 717.834 406.927ZM763.405 410.252C760.721 411.943 759.481 412.378 758.677 411.907C757.4 411.158 755.463 412.488 755.939 413.786C756.234 414.59 754.902 415.535 748.189 419.29C746.394 420.295 744.832 421.367 744.719 421.674C744.606 421.981 744.166 422.092 743.74 421.92C743.154 421.684 743.011 425.627 743.151 438.214L743.336 454.818L733.359 460.763C727.872 464.032 722.002 467.55 720.316 468.582L717.25 470.457L713.135 468.166C708.677 465.684 701.618 461.555 695.149 457.647C692.905 456.291 691.069 455.418 691.069 455.707C691.069 455.996 692.318 456.924 693.843 457.77C695.369 458.615 698.233 460.316 700.208 461.548C702.183 462.78 706.724 465.54 710.299 467.679L716.8 471.569L720.091 469.72C723.039 468.064 729.777 463.993 736.112 460.039C737.369 459.254 739.628 457.933 741.133 457.101L743.868 455.589L749.486 458.935C752.789 460.903 755.438 462.986 755.915 463.991C756.539 465.304 757.148 465.651 758.552 465.493C759.556 465.38 760.719 465.578 761.138 465.932C762.077 466.731 766.72 469.457 767.139 469.457C767.309 469.457 767.446 469.15 767.446 468.774C767.446 468.398 767.163 468.09 766.816 468.09C765.507 468.09 759.935 463.896 759.46 462.554C759.098 461.529 758.483 461.205 757.167 461.343C756.178 461.448 754.635 461.048 753.738 460.454C752.84 459.86 750.343 458.317 748.189 457.026L744.272 454.678L744.097 438.89L743.922 423.103L745.729 421.798C749.253 419.254 756.252 415.475 757.44 415.475C758.103 415.475 759.002 414.879 759.436 414.151C759.871 413.421 761.19 412.338 762.367 411.744C764.541 410.646 768.076 408.002 767.408 407.974C767.207 407.966 765.406 408.991 763.405 410.252ZM673.757 412.239C672.783 413.475 672.965 414.884 674.204 415.703C675.647 416.656 677.495 415.091 677.228 413.144C677.007 411.52 674.78 410.94 673.757 412.239ZM726.973 412.271C726.973 412.459 729.396 414.064 732.358 415.84C735.321 417.614 738.575 419.67 739.591 420.406C740.606 421.143 741.584 421.592 741.763 421.405C742.052 421.101 740.309 419.969 729.747 413.602C728.222 412.681 726.973 412.083 726.973 412.271ZM701.35 415.183C698.91 416.569 699.058 417.146 701.514 415.817C702.591 415.234 703.472 414.611 703.472 414.433C703.472 413.993 703.402 414.018 701.35 415.183ZM688.131 421.909C689.208 422.813 690.236 423.4 690.416 423.213C690.846 422.766 687.872 420.258 686.916 420.262C686.508 420.264 687.054 421.005 688.131 421.909ZM694.17 423.73C692.669 424.645 692.717 426.587 694.279 428.065C695.277 429.011 695.805 429.097 696.89 428.489C698.625 427.517 698.683 424.65 696.987 423.699C695.484 422.857 695.603 422.856 694.17 423.73ZM735.647 424.223C734.633 424.897 735.28 427.557 736.585 428.081C737.134 428.302 737.986 428.132 738.48 427.703C740.791 425.695 738.207 422.52 735.647 424.223ZM690.043 439.733C690.043 448.377 690.137 451.819 690.251 447.382C690.365 442.945 690.364 435.872 690.25 431.666C690.136 427.459 690.043 431.089 690.043 439.733ZM735.641 449.129C734.135 451.164 734.171 452.412 735.757 453.168C738.006 454.241 739.376 453.459 739.376 451.102C739.376 448.548 736.998 447.291 735.641 449.129ZM612.453 450.031C611.222 451.321 611.658 452.374 613.424 452.374C614.243 452.374 614.691 451.905 614.691 451.048C614.691 449.2 613.685 448.742 612.453 450.031ZM653.642 449.413C652.686 450.415 653.236 452.374 654.474 452.374C656.012 452.374 656.611 451.503 656.076 450.044C655.668 448.928 654.415 448.604 653.642 449.413ZM695.086 450.624C695.211 451.25 695.606 451.747 695.965 451.727C696.934 451.673 696.756 450.145 695.739 449.79C695.19 449.599 694.946 449.911 695.086 450.624ZM632.97 463.307C632.97 464.336 633.31 464.705 634.112 464.544C634.74 464.417 635.254 463.861 635.254 463.307C635.254 462.754 634.74 462.198 634.112 462.07C633.31 461.909 632.97 462.278 632.97 463.307ZM715.514 462.683C714.841 463.823 716.354 465.13 717.255 464.187C718.008 463.398 717.537 461.941 716.528 461.941C716.211 461.941 715.755 462.275 715.514 462.683ZM674.221 463.358C674.35 463.762 674.734 464.093 675.075 464.093C675.416 464.093 675.801 463.762 675.929 463.358C676.058 462.955 675.674 462.624 675.075 462.624C674.477 462.624 674.093 462.955 674.221 463.358ZM674.259 486.309C673.811 486.499 673.443 487.371 673.443 488.248C673.443 489.965 674.395 490.602 676.218 490.107C677.531 489.751 677.727 487.88 676.577 486.676C675.742 485.802 675.535 485.77 674.259 486.309ZM756.356 486.873C755.195 488.337 756.037 489.956 757.96 489.956C759.767 489.956 760.243 488.156 758.829 486.676C757.805 485.604 757.331 485.642 756.356 486.873ZM714.818 487.532C714.316 488.901 715.06 489.956 716.528 489.956C718.03 489.956 718.623 489.073 718.092 487.626C717.594 486.266 715.306 486.201 714.818 487.532ZM694.359 499.148C693.109 500.724 693.813 502.573 695.751 502.808C698.017 503.083 699.05 500.458 697.225 499.062C695.725 497.913 695.328 497.925 694.359 499.148ZM734.832 499.148C733.178 501.234 735.701 504.27 738.241 503.249C739.55 502.723 740.171 500.184 739.269 499.046C738.326 497.857 735.81 497.915 734.832 499.148ZM528.522 536.745V552.103L526.503 553.195C525.392 553.797 524.618 554.429 524.783 554.601C524.946 554.773 526 554.366 527.124 553.696L529.166 552.479L529.171 536.934C529.173 528.384 529.028 521.389 528.848 521.389C528.669 521.389 528.522 528.299 528.522 536.745ZM735.179 523.829C733.966 525.1 733.955 525.191 734.829 526.9C735.638 528.481 738.233 528.639 739.392 527.176C740.025 526.377 740.048 525.734 739.486 524.443C738.646 522.515 736.7 522.237 735.179 523.829ZM694.569 524.463C693.993 526.036 694.85 527.666 696.118 527.41C697.535 527.125 698.03 524.83 696.845 524.043C695.57 523.198 694.994 523.304 694.569 524.463ZM715.433 537.515C714.971 538.775 716.55 540.088 717.425 539.172C718.138 538.426 717.484 536.421 716.528 536.421C716.146 536.421 715.654 536.913 715.433 537.515ZM756.568 537.492C756.352 538.081 756.496 538.898 756.887 539.308C757.83 540.295 759.675 538.754 759.178 537.396C758.7 536.094 757.058 536.154 756.568 537.492ZM741.008 553.24C740.29 553.822 738.087 555.197 736.112 556.295C734.137 557.393 728.9 560.52 724.475 563.243L716.428 568.195L716.499 584.353L716.57 600.511L713.774 602.167C711.309 603.628 690.337 616.411 689.932 616.699C689.682 616.878 689.614 637.327 689.844 643.701C689.959 646.896 690.208 642.291 690.398 633.469L690.742 617.429L703.768 609.596L716.794 601.763L720.741 604.008C724.342 606.056 738.291 614.531 741.824 616.816C743.278 617.757 743.293 617.923 743.293 633.467C743.293 643.478 743.529 649.168 743.946 649.168C744.361 649.168 744.604 643.407 744.612 633.281L744.626 617.394L755.623 610.731C761.671 607.067 767.012 604.069 767.49 604.069C768.115 604.069 768.161 603.861 767.652 603.328C767.143 602.795 765.5 603.444 761.809 605.635C758.985 607.312 755.647 609.295 754.39 610.042C753.134 610.788 750.254 612.541 747.991 613.937L743.876 616.477L731.018 608.788C723.946 604.559 717.955 600.776 717.705 600.381C717.454 599.986 717.23 592.838 717.207 584.494L717.164 569.326L718.967 568.024C719.96 567.308 722.827 565.539 725.341 564.093C727.854 562.646 732.781 559.672 736.291 557.484C739.8 555.295 743.133 553.504 743.699 553.504C744.265 553.504 747.451 555.182 750.78 557.232C756.268 560.613 756.802 561.122 756.514 562.699C756.253 564.125 756.449 564.437 757.599 564.437C758.37 564.437 759.173 563.968 759.383 563.394C759.619 562.751 760.047 562.575 760.505 562.935C762.613 564.597 767.446 567.144 767.446 566.594C767.446 565.488 745.271 552.127 743.491 552.159C742.843 552.171 741.726 552.658 741.008 553.24ZM468.176 555.918C467.465 556.481 467.271 556.921 467.733 556.921C468.187 556.921 468.998 556.459 469.537 555.896C470.788 554.586 469.839 554.601 468.176 555.918ZM516.211 559.342C514.287 560.598 512.524 561.833 512.294 562.088C511.622 562.833 518.274 559.185 519.709 558.022C522.007 556.16 519.827 556.983 516.211 559.342ZM408.772 559.334C408.075 559.886 407.798 560.337 408.157 560.337C408.516 560.337 409.38 559.886 410.077 559.334C410.774 558.782 411.051 558.331 410.692 558.331C410.333 558.331 409.468 558.782 408.772 559.334ZM459.887 561.054L458.346 562.455L460.468 561.379C462.555 560.319 463.15 559.654 462.009 559.654C461.69 559.654 460.735 560.284 459.887 561.054ZM489.68 561.704C490.757 562.451 491.932 563.062 492.291 563.062C492.651 563.062 492.063 562.451 490.986 561.704C489.909 560.957 488.734 560.346 488.375 560.346C488.016 560.346 488.603 560.957 489.68 561.704ZM426.662 562.074C426.059 562.835 426.025 563.336 426.538 563.873C427.375 564.749 429.296 564.147 429.296 563.008C429.296 562.471 428.954 562.517 428.223 563.152C427.269 563.981 427.202 563.914 427.614 562.553C428.157 560.762 427.833 560.598 426.662 562.074ZM467.594 561.476C466.785 562.323 467.152 564.288 468.197 564.708C469.671 565.3 470.423 564.618 470.423 562.689C470.423 561.527 470.06 561.021 469.226 561.021C468.567 561.021 467.833 561.226 467.594 561.476ZM549.784 562.167C549.546 562.816 549.799 563.769 550.366 564.363C551.269 565.308 551.477 565.301 552.438 564.295C553.026 563.68 553.329 562.691 553.111 562.099C552.588 560.671 550.315 560.717 549.784 562.167ZM715.29 562.256C714.51 563.781 714.929 564.437 716.682 564.437C717.586 564.437 717.868 564.033 717.716 562.953C717.439 560.986 716.131 560.61 715.29 562.256ZM509.591 562.47C509.591 562.868 508.93 563.768 508.122 564.471C506.677 565.729 506.692 565.731 509.08 564.581C511.727 563.306 512.071 562.743 510.57 562.14C510.031 561.924 509.591 562.072 509.591 562.47ZM494.25 564.113C496.232 565.796 498.092 566.784 497.551 565.867C497.306 565.451 496.168 564.637 495.025 564.057C493.094 563.08 493.038 563.084 494.25 564.113ZM503.548 567.008C502.026 567.995 501.536 568.038 500.383 567.284C498.4 565.988 498.145 566.775 500.111 568.123C501.698 569.211 501.875 569.186 504.2 567.532C506.907 565.607 506.37 565.176 503.548 567.008ZM501.519 584.767C501.568 592.188 501.479 598.885 501.321 599.647C501.134 600.556 498.853 602.312 494.705 604.743C491.224 606.783 485.598 610.233 482.204 612.41C478.81 614.587 475.638 616.369 475.154 616.369C473.373 616.369 470.51 614.291 470.306 612.851C470.147 611.726 469.624 611.353 468.138 611.305C465.076 611.207 450.347 602.156 449.14 599.631C448.374 598.029 448.175 595.097 448.235 586.303C448.341 570.607 448.036 571.062 447.607 587.238C447.275 599.794 447.15 600.888 445.943 601.798C442.469 604.416 429.625 611.586 428.4 611.591C427.556 611.594 426.712 612.272 426.247 613.32L425.483 615.044L428.043 613.486C441.435 605.331 447.224 602.019 448.09 602.019C449.021 602.019 467.047 612.561 467.812 613.553C467.991 613.786 469.534 614.665 471.239 615.506L474.34 617.034V633.101C474.34 642.74 474.586 649.168 474.957 649.168C475.328 649.168 475.552 642.848 475.52 633.283L475.465 617.399L478.474 615.549C480.13 614.531 483.035 612.793 484.929 611.688C486.824 610.582 491.396 607.81 495.089 605.526L501.802 601.373L514.999 609.45L528.195 617.528V633.348V649.168H530.682C532.174 649.168 533.007 648.894 532.765 648.484C532.543 648.108 531.645 647.801 530.768 647.801H529.175L529.158 632.256L529.141 616.71L521.814 612.417C517.784 610.056 513.018 607.217 511.223 606.109C509.427 605.002 506.711 603.42 505.184 602.595L502.41 601.093V586.182C502.41 577.98 502.189 571.271 501.92 571.272C501.651 571.272 501.47 577.346 501.519 584.767ZM735.502 573.093C734.76 573.637 734.154 574.661 734.154 575.37C734.154 578.326 738.888 579.424 739.725 576.663C740.701 573.442 738.065 571.214 735.502 573.093ZM529.927 573.926C528.636 574.781 529.284 577.078 530.816 577.078C531.751 577.078 532.112 576.619 532.112 575.427C532.112 573.604 531.277 573.031 529.927 573.926ZM570.394 573.914C569.83 574.298 569.672 575.056 569.961 576.008C570.644 578.26 573.891 577.733 573.891 575.37C573.891 573.54 572.065 572.779 570.394 573.914ZM529.647 598.011C527.013 599.554 529.272 604.111 531.932 602.62C532.57 602.263 533.091 601.224 533.091 600.311C533.091 598.301 531.251 597.071 529.647 598.011ZM488.179 598.739C486.171 600.84 488.832 603.89 491.017 601.992C492.331 600.851 492.201 599.466 490.703 598.627C489.129 597.745 489.129 597.745 488.179 598.739ZM569.926 599.589C569.404 601.764 570.011 602.702 571.939 602.702C573.855 602.702 575.008 600.832 574.139 599.133C573.184 597.265 570.411 597.565 569.926 599.589ZM410.692 611.226C412.128 612.152 413.597 612.91 413.956 612.91C414.315 612.91 413.433 612.152 411.997 611.226C410.561 610.3 409.092 609.542 408.733 609.542C408.374 609.542 409.255 610.3 410.692 611.226ZM756.103 611.257C754.663 612.765 755.81 615.002 758.024 615.002C759.884 615.002 760.794 613.3 759.81 611.663C758.882 610.121 757.349 609.952 756.103 611.257ZM509.157 611.973C508.613 613.457 509.994 614.853 510.983 613.818C511.819 612.943 511.301 610.902 510.243 610.902C509.862 610.902 509.373 611.384 509.157 611.973ZM715.514 612.328C715.273 612.737 715.376 613.387 715.745 613.772C716.568 614.634 717.834 613.906 717.834 612.57C717.834 611.419 716.153 611.245 715.514 612.328ZM420.944 632.939C421.078 649.459 421.302 647.543 421.621 627.13C421.713 621.21 421.569 616.367 421.3 616.368C421.03 616.368 420.871 623.826 420.944 632.939ZM550.318 634.841C547.773 635.849 547.687 638.953 550.165 640.341C552.662 641.74 555.134 639.594 554.278 636.771C553.754 635.043 551.986 634.181 550.318 634.841ZM467.648 635.556C465.379 636.94 466.947 640.688 469.575 640.163C470.983 639.882 471.489 637.187 470.393 635.805C469.477 634.65 469.178 634.623 467.648 635.556ZM756.676 635.758C755.144 636.931 755.62 639.883 757.385 640.147C759.115 640.406 760.496 638.704 759.968 636.964C759.437 635.212 758.053 634.704 756.676 635.758ZM508.748 635.928C507.978 636.734 508.229 639.467 509.101 639.775C510.926 640.417 512.274 639.445 512.074 637.633C511.879 635.875 509.811 634.815 508.748 635.928ZM715.361 636.313C714.169 637.56 714.406 638.772 715.941 639.281C717.76 639.886 719.02 638.589 718.099 637.061C717.185 635.545 716.32 635.309 715.361 636.313ZM426.811 637.603C426.939 638.006 427.323 638.337 427.664 638.337C428.006 638.337 428.39 638.006 428.518 637.603C428.647 637.199 428.263 636.868 427.664 636.868C427.066 636.868 426.682 637.199 426.811 637.603ZM446.052 647.573C445.016 648.657 445.81 649.168 448.534 649.168C450.858 649.168 451.374 648.959 451.075 648.143C450.696 647.109 446.906 646.679 446.052 647.573ZM570.894 648.537C570.225 648.981 570.464 649.15 571.77 649.157C573.719 649.168 574.07 648.833 572.69 648.279C572.208 648.086 571.4 648.202 570.894 648.537ZM735.786 648.484C735.547 648.888 736.266 649.163 737.542 649.157C739.177 649.149 739.464 648.986 738.723 648.484C737.454 647.626 736.292 647.626 735.786 648.484Z" fill="#00A651" fill-opacity="0.1"/>
<path fill-rule="evenodd" clip-rule="evenodd" d="M54.7903 352.696C54.7037 349.56 54.8664 347.451 55.1512 348.01C55.4353 348.57 55.8801 348.771 56.1391 348.457C56.3974 348.142 56.1307 347.305 55.5464 346.596C54.0161 344.738 53.7228 346.331 54.3889 352.89L54.9474 358.399L54.7903 352.696ZM12.149 348.579C12.7585 347.382 11.4125 345.748 10.4267 346.488C9.31949 347.319 9.49823 349.5 10.6739 349.5C11.2275 349.5 11.8907 349.086 12.149 348.579ZM54.7798 334.669C54.7784 329.075 54.6653 326.897 54.5292 329.829C54.3923 332.76 54.393 337.337 54.5312 339.999C54.6695 342.661 54.7812 340.262 54.7798 334.669ZM58.2202 324.418C59.3546 323.71 60.7537 322.528 61.3297 321.792C61.9838 320.954 61.1984 321.203 59.2353 322.457C55.309 324.964 55.4493 324.846 55.8347 325.314C56.012 325.53 57.0857 325.126 58.2202 324.418ZM53.6502 325.354C53.6502 324.774 49.3755 322.202 49.0565 322.589C48.905 322.773 49.8761 323.558 51.2158 324.333C52.5548 325.108 53.6502 325.567 53.6502 325.354ZM4.91428 321.23C7.7843 319.133 9.11078 318.594 9.97089 319.179C11.3364 320.107 13.4078 318.457 12.8988 316.847C12.5833 315.85 14.0075 314.678 21.1871 310.02C23.1069 308.775 24.7769 307.445 24.8976 307.064C25.0184 306.684 25.4897 306.546 25.9448 306.758C26.5717 307.051 26.7239 302.161 26.5745 286.549L26.377 265.955L37.0465 258.582C42.915 254.528 49.1919 250.164 50.9952 248.884L54.2744 246.557L58.6747 249.399C63.4422 252.478 70.9918 257.599 77.9103 262.447C80.3098 264.128 82.2737 265.211 82.2737 264.853C82.2737 264.494 80.9381 263.343 79.3066 262.294C77.675 261.246 74.6116 259.136 72.4998 257.608C70.3879 256.079 65.5317 252.657 61.7081 250.003L54.7554 245.179L51.2361 247.472C48.0833 249.526 40.8779 254.576 34.1025 259.48C32.7586 260.452 30.3424 262.092 28.7332 263.123L25.8073 264.999L19.7999 260.848C16.2673 258.407 13.4343 255.824 12.9247 254.578C12.2572 252.949 11.6052 252.519 10.1042 252.715C9.03049 252.855 7.78641 252.61 7.3389 252.17C6.33429 251.18 1.36847 247.798 0.920258 247.798C0.739441 247.798 0.592163 248.18 0.592163 248.646C0.592163 249.112 0.895172 249.493 1.26587 249.493C2.66562 249.493 8.62558 254.696 9.13312 256.36C9.5199 257.631 10.1782 258.034 11.5849 257.862C12.6426 257.732 14.293 258.229 15.2529 258.965C16.2129 259.702 18.8832 261.615 21.1871 263.217L25.3759 266.129L25.563 285.711L25.7501 305.292L23.8176 306.91C20.0491 310.065 12.5638 314.752 11.2931 314.752C10.5838 314.752 9.6232 315.492 9.15826 316.395C8.6933 317.3 7.28238 318.643 6.02365 319.38C3.69955 320.742 -0.0808105 324.021 0.633362 324.056C0.847687 324.066 2.77451 322.795 4.91428 321.23ZM100.787 318.766C101.83 317.233 101.635 315.485 100.309 314.47C98.7663 313.288 96.7906 315.228 97.0754 317.644C97.3121 319.658 99.6935 320.378 100.787 318.766ZM43.8764 318.727C43.8764 318.494 41.2849 316.502 38.1168 314.3C34.9486 312.099 31.4685 309.55 30.3822 308.636C29.2966 307.723 28.2508 307.165 28.0595 307.398C27.7495 307.774 29.6142 309.179 40.9093 317.076C42.5408 318.218 43.8764 318.96 43.8764 318.727ZM71.278 315.115C73.8877 313.396 73.7292 312.68 71.1035 314.328C69.9516 315.051 69.0091 315.824 69.0091 316.045C69.0091 316.59 69.0838 316.56 71.278 315.115ZM85.4153 306.773C84.2633 305.651 83.1638 304.923 82.9718 305.155C82.5117 305.709 85.6924 308.82 86.7144 308.815C87.1515 308.813 86.5672 307.894 85.4153 306.773ZM78.9575 304.514C80.5625 303.379 80.5109 300.971 78.8409 299.137C77.7735 297.964 77.2087 297.858 76.0484 298.611C74.1928 299.817 74.1306 303.373 75.9444 304.552C77.5515 305.596 77.4244 305.598 78.9575 304.514ZM34.5996 303.903C35.6838 303.066 34.9919 299.767 33.5964 299.117C33.0092 298.843 32.0982 299.054 31.5704 299.586C29.0983 302.077 31.8622 306.015 34.5996 303.903ZM83.3704 284.665C83.3704 273.944 83.2699 269.675 83.1484 275.178C83.0262 280.682 83.0269 289.454 83.1491 294.671C83.2713 299.889 83.3711 295.386 83.3704 284.665ZM34.6066 273.012C36.2165 270.487 36.1781 268.94 34.4823 268.001C32.0765 266.671 30.6118 267.64 30.6118 270.564C30.6118 273.732 33.1544 275.291 34.6066 273.012ZM166.349 271.892C167.666 270.293 167.199 268.986 165.31 268.986C164.434 268.986 163.955 269.568 163.955 270.631C163.955 272.924 165.032 273.491 166.349 271.892ZM122.3 272.658C123.322 271.417 122.734 268.986 121.41 268.986C119.765 268.986 119.125 270.067 119.696 271.876C120.133 273.26 121.473 273.663 122.3 272.658ZM77.9774 271.157C77.844 270.38 77.4216 269.764 77.0377 269.789C76.0016 269.856 76.1915 271.752 77.2792 272.191C77.8663 272.429 78.1274 272.041 77.9774 271.157ZM144.407 255.426C144.407 254.15 144.043 253.692 143.186 253.892C142.514 254.05 141.964 254.739 141.964 255.426C141.964 256.112 142.514 256.802 143.186 256.96C144.043 257.16 144.407 256.702 144.407 255.426ZM56.1314 256.2C56.8504 254.786 55.2329 253.166 54.2695 254.335C53.4638 255.313 53.9679 257.121 55.0465 257.121C55.3851 257.121 55.873 256.706 56.1314 256.2ZM100.291 255.362C100.154 254.861 99.7423 254.451 99.3779 254.451C99.0135 254.451 98.6023 254.861 98.4647 255.362C98.3272 255.863 98.7377 256.273 99.3779 256.273C100.018 256.273 100.429 255.863 100.291 255.362ZM100.251 226.897C100.73 226.661 101.123 225.579 101.123 224.492C101.123 222.363 100.105 221.572 98.1562 222.185C96.7515 222.628 96.5421 224.947 97.7722 226.441C98.6651 227.525 98.8857 227.565 100.251 226.897ZM12.4527 226.198C13.6947 224.381 12.7934 222.373 10.7367 222.373C8.80499 222.373 8.29535 224.605 9.80753 226.441C10.9029 227.771 11.4097 227.724 12.4527 226.198ZM56.8756 225.38C57.4124 223.682 56.6159 222.373 55.0465 222.373C53.4401 222.373 52.8062 223.468 53.3737 225.263C53.9064 226.949 56.3534 227.031 56.8756 225.38ZM78.7551 210.972C80.0913 209.018 79.3394 206.724 77.2659 206.433C74.8434 206.091 73.7383 209.347 75.6895 211.079C77.2946 212.503 77.7183 212.489 78.7551 210.972ZM35.4709 210.972C37.2399 208.384 34.5424 204.62 31.8259 205.885C30.4261 206.538 29.7615 209.687 30.7263 211.099C31.7344 212.574 34.4251 212.502 35.4709 210.972ZM256.109 164.34V145.292L258.268 143.937C259.455 143.191 260.283 142.407 260.107 142.193C259.932 141.98 258.805 142.485 257.604 143.316L255.42 144.825L255.415 164.106C255.413 174.71 255.568 183.387 255.76 183.387C255.952 183.387 256.109 174.816 256.109 164.34ZM35.1002 180.36C36.398 178.784 36.4091 178.671 35.4744 176.551C34.6094 174.59 31.8343 174.395 30.5944 176.208C29.9172 177.199 29.8935 177.998 30.4945 179.599C31.3923 181.99 33.4735 182.334 35.1002 180.36ZM78.5303 179.573C79.1467 177.623 78.2301 175.601 76.8736 175.919C75.3586 176.272 74.8288 179.119 76.0966 180.094C77.4593 181.143 78.0758 181.011 78.5303 179.573ZM56.2173 163.385C56.7115 161.822 55.0228 160.194 54.0872 161.329C53.3249 162.255 54.0244 164.742 55.0465 164.742C55.4549 164.742 55.9813 164.131 56.2173 163.385ZM12.2258 163.414C12.4569 162.683 12.3033 161.669 11.8844 161.161C10.8763 159.937 8.90274 161.848 9.43472 163.532C9.94574 165.148 11.7015 165.073 12.2258 163.414ZM28.8665 143.882C29.6345 143.16 31.9907 141.454 34.1025 140.092C36.2144 138.73 41.8148 134.852 46.5474 131.474L55.1533 125.332L55.0772 105.292L55.0011 85.2505L57.9912 83.1961C60.6281 81.3841 83.0562 65.5296 83.4891 65.1719C83.7572 64.9499 83.8291 39.5871 83.5833 31.6815C83.4605 27.7194 83.1938 33.4308 82.9913 44.373L82.6227 64.2677L68.6922 73.9827L54.7617 83.6978L50.5407 80.9137C46.6898 78.3729 31.7722 67.862 27.9939 65.027C26.4384 63.86 26.4231 63.6549 26.4231 44.3747C26.4231 31.9578 26.1703 24.9014 25.7249 24.9014C25.2802 24.9014 25.0212 32.0468 25.0121 44.6061L24.9968 64.3109L13.2367 72.5742C6.76852 77.1194 1.0571 80.8375 0.54538 80.8375C-0.123444 80.8375 -0.172302 81.0959 0.372253 81.757C0.916779 82.4181 2.67331 81.6129 6.62054 78.895C9.64066 76.8152 13.2109 74.3557 14.5548 73.4293C15.8987 72.5038 18.9781 70.3291 21.3986 68.5976L25.799 65.4482L39.55 74.9845C47.1129 80.2298 53.5204 84.9216 53.7878 85.4115C54.0558 85.9014 54.2953 94.7681 54.3204 105.116L54.3665 123.929L52.4376 125.545C51.3764 126.433 48.3095 128.627 45.6217 130.421C42.9339 132.215 37.6644 135.903 33.9112 138.618C30.1588 141.332 26.5934 143.554 25.9881 143.554C25.3835 143.554 21.976 141.473 18.4162 138.93C12.547 134.736 11.9759 134.105 12.2838 132.15C12.5623 130.381 12.3536 129.993 11.1235 129.993C10.299 129.993 9.44028 130.575 9.21548 131.287C8.96277 132.085 8.50479 132.303 8.01541 131.856C5.76114 129.795 0.592163 126.636 0.592163 127.318C0.592163 128.69 24.307 145.262 26.2115 145.222C26.9041 145.207 28.0986 144.604 28.8665 143.882ZM320.645 140.56C321.406 139.862 321.613 139.316 321.119 139.316C320.633 139.316 319.766 139.888 319.19 140.587C317.851 142.212 318.867 142.193 320.645 140.56ZM269.275 136.312C271.332 134.756 273.217 133.223 273.463 132.907C274.183 131.983 267.069 136.508 265.533 137.95C263.076 140.259 265.408 139.239 269.275 136.312ZM384.175 136.323C384.92 135.639 385.216 135.079 384.832 135.079C384.448 135.079 383.524 135.639 382.778 136.323C382.034 137.007 381.738 137.567 382.121 137.567C382.505 137.567 383.43 137.007 384.175 136.323ZM329.51 134.189L331.158 132.452L328.889 133.787C326.656 135.101 326.02 135.926 327.241 135.926C327.582 135.926 328.603 135.145 329.51 134.189ZM297.647 133.383C296.496 132.457 295.239 131.699 294.855 131.699C294.471 131.699 295.099 132.457 296.251 133.383C297.403 134.31 298.66 135.068 299.044 135.068C299.428 135.068 298.799 134.31 297.647 133.383ZM365.042 132.924C365.687 131.98 365.724 131.36 365.174 130.693C364.279 129.606 362.225 130.354 362.225 131.766C362.225 132.432 362.591 132.375 363.372 131.587C364.393 130.559 364.465 130.642 364.024 132.331C363.443 134.552 363.79 134.755 365.042 132.924ZM321.267 133.666C322.132 132.616 321.741 130.178 320.623 129.658C319.047 128.923 318.242 129.769 318.242 132.162C318.242 133.603 318.631 134.231 319.522 134.231C320.226 134.231 321.012 133.977 321.267 133.666ZM233.37 132.809C233.625 132.005 233.354 130.822 232.747 130.085C231.781 128.914 231.559 128.922 230.531 130.17C229.903 130.932 229.579 132.159 229.811 132.894C230.371 134.665 232.802 134.607 233.37 132.809ZM56.3708 132.699C57.2051 130.807 56.7569 129.993 54.8817 129.993C53.9148 129.993 53.6139 130.495 53.7759 131.834C54.0719 134.274 55.4709 134.74 56.3708 132.699ZM276.354 132.433C276.354 131.94 277.061 130.823 277.925 129.951C279.471 128.392 279.454 128.389 276.901 129.815C274.069 131.397 273.702 132.094 275.307 132.843C275.883 133.111 276.354 132.927 276.354 132.433ZM292.761 130.396C290.64 128.309 288.651 127.083 289.23 128.22C289.493 128.736 290.709 129.746 291.932 130.465C293.997 131.677 294.056 131.672 292.761 130.396ZM282.817 126.804C284.444 125.58 284.968 125.527 286.202 126.462C288.322 128.07 288.595 127.094 286.492 125.422C284.795 124.072 284.606 124.103 282.12 126.155C279.224 128.542 279.798 129.077 282.817 126.804ZM284.987 104.778C284.934 95.5732 285.029 87.2676 285.198 86.3217C285.399 85.1945 287.838 83.0164 292.274 80.0018C295.997 77.4711 302.014 73.192 305.643 70.4918C309.273 67.7916 312.665 65.5822 313.182 65.5822C315.087 65.5822 318.15 68.1595 318.367 69.9452C318.538 71.3402 319.096 71.8029 320.686 71.8622C323.96 71.9843 339.712 83.2105 341.003 86.3421C341.822 88.3286 342.035 91.9662 341.971 102.873C341.857 122.34 342.184 121.776 342.642 101.713C342.997 86.1395 343.131 84.7835 344.422 83.6546C348.138 80.4069 361.874 71.5139 363.183 71.508C364.086 71.5038 364.989 70.6638 365.486 69.3629L366.303 67.2246L363.565 69.1578C349.244 79.2729 343.052 83.38 342.126 83.38C341.13 83.38 321.852 70.3045 321.035 69.0739C320.843 68.7849 319.193 67.695 317.37 66.6526L314.054 64.7567V44.829C314.054 32.8731 313.79 24.9014 313.393 24.9014C312.996 24.9014 312.756 32.7392 312.791 44.6027L312.85 64.3041L309.632 66.5992C307.861 67.862 304.754 70.0172 302.728 71.3876C300.702 72.7589 295.813 76.1982 291.863 79.0305L284.684 84.1809L270.57 74.1633L256.458 64.1447V44.5231V24.9005H253.798C252.203 24.9014 251.312 25.2404 251.571 25.7489C251.808 26.215 252.769 26.5964 253.706 26.5964H255.41L255.429 45.8774L255.447 65.1584L263.283 70.4833C267.592 73.4124 272.689 76.933 274.609 78.3068C276.529 79.6806 279.435 81.6426 281.067 82.6664L284.034 84.5284V103.023C284.034 113.196 284.27 121.517 284.557 121.517C284.845 121.516 285.039 113.983 284.987 104.778ZM34.7553 119.258C35.5483 118.583 36.1969 117.313 36.1969 116.433C36.1969 112.767 31.1341 111.405 30.239 114.83C29.1946 118.825 32.0137 121.589 34.7553 119.258ZM254.606 118.225C255.986 117.164 255.294 114.314 253.655 114.314C252.655 114.314 252.269 114.884 252.269 116.363C252.269 118.623 253.162 119.334 254.606 118.225ZM211.328 118.239C211.932 117.763 212.1 116.822 211.792 115.642C211.062 112.849 207.588 113.502 207.588 116.433C207.588 118.704 209.542 119.647 211.328 118.239ZM254.905 88.3515C257.722 86.4378 255.306 80.7858 252.462 82.6342C251.779 83.0774 251.222 84.3665 251.222 85.4988C251.222 87.9922 253.19 89.5169 254.905 88.3515ZM299.253 87.4481C301.4 84.8419 298.554 81.0595 296.218 83.4139C294.813 84.8293 294.951 86.5463 296.554 87.5879C298.237 88.6812 298.237 88.6812 299.253 87.4481ZM211.83 86.3946C212.387 83.697 211.738 82.5325 209.677 82.5325C207.627 82.5325 206.394 84.8521 207.323 86.9599C208.344 89.2762 211.311 88.9041 211.83 86.3946ZM382.121 71.9606C380.586 70.8122 379.015 69.8723 378.631 69.8723C378.247 69.8723 379.189 70.8122 380.725 71.9606C382.261 73.1089 383.832 74.0488 384.216 74.0488C384.6 74.0488 383.657 73.1089 382.121 71.9606ZM12.7236 71.9224C14.2637 70.0519 13.0363 67.2772 10.6683 67.2772C8.67932 67.2772 7.70612 69.3883 8.75891 71.4182C9.75165 73.3318 11.3909 73.5403 12.7236 71.9224ZM276.818 71.0342C277.4 69.1934 275.923 67.4619 274.865 68.7459C273.972 69.8307 274.525 72.3623 275.656 72.3623C276.065 72.3623 276.587 71.7648 276.818 71.0342ZM56.1314 70.5935C56.389 70.0867 56.278 69.2807 55.8842 68.8027C55.0032 67.7332 53.6502 68.6366 53.6502 70.2935C53.6502 71.7207 55.4472 71.9377 56.1314 70.5935ZM371.157 45.0299C371.014 24.5395 370.775 26.9167 370.433 52.2346C370.334 59.5775 370.489 65.5839 370.777 65.583C371.065 65.583 371.236 56.3332 371.157 45.0299ZM232.799 42.6704C235.521 41.4203 235.613 37.5709 232.962 35.8487C230.292 34.1139 227.649 36.7751 228.564 40.277C229.124 42.4204 231.015 43.4891 232.799 42.6704ZM321.209 41.7839C323.637 40.0677 321.96 35.419 319.149 36.0699C317.643 36.4183 317.102 39.7609 318.274 41.4745C319.254 42.9077 319.573 42.9408 321.209 41.7839ZM12.1099 41.5339C13.7491 40.0787 13.2395 36.4174 11.3518 36.0903C9.50241 35.7691 8.02518 37.8794 8.58926 40.038C9.15756 42.211 10.6383 42.8407 12.1099 41.5339ZM277.256 41.3228C278.079 40.3228 277.811 36.9327 276.878 36.5513C274.927 35.7547 273.484 36.9607 273.699 39.2083C273.907 41.3881 276.118 42.7026 277.256 41.3228ZM56.2947 40.8448C57.5688 39.2981 57.3154 37.7955 55.6741 37.1632C53.7291 36.414 52.3817 38.0218 53.3668 39.9176C54.3434 41.7974 55.2685 42.0907 56.2947 40.8448ZM364.883 39.2456C364.746 38.7447 364.335 38.3345 363.97 38.3345C363.605 38.3345 363.194 38.7447 363.057 39.2456C362.919 39.7465 363.33 40.1566 363.97 40.1566C364.61 40.1566 365.021 39.7465 364.883 39.2456ZM344.306 26.8786C345.414 25.5345 344.564 24.9014 341.651 24.9014C339.165 24.9014 338.614 25.1599 338.934 26.1726C339.339 27.4549 343.392 27.988 344.306 26.8786ZM210.794 25.6836C211.509 25.1327 211.254 24.9234 209.857 24.9141C207.773 24.9005 207.397 25.3158 208.874 26.0031C209.388 26.243 210.252 26.0989 210.794 25.6836ZM34.4516 25.7489C34.7064 25.248 33.9378 24.9065 32.5729 24.9141C30.8248 24.9243 30.5176 25.1268 31.31 25.7489C32.6671 26.8134 33.9098 26.8134 34.4516 25.7489Z" fill="#00A651" fill-opacity="0.1"/>
<rect width="768" height="986" fill="#D5F3EE" fill-opacity="0.15"/>
</svg>
