<svg width="360" height="691" viewBox="0 0 360 691" fill="none" xmlns="http://www.w3.org/2000/svg">
<path fill-rule="evenodd" clip-rule="evenodd" d="M308.768 437.412C308.848 439.838 308.696 441.47 308.43 441.037C308.164 440.604 307.749 440.449 307.506 440.691C307.265 440.935 307.514 441.582 308.061 442.131C309.491 443.568 309.766 442.336 309.143 437.262L308.621 433L308.768 437.412ZM348.64 440.597C348.07 441.523 349.329 442.787 350.25 442.215C351.286 441.572 351.119 439.884 350.019 439.884C349.502 439.884 348.881 440.205 348.64 440.597ZM308.777 451.358C308.779 455.686 308.884 457.371 309.012 455.103C309.14 452.835 309.139 449.294 309.01 447.235C308.88 445.175 308.776 447.031 308.777 451.358ZM305.56 459.288C304.5 459.836 303.191 460.751 302.653 461.32C302.041 461.968 302.776 461.775 304.611 460.806C308.283 458.866 308.151 458.957 307.791 458.595C307.625 458.428 306.621 458.74 305.56 459.288ZM309.834 458.564C309.834 459.013 313.831 461.003 314.129 460.703C314.271 460.561 313.363 459.954 312.11 459.354C310.858 458.755 309.834 458.399 309.834 458.564ZM355.405 461.754C352.721 463.377 351.481 463.794 350.677 463.342C349.4 462.624 347.463 463.9 347.939 465.145C348.234 465.916 346.902 466.823 340.189 470.427C338.394 471.39 336.832 472.419 336.719 472.714C336.606 473.008 336.166 473.115 335.74 472.95C335.154 472.723 335.011 476.506 335.151 488.584L335.336 504.517L325.359 510.22C319.872 513.357 314.002 516.733 312.316 517.723L309.25 519.523L305.135 517.324C300.677 514.942 293.618 510.981 287.149 507.23C284.905 505.93 283.069 505.092 283.069 505.369C283.069 505.646 284.318 506.537 285.843 507.348C287.369 508.159 290.233 509.791 292.208 510.974C294.183 512.156 298.724 514.804 302.299 516.857L308.8 520.589L312.091 518.815C315.039 517.226 321.777 513.319 328.112 509.526C329.369 508.773 331.628 507.505 333.133 506.707L335.868 505.256L341.486 508.467C344.789 510.355 347.438 512.354 347.915 513.317C348.539 514.578 349.148 514.911 350.552 514.759C351.556 514.65 352.719 514.841 353.138 515.181C354.077 515.947 358.72 518.563 359.139 518.563C359.309 518.563 359.446 518.268 359.446 517.907C359.446 517.546 359.163 517.251 358.816 517.251C357.507 517.251 351.935 513.226 351.46 511.939C351.098 510.956 350.483 510.644 349.167 510.777C348.178 510.878 346.635 510.494 345.738 509.924C344.84 509.354 342.343 507.874 340.189 506.634L336.272 504.382L336.097 489.233L335.922 474.085L337.729 472.833C341.253 470.392 348.252 466.766 349.44 466.766C350.103 466.766 351.002 466.194 351.436 465.495C351.871 464.795 353.19 463.756 354.367 463.186C356.541 462.132 360.076 459.595 359.408 459.568C359.207 459.56 357.406 460.544 355.405 461.754ZM265.757 463.661C264.783 464.847 264.965 466.199 266.204 466.984C267.647 467.898 269.495 466.398 269.228 464.529C269.007 462.971 266.78 462.414 265.757 463.661ZM318.973 463.691C318.973 463.871 321.396 465.412 324.358 467.116C327.321 468.818 330.575 470.791 331.591 471.497C332.606 472.204 333.584 472.636 333.763 472.455C334.052 472.164 332.309 471.078 321.747 464.968C320.222 464.085 318.973 463.511 318.973 463.691ZM293.35 466.485C290.91 467.815 291.058 468.369 293.514 467.094C294.591 466.535 295.472 465.937 295.472 465.766C295.472 465.344 295.402 465.368 293.35 466.485ZM280.131 472.939C281.208 473.807 282.236 474.37 282.416 474.191C282.846 473.762 279.872 471.355 278.916 471.359C278.508 471.361 279.054 472.072 280.131 472.939ZM286.17 474.686C284.669 475.564 284.717 477.428 286.279 478.847C287.277 479.754 287.805 479.836 288.89 479.253C290.625 478.32 290.683 475.569 288.987 474.657C287.484 473.849 287.603 473.848 286.17 474.686ZM327.647 475.159C326.633 475.806 327.28 478.359 328.585 478.862C329.134 479.073 329.986 478.91 330.48 478.499C332.791 476.572 330.207 473.525 327.647 475.159ZM282.043 490.042C282.043 498.336 282.137 501.638 282.251 497.381C282.365 493.123 282.364 486.337 282.25 482.301C282.136 478.264 282.043 481.748 282.043 490.042ZM327.641 499.057C326.135 501.01 326.171 502.207 327.757 502.933C330.006 503.963 331.376 503.213 331.376 500.951C331.376 498.5 328.998 497.294 327.641 499.057ZM204.453 499.923C203.222 501.16 203.658 502.171 205.424 502.171C206.243 502.171 206.691 501.722 206.691 500.899C206.691 499.125 205.685 498.687 204.453 499.923ZM245.642 499.33C244.686 500.291 245.236 502.171 246.474 502.171C248.012 502.171 248.611 501.335 248.076 499.936C247.668 498.865 246.415 498.553 245.642 499.33ZM287.086 500.492C287.211 501.093 287.606 501.569 287.965 501.55C288.934 501.499 288.756 500.032 287.739 499.692C287.19 499.508 286.946 499.808 287.086 500.492ZM224.97 512.662C224.97 513.649 225.31 514.003 226.112 513.849C226.74 513.727 227.254 513.193 227.254 512.662C227.254 512.131 226.74 511.597 226.112 511.475C225.31 511.32 224.97 511.674 224.97 512.662ZM307.514 512.063C306.841 513.157 308.354 514.41 309.255 513.506C310.008 512.749 309.537 511.35 308.528 511.35C308.211 511.35 307.755 511.671 307.514 512.063ZM266.221 512.711C266.35 513.098 266.734 513.416 267.075 513.416C267.416 513.416 267.801 513.098 267.929 512.711C268.058 512.323 267.674 512.006 267.075 512.006C266.477 512.006 266.093 512.323 266.221 512.711ZM266.259 534.732C265.811 534.915 265.443 535.752 265.443 536.593C265.443 538.24 266.395 538.852 268.218 538.377C269.531 538.035 269.727 536.24 268.577 535.085C267.742 534.247 267.535 534.215 266.259 534.732ZM348.356 535.273C347.195 536.678 348.037 538.232 349.96 538.232C351.767 538.232 352.243 536.505 350.829 535.085C349.805 534.056 349.331 534.092 348.356 535.273ZM306.818 535.906C306.316 537.219 307.06 538.232 308.528 538.232C310.03 538.232 310.623 537.385 310.092 535.996C309.594 534.692 307.306 534.629 306.818 535.906ZM286.359 547.052C285.109 548.564 285.813 550.338 287.751 550.564C290.017 550.828 291.05 548.309 289.225 546.969C287.725 545.867 287.328 545.878 286.359 547.052ZM326.832 547.052C325.178 549.054 327.701 551.966 330.241 550.987C331.55 550.482 332.171 548.046 331.269 546.954C330.326 545.813 327.81 545.869 326.832 547.052ZM120.522 583.127V597.863L118.503 598.912C117.392 599.489 116.618 600.095 116.783 600.26C116.946 600.426 118 600.035 119.124 599.392L121.166 598.224L121.171 583.308C121.173 575.105 121.028 568.392 120.848 568.392C120.669 568.392 120.522 575.023 120.522 583.127ZM327.179 570.734C325.966 571.953 325.955 572.04 326.829 573.681C327.638 575.198 330.233 575.349 331.392 573.946C332.025 573.179 332.048 572.562 331.486 571.323C330.646 569.473 328.7 569.207 327.179 570.734ZM286.569 571.343C285.993 572.851 286.85 574.416 288.118 574.17C289.535 573.896 290.03 571.694 288.845 570.939C287.57 570.128 286.994 570.23 286.569 571.343ZM307.433 583.866C306.971 585.075 308.55 586.335 309.425 585.456C310.138 584.74 309.484 582.817 308.528 582.817C308.146 582.817 307.654 583.289 307.433 583.866ZM348.568 583.844C348.352 584.409 348.496 585.193 348.887 585.587C349.83 586.534 351.675 585.055 351.178 583.752C350.7 582.503 349.058 582.56 348.568 583.844ZM333.008 598.954C332.29 599.513 330.087 600.832 328.112 601.886C326.137 602.939 320.9 605.94 316.475 608.553L308.428 613.304L308.499 628.808L308.57 644.312L305.774 645.902C303.309 647.303 282.337 659.569 281.932 659.845C281.682 660.017 281.614 679.638 281.844 685.754C281.959 688.819 282.208 684.401 282.398 675.936L282.742 660.545L295.768 653.029L308.794 645.513L312.741 647.667C316.342 649.633 330.291 657.764 333.824 659.957C335.278 660.86 335.293 661.019 335.293 675.934C335.293 685.54 335.529 690.999 335.946 690.999C336.361 690.999 336.604 685.472 336.612 675.755L336.626 660.511L347.623 654.119C353.671 650.603 359.012 647.726 359.49 647.726C360.115 647.726 360.161 647.526 359.652 647.015C359.143 646.503 357.5 647.126 353.809 649.229C350.985 650.838 347.647 652.741 346.39 653.457C345.134 654.173 342.254 655.856 339.991 657.195L335.876 659.632L323.018 652.254C315.946 648.196 309.955 644.567 309.705 644.188C309.454 643.809 309.23 636.949 309.207 628.944L309.164 614.39L310.967 613.14C311.96 612.453 314.827 610.755 317.341 609.368C319.854 607.98 324.781 605.127 328.291 603.026C331.8 600.926 335.133 599.208 335.699 599.208C336.265 599.208 339.451 600.818 342.78 602.785C348.268 606.029 348.802 606.518 348.514 608.03C348.253 609.399 348.449 609.698 349.599 609.698C350.37 609.698 351.173 609.249 351.383 608.698C351.619 608.08 352.047 607.912 352.505 608.257C354.613 609.852 359.446 612.296 359.446 611.768C359.446 610.707 337.271 597.886 335.491 597.918C334.843 597.929 333.726 598.396 333.008 598.954ZM60.1764 601.524C59.4649 602.064 59.271 602.486 59.7332 602.486C60.1869 602.486 60.9983 602.044 61.5369 601.503C62.7883 600.246 61.8391 600.26 60.1764 601.524ZM108.211 604.81C106.287 606.014 104.524 607.2 104.294 607.444C103.622 608.159 110.274 604.658 111.709 603.543C114.007 601.756 111.827 602.546 108.211 604.81ZM0.771714 604.802C0.0745247 605.331 -0.201609 605.764 0.15743 605.764C0.51647 605.764 1.38012 605.331 2.07731 604.802C2.77385 604.272 3.05064 603.839 2.6916 603.839C2.33256 603.839 1.46825 604.272 0.771714 604.802ZM51.8872 606.452L50.3459 607.796L52.4675 606.764C54.5552 605.747 55.1499 605.109 54.0088 605.109C53.6896 605.109 52.7345 605.713 51.8872 606.452ZM81.6803 607.076C82.7574 607.792 83.9324 608.379 84.2915 608.379C84.6505 608.379 84.063 607.792 82.9859 607.076C81.9088 606.359 80.7337 605.773 80.3747 605.773C80.0156 605.773 80.6032 606.359 81.6803 607.076ZM18.6623 607.431C18.0591 608.162 18.0245 608.641 18.5383 609.157C19.3752 609.998 21.2964 609.42 21.2964 608.327C21.2964 607.812 20.9543 607.856 20.2232 608.466C19.2688 609.261 19.2015 609.197 19.6141 607.89C20.1572 606.172 19.8328 606.015 18.6623 607.431ZM59.5941 606.857C58.7853 607.67 59.1515 609.555 60.1967 609.958C61.6707 610.526 62.4227 609.872 62.4227 608.021C62.4227 606.906 62.0598 606.42 61.2261 606.42C60.5675 606.42 59.8331 606.617 59.5941 606.857ZM141.784 607.52C141.546 608.143 141.799 609.057 142.366 609.628C143.269 610.534 143.477 610.527 144.438 609.562C145.026 608.972 145.329 608.023 145.111 607.455C144.588 606.084 142.315 606.129 141.784 607.52ZM307.29 607.606C306.51 609.069 306.929 609.698 308.682 609.698C309.586 609.698 309.868 609.31 309.716 608.274C309.439 606.387 308.131 606.026 307.29 607.606ZM101.591 607.811C101.591 608.192 100.93 609.057 100.122 609.731C98.6766 610.938 98.6922 610.94 101.08 609.836C103.727 608.613 104.071 608.073 102.57 607.494C102.031 607.287 101.591 607.429 101.591 607.811ZM86.2499 609.387C88.2324 611.002 90.0923 611.95 89.5511 611.071C89.3056 610.671 88.1685 609.89 87.0247 609.334C85.0938 608.396 85.0383 608.4 86.2499 609.387ZM95.5477 612.166C94.026 613.112 93.5364 613.154 92.3829 612.43C90.4004 611.187 90.1451 611.941 92.1114 613.235C93.6983 614.279 93.8746 614.255 96.1998 612.668C98.907 610.821 98.3704 610.407 95.5477 612.166ZM93.5188 629.205C93.5678 636.326 93.479 642.752 93.321 643.484C93.1337 644.356 90.8528 646.041 86.7049 648.373C83.2235 650.331 77.5977 653.641 74.2038 655.73C70.8099 657.819 67.6379 659.528 67.1542 659.528C65.3734 659.528 62.5095 657.534 62.3059 656.153C62.1466 655.074 61.6243 654.716 60.1379 654.67C57.0763 654.575 42.3472 645.89 41.1402 643.468C40.3744 641.931 40.1753 639.117 40.2347 630.679C40.3411 615.619 40.0356 616.056 39.6074 631.576C39.2751 643.624 39.1504 644.674 37.9427 645.547C34.4685 648.059 21.6247 654.939 20.4001 654.944C19.556 654.947 18.7119 655.597 18.2471 656.603L17.4834 658.257L20.043 656.762C33.4345 648.937 39.2242 645.759 40.0898 645.759C41.0213 645.759 59.0471 655.875 59.8115 656.827C59.991 657.05 61.5336 657.893 63.2387 658.7L66.3395 660.167V675.583C66.3395 684.832 66.5863 690.999 66.9571 690.999C67.3285 690.999 67.5524 684.936 67.5198 675.758L67.4649 660.517L70.4743 658.741C72.1298 657.764 75.0348 656.097 76.9292 655.037C78.8243 653.976 83.3958 651.315 87.0887 649.124L93.8021 645.14L106.999 652.89L120.195 660.64V675.82V691H122.682C124.174 690.999 125.007 690.737 124.765 690.344C124.543 689.983 123.645 689.688 122.768 689.688H121.175L121.158 674.772L121.141 659.856L113.814 655.736C109.784 653.47 105.018 650.747 103.223 649.684C101.427 648.621 98.7105 647.103 97.1843 646.311L94.4099 644.871V630.563C94.4099 622.693 94.1892 616.256 93.9203 616.256C93.6513 616.257 93.4705 622.084 93.5188 629.205ZM327.502 618.004C326.76 618.525 326.154 619.508 326.154 620.189C326.154 623.025 330.888 624.079 331.725 621.429C332.701 618.339 330.065 616.201 327.502 618.004ZM121.927 618.803C120.636 619.624 121.284 621.828 122.816 621.828C123.751 621.828 124.112 621.387 124.112 620.243C124.112 618.495 123.277 617.945 121.927 618.803ZM162.394 618.792C161.83 619.16 161.672 619.888 161.961 620.801C162.644 622.962 165.891 622.456 165.891 620.189C165.891 618.432 164.065 617.703 162.394 618.792ZM121.647 641.913C119.013 643.394 121.272 647.766 123.932 646.336C124.57 645.993 125.091 644.996 125.091 644.12C125.091 642.191 123.251 641.012 121.647 641.913ZM80.1788 642.612C78.1715 644.628 80.8323 647.554 83.0172 645.733C84.3307 644.638 84.2014 643.31 82.7026 642.504C81.1287 641.658 81.1287 641.658 80.1788 642.612ZM161.926 643.427C161.404 645.514 162.011 646.415 163.939 646.415C165.855 646.415 167.008 644.62 166.139 642.99C165.184 641.198 162.411 641.486 161.926 643.427ZM2.6916 654.594C4.12775 655.482 5.59655 656.209 5.95559 656.209C6.31463 656.209 5.43335 655.482 3.99719 654.594C2.56104 653.705 1.09224 652.978 0.733199 652.978C0.374159 652.978 1.25544 653.705 2.6916 654.594ZM348.103 654.623C346.663 656.07 347.81 658.217 350.024 658.217C351.884 658.217 352.794 656.583 351.81 655.013C350.882 653.533 349.349 653.371 348.103 654.623ZM101.157 655.31C100.613 656.734 101.994 658.074 102.983 657.08C103.819 656.241 103.301 654.283 102.243 654.283C101.862 654.283 101.373 654.745 101.157 655.31ZM307.514 655.651C307.273 656.043 307.376 656.667 307.745 657.037C308.568 657.864 309.834 657.165 309.834 655.883C309.834 654.779 308.153 654.611 307.514 655.651ZM12.9445 675.428C13.0783 691.279 13.3015 689.44 13.6208 669.854C13.7135 664.173 13.5692 659.527 13.2996 659.527C13.03 659.527 12.8707 666.683 12.9445 675.428ZM142.318 677.253C139.773 678.22 139.687 681.198 142.165 682.53C144.662 683.872 147.134 681.814 146.278 679.104C145.754 677.446 143.986 676.62 142.318 677.253ZM59.6483 677.939C57.3785 679.266 58.9466 682.863 61.5754 682.359C62.9828 682.09 63.4887 679.504 62.3927 678.178C61.4768 677.069 61.1785 677.044 59.6483 677.939ZM348.676 678.132C347.144 679.258 347.62 682.09 349.385 682.343C351.115 682.592 352.496 680.959 351.968 679.289C351.437 677.608 350.053 677.121 348.676 678.132ZM100.748 678.295C99.9782 679.069 100.229 681.692 101.101 681.987C102.926 682.603 104.274 681.67 104.074 679.931C103.879 678.245 101.811 677.228 100.748 678.295ZM307.361 678.665C306.169 679.862 306.406 681.024 307.941 681.513C309.76 682.093 311.02 680.849 310.099 679.382C309.185 677.928 308.32 677.701 307.361 678.665ZM18.8105 679.902C18.9391 680.29 19.323 680.607 19.6644 680.607C20.0058 680.607 20.3896 680.29 20.5182 679.902C20.6468 679.515 20.263 679.198 19.6644 679.198C19.0658 679.198 18.6819 679.515 18.8105 679.902ZM38.0518 689.47C37.0158 690.51 37.8102 690.999 40.5337 690.999C42.8583 690.999 43.374 690.799 43.0751 690.016C42.6958 689.024 38.9063 688.611 38.0518 689.47ZM162.894 690.394C162.225 690.82 162.464 690.982 163.77 690.99C165.719 691 166.07 690.679 164.69 690.147C164.208 689.961 163.4 690.073 162.894 690.394ZM327.786 690.344C327.547 690.731 328.266 690.995 329.542 690.99C331.177 690.982 331.464 690.825 330.723 690.344C329.454 689.52 328.292 689.52 327.786 690.344Z" fill="#00A651" fill-opacity="0.1"/>
<path fill-rule="evenodd" clip-rule="evenodd" d="M48.3862 277.178C48.3098 274.525 48.4534 272.742 48.705 273.215C48.9559 273.688 49.3486 273.858 49.5774 273.593C49.8055 273.327 49.5699 272.619 49.0539 272.019C47.7025 270.448 47.4435 271.796 48.0317 277.342L48.5249 282L48.3862 277.178ZM10.729 273.696C11.2673 272.684 10.0786 271.303 9.20804 271.928C8.23019 272.631 8.38803 274.475 9.42627 274.475C9.91519 274.475 10.5009 274.125 10.729 273.696ZM48.377 261.934C48.3757 257.204 48.2758 255.362 48.1556 257.841C48.0348 260.32 48.0354 264.19 48.1575 266.441C48.2795 268.692 48.3782 266.664 48.377 261.934ZM51.4152 253.266C52.4171 252.668 53.6526 251.668 54.1613 251.045C54.739 250.337 54.0454 250.548 52.3117 251.608C48.8443 253.728 48.9682 253.628 49.3085 254.024C49.4651 254.206 50.4134 253.865 51.4152 253.266ZM47.3794 254.058C47.3794 253.567 43.6044 251.392 43.3226 251.72C43.1888 251.875 44.0464 252.539 45.2296 253.195C46.4121 253.85 47.3794 254.238 47.3794 254.058ZM4.3399 250.571C6.87445 248.797 8.0459 248.341 8.80545 248.836C10.0114 249.621 11.8406 248.226 11.3912 246.864C11.1125 246.022 12.3702 245.031 18.7107 241.092C20.4061 240.038 21.8809 238.914 21.9875 238.592C22.0942 238.27 22.5103 238.154 22.9123 238.333C23.466 238.581 23.6004 234.446 23.4684 221.245L23.294 203.831L32.7164 197.597C37.899 194.168 43.4422 190.478 45.0347 189.396L47.9306 187.429L51.8166 189.832C56.0269 192.435 62.6941 196.765 68.8039 200.864C70.9229 202.286 72.6573 203.202 72.6573 202.899C72.6573 202.596 71.4778 201.623 70.037 200.735C68.5962 199.849 65.8908 198.065 64.0258 196.773C62.1608 195.48 57.8722 192.587 54.4954 190.343L48.3554 186.263L45.2474 188.202C42.4632 189.939 36.0999 194.209 30.1165 198.356C28.9297 199.178 26.7959 200.564 25.3748 201.436L22.7909 203.022L17.4856 199.513C14.366 197.449 11.864 195.265 11.414 194.211C10.8246 192.834 10.2487 192.47 8.92322 192.635C7.97498 192.754 6.87631 192.546 6.48111 192.174C5.59393 191.337 1.20853 188.478 0.812714 188.478C0.653015 188.478 0.522949 188.8 0.522949 189.195C0.522949 189.589 0.790558 189.911 1.11792 189.911C2.35406 189.911 7.6174 194.311 8.06561 195.718C8.40717 196.793 8.98856 197.133 10.2309 196.987C11.1649 196.878 12.6224 197.298 13.4701 197.921C14.3179 198.543 16.6761 200.161 18.7107 201.516L22.4099 203.978L22.5751 220.536L22.7403 237.094L21.0338 238.462C17.7057 241.13 11.0952 245.093 9.97318 245.093C9.34677 245.093 8.49841 245.718 8.08783 246.482C7.67722 247.247 6.43121 248.383 5.31958 249.006C3.26715 250.158 -0.0713806 252.931 0.559326 252.96C0.748627 252.969 2.45023 251.894 4.3399 250.571ZM89.0071 248.487C89.9276 247.19 89.7556 245.713 88.5848 244.854C87.2222 243.855 85.4774 245.496 85.729 247.538C85.938 249.242 88.041 249.85 89.0071 248.487ZM38.748 248.454C38.748 248.257 36.4594 246.573 33.6616 244.711C30.8637 242.85 27.7903 240.694 26.831 239.922C25.8723 239.149 24.9487 238.677 24.7798 238.875C24.5061 239.193 26.1528 240.38 36.1277 247.058C37.5685 248.023 38.748 248.651 38.748 248.454ZM62.9469 245.4C65.2515 243.946 65.1115 243.341 62.7927 244.735C61.7755 245.346 60.9431 245.999 60.9431 246.186C60.9431 246.647 61.0091 246.621 62.9469 245.4ZM75.4316 238.346C74.4144 237.398 73.4433 236.782 73.2738 236.978C72.8675 237.446 75.6764 240.077 76.579 240.073C76.965 240.071 76.4489 239.294 75.4316 238.346ZM69.7287 236.436C71.1461 235.476 71.1005 233.44 69.6258 231.889C68.6831 230.897 68.1843 230.807 67.1596 231.444C65.5209 232.464 65.466 235.471 67.0677 236.468C68.487 237.351 68.3748 237.352 69.7287 236.436ZM30.5555 235.919C31.5129 235.212 30.902 232.422 29.6695 231.872C29.151 231.641 28.3464 231.819 27.8803 232.269C25.6972 234.375 28.138 237.705 30.5555 235.919ZM73.6258 219.652C73.6258 210.586 73.537 206.977 73.4297 211.63C73.3219 216.284 73.3225 223.701 73.4304 228.113C73.5383 232.525 73.6264 228.718 73.6258 219.652ZM30.5616 209.798C31.9834 207.663 31.9495 206.355 30.4519 205.561C28.3273 204.436 27.0338 205.256 27.0338 207.728C27.0338 210.407 29.2792 211.725 30.5616 209.798ZM146.906 208.851C148.068 207.499 147.656 206.394 145.988 206.394C145.214 206.394 144.792 206.886 144.792 207.785C144.792 209.724 145.742 210.203 146.906 208.851ZM108.005 209.499C108.908 208.449 108.388 206.394 107.219 206.394C105.767 206.394 105.201 207.308 105.706 208.838C106.092 210.008 107.275 210.349 108.005 209.499ZM68.8631 208.23C68.7454 207.573 68.3723 207.052 68.0333 207.073C67.1183 207.129 67.286 208.733 68.2466 209.104C68.7651 209.305 68.9957 208.978 68.8631 208.23ZM127.529 194.928C127.529 193.849 127.207 193.462 126.45 193.631C125.857 193.764 125.371 194.347 125.371 194.928C125.371 195.508 125.857 196.092 126.45 196.225C127.207 196.394 127.529 196.007 127.529 194.928ZM49.5706 195.582C50.2056 194.387 48.7771 193.017 47.9263 194.005C47.2148 194.832 47.6599 196.361 48.6125 196.361C48.9115 196.361 49.3424 196.011 49.5706 195.582ZM88.5687 194.874C88.4473 194.451 88.0841 194.104 87.7623 194.104C87.4405 194.104 87.0773 194.451 86.9559 194.874C86.8344 195.298 87.1969 195.644 87.7623 195.644C88.3277 195.644 88.6902 195.298 88.5687 194.874ZM88.533 170.804C88.9565 170.605 89.3036 169.69 89.3036 168.77C89.3036 166.97 88.4047 166.301 86.6834 166.82C85.4429 167.194 85.2579 169.156 86.3443 170.419C87.1328 171.335 87.3276 171.37 88.533 170.804ZM10.9972 170.213C12.0941 168.677 11.2981 166.979 9.48178 166.979C7.77585 166.979 7.32578 168.866 8.66119 170.419C9.62854 171.543 10.0761 171.504 10.9972 170.213ZM50.2278 169.521C50.7019 168.086 49.9984 166.979 48.6125 166.979C47.1938 166.979 46.634 167.905 47.1353 169.422C47.6057 170.849 49.7666 170.917 50.2278 169.521ZM69.5499 157.338C70.7299 155.686 70.0659 153.747 68.2349 153.5C66.0955 153.211 65.1195 155.965 66.8427 157.429C68.2601 158.633 68.6344 158.621 69.5499 157.338ZM31.3249 157.338C32.8872 155.15 30.5049 151.967 28.106 153.037C26.8698 153.589 26.2829 156.252 27.1349 157.446C28.0252 158.693 30.4014 158.632 31.3249 157.338ZM226.174 117.907V101.801L228.081 100.655C229.129 100.024 229.861 99.3612 229.705 99.1806C229.551 99 228.555 99.4272 227.494 100.129L225.565 101.406L225.561 117.709C225.559 126.676 225.696 134.013 225.866 134.013C226.035 134.013 226.174 126.766 226.174 117.907ZM30.9976 131.454C32.1437 130.121 32.1535 130.026 31.328 128.233C30.5641 126.574 28.1134 126.41 27.0184 127.943C26.4204 128.781 26.3994 129.456 26.9302 130.81C27.7231 132.832 29.561 133.123 30.9976 131.454ZM69.3514 130.788C69.8958 129.139 69.0863 127.429 67.8884 127.698C66.5505 127.997 66.0826 130.404 67.2022 131.229C68.4056 132.115 68.95 132.004 69.3514 130.788ZM49.6464 117.1C50.0829 115.778 48.5915 114.401 47.7654 115.362C47.0921 116.144 47.7099 118.247 48.6125 118.247C48.9731 118.247 49.438 117.731 49.6464 117.1ZM10.7968 117.124C11.0009 116.506 10.8653 115.649 10.4954 115.219C9.60507 114.184 7.86215 115.8 8.33197 117.224C8.78326 118.59 10.3338 118.527 10.7968 117.124ZM25.4925 100.608C26.1707 99.9976 28.2515 98.5557 30.1165 97.4041C31.9815 96.2524 36.9273 92.9731 41.1068 90.1165L48.7068 84.923L48.6396 67.9772L48.5724 51.0308L51.213 49.2936C53.5417 47.7614 73.3484 34.3552 73.7306 34.0528C73.9674 33.865 74.0309 12.4187 73.8139 5.73389C73.7054 2.38358 73.4698 7.21304 73.291 16.4656L72.9655 33.2881L60.6632 41.503L48.3609 49.7179L44.6334 47.3637C41.2326 45.2152 28.0585 36.3274 24.7219 33.9302C23.3482 32.9434 23.3347 32.77 23.3347 16.467C23.3347 5.9675 23.1115 0.000732422 22.7181 0.000732422C22.3254 0.000732422 22.0966 6.04276 22.0887 16.6627L22.075 33.3247L11.6896 40.3119C5.97742 44.1553 0.933563 47.2992 0.481628 47.2992C-0.109009 47.2992 -0.152161 47.5178 0.328735 48.0768C0.809631 48.6357 2.36084 47.9549 5.84671 45.6567C8.51382 43.898 11.6668 41.8183 12.8536 41.035C14.0404 40.2525 16.7599 38.4136 18.8975 36.9494L22.7835 34.2864L34.9273 42.3501C41.6062 46.7854 47.2647 50.7527 47.5009 51.1669C47.7376 51.5812 47.9491 59.0787 47.9713 67.8289L48.012 83.737L46.3085 85.1029C45.3714 85.8539 42.6629 87.7093 40.2893 89.2257C37.9156 90.7429 33.2621 93.8617 29.9476 96.1571C26.6337 98.4525 23.4851 100.331 22.9506 100.331C22.4167 100.331 19.4073 98.5715 16.2636 96.4208C11.0804 92.8749 10.5761 92.341 10.848 90.6877C11.094 89.192 10.9097 88.8645 9.82336 88.8645C9.09525 88.8645 8.33688 89.3562 8.13837 89.9581C7.91516 90.6332 7.51074 90.8174 7.07855 90.4397C5.08777 88.6968 0.522949 86.0252 0.522949 86.6021C0.522949 87.7623 21.4659 101.776 23.1479 101.741C23.7595 101.729 24.8143 101.219 25.4925 100.608ZM283.167 97.7997C283.839 97.2091 284.022 96.7476 283.585 96.7476C283.157 96.7476 282.39 97.2314 281.882 97.8226C280.7 99.1964 281.596 99.1806 283.167 97.7997ZM237.801 94.2078C239.618 92.8914 241.283 91.5957 241.5 91.3284C242.135 90.5472 235.853 94.3734 234.497 95.5924C232.327 97.5452 234.386 96.6824 237.801 94.2078ZM339.271 94.2164C339.93 93.6381 340.19 93.1644 339.851 93.1644C339.512 93.1644 338.697 93.6381 338.038 94.2164C337.38 94.7955 337.119 95.2685 337.458 95.2685C337.797 95.2685 338.613 94.7955 339.271 94.2164ZM290.995 92.4126L292.451 90.9435L290.447 92.0723C288.476 93.183 287.914 93.881 288.992 93.881C289.293 93.881 290.195 93.2203 290.995 92.4126ZM262.858 91.7311C261.84 90.9478 260.73 90.3071 260.391 90.3071C260.052 90.3071 260.607 90.9478 261.624 91.7311C262.642 92.5144 263.751 93.1551 264.091 93.1551C264.43 93.1551 263.875 92.5144 262.858 91.7311ZM322.374 91.3427C322.944 90.5444 322.977 90.0198 322.492 89.4558C321.701 88.537 319.887 89.1691 319.887 90.3631C319.887 90.9263 320.21 90.8783 320.9 90.2118C321.802 89.3425 321.865 89.4128 321.476 90.841C320.963 92.7194 321.269 92.8907 322.374 91.3427ZM283.717 91.9698C284.481 91.0818 284.135 89.0208 283.148 88.5807C281.755 87.9594 281.045 88.6746 281.045 90.6984C281.045 91.9167 281.388 92.4478 282.175 92.4478C282.797 92.4478 283.491 92.2328 283.717 91.9698ZM206.093 91.2452C206.318 90.5651 206.079 89.5654 205.543 88.9419C204.69 87.9515 204.494 87.9587 203.586 89.0136C203.031 89.6586 202.745 90.6956 202.95 91.3169C203.445 92.8147 205.592 92.7659 206.093 91.2452ZM49.782 91.1521C50.5188 89.5525 50.123 88.8645 48.467 88.8645C47.6131 88.8645 47.3474 89.2888 47.4904 90.4211C47.7518 92.4843 48.9873 92.8784 49.782 91.1521ZM244.053 90.9277C244.053 90.5107 244.677 89.5661 245.44 88.8287C246.805 87.5101 246.791 87.5079 244.536 88.7141C242.035 90.0513 241.711 90.6411 243.128 91.2739C243.637 91.5004 244.053 91.3448 244.053 90.9277ZM258.542 89.205C256.669 87.4399 254.913 86.4036 255.424 87.3646C255.656 87.8011 256.73 88.6553 257.81 89.263C259.634 90.2878 259.686 90.2835 258.542 89.205ZM249.761 86.1678C251.198 85.133 251.66 85.0878 252.749 85.8783C254.622 87.2378 254.863 86.4129 253.006 84.999C251.507 83.8573 251.341 83.8839 249.145 85.6189C246.588 87.6376 247.095 88.0898 249.761 86.1678ZM251.677 67.543C251.63 59.7595 251.714 52.7364 251.864 51.9366C252.04 50.9835 254.195 49.1417 258.112 46.5926C261.4 44.4527 266.713 40.8344 269.919 38.5511C273.124 36.2679 276.12 34.3996 276.577 34.3996C278.258 34.3996 280.963 36.5789 281.156 38.0889C281.306 39.2685 281.799 39.6598 283.203 39.71C286.095 39.8132 300.005 49.3058 301.145 51.9538C301.869 53.6336 302.057 56.7095 302.001 65.9319C301.9 82.3932 302.189 81.916 302.593 64.9516C302.907 51.7825 303.025 50.6359 304.165 49.6813C307.446 46.9352 319.577 39.4154 320.733 39.4104C321.53 39.4068 322.328 38.6966 322.767 37.5966L323.488 35.7885L321.071 37.4231C308.423 45.9763 302.955 49.4491 302.137 49.4491C301.258 49.4491 284.233 38.3928 283.511 37.3522C283.342 37.1078 281.885 36.1862 280.275 35.3047L277.346 33.7016V16.8512C277.346 6.74149 277.113 0.000732422 276.763 0.000732422C276.412 0.000732422 276.201 6.62827 276.231 16.6598L276.283 33.3189L273.441 35.2596C271.877 36.3274 269.134 38.1498 267.345 39.3086C265.555 40.4682 261.237 43.3763 257.75 45.7713L251.409 50.1264L238.945 41.6556L226.482 33.1842V16.5925V0H224.134C222.725 0.000732422 221.938 0.287384 222.166 0.717377C222.376 1.11154 223.224 1.43402 224.052 1.43402H225.557L225.573 17.7377L225.589 34.0413L232.509 38.544C236.315 41.0207 240.816 43.9976 242.512 45.1593C244.207 46.321 246.773 47.98 248.215 48.8457L250.835 50.4202V66.0588C250.835 74.6607 251.044 81.6974 251.298 81.6967C251.552 81.6959 251.722 75.3264 251.677 67.543ZM30.693 79.7868C31.3933 79.2164 31.9661 78.1421 31.9661 77.3982C31.9661 74.298 27.495 73.1464 26.7046 76.0424C25.7823 79.4206 28.2719 81.7576 30.693 79.7868ZM224.847 78.9132C226.066 78.016 225.454 75.6066 224.007 75.6066C223.124 75.6066 222.783 76.0882 222.783 77.3388C222.783 79.25 223.572 79.8513 224.847 78.9132ZM186.628 78.9254C187.161 78.5227 187.309 77.7272 187.037 76.7296C186.392 74.3676 183.325 74.9201 183.325 77.3982C183.325 79.3181 185.05 80.1158 186.628 78.9254ZM225.111 53.653C227.599 52.0348 225.465 47.2555 222.953 48.8185C222.351 49.1933 221.858 50.2833 221.858 51.2408C221.858 53.3491 223.596 54.6384 225.111 53.653ZM264.276 52.889C266.171 50.6853 263.658 47.487 261.595 49.4778C260.354 50.6746 260.476 52.1265 261.892 53.0073C263.378 53.9317 263.378 53.9317 264.276 52.889ZM187.07 51.9982C187.563 49.7172 186.989 48.7325 185.169 48.7325C183.359 48.7325 182.27 50.694 183.091 52.4762C183.993 54.4348 186.612 54.1202 187.07 51.9982ZM337.458 39.7931C336.102 38.822 334.714 38.0273 334.375 38.0273C334.036 38.0273 334.869 38.822 336.225 39.7931C337.581 40.7641 338.968 41.5589 339.308 41.5589C339.647 41.5589 338.814 40.7641 337.458 39.7931ZM11.2365 39.7608C12.5965 38.1792 11.5126 35.8329 9.42136 35.8329C7.66486 35.8329 6.80542 37.6181 7.73514 39.3344C8.61185 40.9526 10.0595 41.1289 11.2365 39.7608ZM244.463 39.0098C244.977 37.4532 243.672 35.9891 242.738 37.0749C241.949 37.9922 242.438 40.1328 243.437 40.1328C243.797 40.1328 244.259 39.6275 244.463 39.0098ZM49.5706 38.6371C49.7981 38.2086 49.7 37.5271 49.3523 37.1229C48.5743 36.2185 47.3794 36.9824 47.3794 38.3834C47.3794 39.5903 48.9664 39.7737 49.5706 38.6371ZM327.775 17.021C327.648 -0.305267 327.437 1.70493 327.136 23.1132C327.048 29.3222 327.185 34.4011 327.439 34.4003C327.694 34.4003 327.844 26.5789 327.775 17.021ZM205.588 15.0259C207.992 13.9688 208.074 10.7138 205.733 9.2576C203.374 7.79065 201.04 10.0409 201.849 13.0021C202.344 14.8145 204.013 15.7182 205.588 15.0259ZM283.665 14.2763C285.809 12.8251 284.328 8.89429 281.845 9.44467C280.516 9.7392 280.038 12.5656 281.074 14.0147C281.939 15.2265 282.22 15.2545 283.665 14.2763ZM10.6945 14.0648C12.1421 12.8344 11.692 9.73849 10.0249 9.46185C8.39175 9.19025 7.08719 10.9747 7.58533 12.8C8.08719 14.6375 9.39484 15.1699 10.6945 14.0648ZM244.849 13.8864C245.576 13.0408 245.339 10.1742 244.516 9.85172C242.792 9.17807 241.519 10.1979 241.708 12.0984C241.892 13.9416 243.845 15.0531 244.849 13.8864ZM49.7148 13.4822C50.84 12.1744 50.6162 10.9037 49.1667 10.3691C47.4491 9.7356 46.2592 11.0951 47.1291 12.6982C47.9916 14.2877 48.8085 14.5357 49.7148 13.4822ZM322.235 12.1299C322.113 11.7064 321.751 11.3595 321.428 11.3595C321.106 11.3595 320.743 11.7064 320.622 12.1299C320.5 12.5535 320.863 12.9003 321.428 12.9003C321.993 12.9003 322.356 12.5535 322.235 12.1299ZM304.062 1.67267C305.041 0.536072 304.29 0.000732422 301.718 0.000732422C299.523 0.000732422 299.036 0.219299 299.318 1.07568C299.676 2.15997 303.255 2.61075 304.062 1.67267ZM186.155 0.662201C186.787 0.196381 186.562 0.0193787 185.329 0.0115051C183.488 3.05176e-05 183.156 0.351166 184.46 0.932373C184.914 1.13516 185.678 1.01337 186.155 0.662201ZM30.4248 0.717377C30.6498 0.293823 29.971 0.0050354 28.7657 0.0115051C27.2219 0.0200806 26.9506 0.191345 27.6504 0.717377C28.8489 1.61749 29.9464 1.61749 30.4248 0.717377Z" fill="#00A651" fill-opacity="0.1"/>
<rect width="360" height="691" fill="#D5F3EE" fill-opacity="0.15"/>
</svg>
