<svg width="963" height="688" viewBox="0 0 963 688" fill="none" xmlns="http://www.w3.org/2000/svg">
<path fill-rule="evenodd" clip-rule="evenodd" d="M137.047 676.235C136.83 669.764 137.237 665.414 137.95 666.568C138.66 667.722 139.773 668.136 140.421 667.489C141.067 666.841 140.4 665.113 138.938 663.65C135.11 659.817 134.377 663.104 136.043 676.635L137.44 688L137.047 676.235ZM30.3884 667.741C31.9129 665.272 28.5461 661.902 26.0804 663.428C23.3109 665.141 23.7579 669.642 26.6985 669.642C28.0833 669.642 29.7423 668.787 30.3884 667.741ZM137.021 639.045C137.017 627.505 136.734 623.012 136.394 629.059C136.051 635.107 136.053 644.549 136.399 650.04C136.745 655.532 137.024 650.584 137.021 639.045ZM145.626 617.898C148.464 616.438 151.963 613.999 153.404 612.479C155.04 610.752 153.076 611.266 148.165 613.852C138.344 619.024 138.695 618.781 139.659 619.746C140.103 620.192 142.788 619.359 145.626 617.898ZM134.195 619.83C134.195 618.632 123.503 613.326 122.705 614.125C122.326 614.504 124.755 616.123 128.106 617.723C131.455 619.321 134.195 620.268 134.195 619.83ZM12.2921 611.322C19.4709 606.995 22.7888 605.883 24.9402 607.089C28.3558 609.003 33.5368 605.601 32.2638 602.279C31.4745 600.223 35.0369 597.805 52.9952 588.196C57.7973 585.626 61.9743 582.882 62.2764 582.097C62.5786 581.312 63.7573 581.027 64.8958 581.466C66.4639 582.071 66.8445 571.983 66.4708 539.775L65.9767 497.289L92.6645 482.08C107.343 473.715 123.044 464.713 127.554 462.073L135.756 457.273L146.763 463.136C158.688 469.488 177.572 480.051 194.877 490.052C200.879 493.521 205.791 495.756 205.791 495.016C205.791 494.276 202.45 491.902 198.369 489.738C194.289 487.575 186.626 483.223 181.344 480.071C176.061 476.917 163.914 469.856 154.35 464.382L136.96 454.429L128.157 459.16C120.271 463.398 102.248 473.815 85.3005 483.931C81.9391 485.938 75.8954 489.32 71.8703 491.448L64.5518 495.317L49.5254 486.755C40.6895 481.719 33.6031 476.39 32.3284 473.82C30.659 470.46 29.0281 469.571 25.2737 469.975C22.588 470.266 19.4761 469.759 18.3568 468.851C15.844 466.809 3.42291 459.833 2.30182 459.833C1.84955 459.833 1.48114 460.62 1.48114 461.581C1.48114 462.543 2.23907 463.33 3.16632 463.33C6.66754 463.33 21.5751 474.063 22.8447 477.495C23.8121 480.118 25.4587 480.948 28.9774 480.593C31.6229 480.326 35.7511 481.35 38.1522 482.87C40.5532 484.389 47.2326 488.337 52.9952 491.642L63.4726 497.649L63.9406 538.046L64.4086 578.441L59.575 581.779C50.1488 588.288 31.4257 597.957 28.2475 597.957C26.4733 597.957 24.0706 599.483 22.9075 601.347C21.7446 603.213 18.2154 605.984 15.067 607.505C9.25372 610.315 -0.202148 617.079 1.58423 617.151C2.1203 617.172 6.93988 614.549 12.2921 611.322ZM252.099 606.237C254.707 603.075 254.219 599.469 250.903 597.375C247.044 594.938 242.102 598.94 242.815 603.923C243.407 608.079 249.363 609.563 252.099 606.237ZM109.748 606.157C109.748 605.676 103.266 601.567 95.3414 597.025C87.417 592.485 78.712 587.225 75.9949 585.341C73.2795 583.456 70.6636 582.305 70.1851 582.786C69.4098 583.562 74.074 586.459 102.326 602.751C106.407 605.106 109.748 606.638 109.748 606.157ZM178.288 598.705C184.815 595.16 184.419 593.682 177.851 597.083C174.97 598.574 172.612 600.169 172.612 600.625C172.612 601.749 172.799 601.686 178.288 598.705ZM213.649 581.496C210.768 579.183 208.017 577.681 207.537 578.158C206.386 579.302 214.342 585.72 216.899 585.709C217.992 585.704 216.53 583.809 213.649 581.496ZM197.496 576.836C201.511 574.495 201.382 569.526 197.205 565.743C194.535 563.323 193.122 563.104 190.22 564.659C185.578 567.147 185.423 574.483 189.96 576.915C193.979 579.069 193.662 579.072 197.496 576.836ZM86.5438 575.576C89.2557 573.85 87.5253 567.043 84.0346 565.702C82.566 565.138 80.2871 565.573 78.9669 566.669C72.7835 571.808 79.6968 579.933 86.5438 575.576ZM208.534 535.889C208.534 513.771 208.283 504.964 207.979 516.317C207.673 527.671 207.675 545.767 207.981 556.53C208.286 567.295 208.536 558.006 208.534 535.889ZM86.5613 511.848C90.5881 506.639 90.4921 503.447 86.2505 501.511C80.233 498.766 76.5694 500.767 76.5694 506.799C76.5694 513.334 82.9291 516.549 86.5613 511.848ZM416.089 509.538C419.382 506.239 418.214 503.543 413.49 503.543C411.299 503.543 410.101 504.742 410.101 506.937C410.101 511.666 412.793 512.836 416.089 509.538ZM305.908 511.119C308.466 508.557 306.994 503.543 303.683 503.543C299.569 503.543 297.966 505.772 299.396 509.505C300.489 512.36 303.84 513.191 305.908 511.119ZM195.045 508.022C194.711 506.419 193.655 505.148 192.694 505.199C190.103 505.337 190.578 509.248 193.298 510.156C194.767 510.645 195.42 509.846 195.045 508.022ZM361.206 475.569C361.206 472.935 360.295 471.991 358.15 472.404C356.47 472.729 355.094 474.152 355.094 475.569C355.094 476.985 356.47 478.408 358.15 478.733C360.295 479.146 361.206 478.202 361.206 475.569ZM140.401 477.165C142.2 474.248 138.154 470.906 135.744 473.318C133.729 475.336 134.99 479.065 137.688 479.065C138.535 479.065 139.755 478.21 140.401 477.165ZM250.858 475.437C250.514 474.404 249.485 473.558 248.574 473.558C247.662 473.558 246.634 474.404 246.29 475.437C245.946 476.471 246.972 477.317 248.574 477.317C250.175 477.317 251.202 476.471 250.858 475.437ZM250.757 416.714C251.956 416.228 252.939 413.995 252.939 411.752C252.939 407.36 250.393 405.728 245.518 406.994C242.004 407.907 241.481 412.692 244.557 415.773C246.791 418.009 247.343 418.093 250.757 416.714ZM31.148 415.271C34.2546 411.524 32.0002 407.381 26.8558 407.381C22.0239 407.381 20.7491 411.986 24.5315 415.773C27.2714 418.516 28.5391 418.42 31.148 415.271ZM142.263 413.584C143.606 410.082 141.613 407.381 137.688 407.381C133.67 407.381 132.084 409.64 133.504 413.343C134.836 416.822 140.957 416.99 142.263 413.584ZM196.99 383.861C200.332 379.829 198.452 375.098 193.265 374.497C187.206 373.792 184.441 380.509 189.322 384.081C193.337 387.02 194.397 386.991 196.99 383.861ZM88.7232 383.861C93.1482 378.523 86.4007 370.757 79.6061 373.367C76.1049 374.713 74.4424 381.21 76.8558 384.123C79.3773 387.166 86.1074 387.017 88.7232 383.861ZM640.604 287.66V248.365L646.005 245.569C648.976 244.03 651.047 242.413 650.607 241.973C650.168 241.532 647.35 242.574 644.345 244.287L638.881 247.401L638.868 287.178C638.863 309.054 639.251 326.954 639.731 326.954C640.211 326.954 640.604 309.272 640.604 287.66ZM87.796 320.71C91.0422 317.458 91.0702 317.226 88.732 312.851C86.5684 308.805 79.627 308.403 76.5257 312.145C74.8318 314.189 74.7725 315.836 76.2759 319.139C78.5216 324.073 83.7272 324.782 87.796 320.71ZM196.428 319.086C197.97 315.063 195.677 310.891 192.284 311.547C188.495 312.276 187.169 318.149 190.34 320.161C193.749 322.324 195.291 322.053 196.428 319.086ZM140.616 285.69C141.852 282.466 137.628 279.107 135.288 281.45C133.381 283.359 135.131 288.489 137.688 288.489C138.709 288.489 140.026 287.23 140.616 285.69ZM30.5804 285.749C31.1584 284.242 30.7743 282.151 29.7266 281.102C27.205 278.577 22.2684 282.52 23.5991 285.994C24.8773 289.326 29.269 289.173 30.5804 285.749ZM72.2038 245.455C74.1246 243.966 80.0182 240.448 85.3005 237.638C90.5829 234.829 104.591 226.828 116.429 219.859L137.955 207.188L137.765 165.845L137.574 124.501L145.053 120.262C151.649 116.524 207.748 83.8169 208.831 83.079C209.502 82.621 209.682 30.2982 209.067 13.989C208.76 5.81519 208.093 17.5977 207.586 40.1714L206.664 81.2135L171.82 101.255L136.975 121.297L126.417 115.554C116.785 110.312 79.4716 88.6285 70.021 82.7801C66.1304 80.3726 66.092 79.9494 66.092 40.1749C66.092 14.559 65.4598 0.00177002 64.3457 0.00177002C63.2333 0.00177002 62.5855 14.7426 62.5628 40.6522L62.5244 81.3027L33.109 98.3497C16.9301 107.726 2.6441 115.397 1.36414 115.397C-0.308777 115.397 -0.430969 115.93 0.931091 117.294C2.29315 118.657 6.68671 116.996 16.5599 111.389C24.1142 107.099 33.0444 102.025 36.4059 100.114C39.7674 98.2045 47.47 93.7181 53.5242 90.1462L64.5308 83.649L98.9265 103.322C117.843 114.143 133.87 123.822 134.539 124.833C135.21 125.843 135.809 144.135 135.872 165.483L135.987 204.294L131.162 207.627C128.508 209.459 120.836 213.986 114.113 217.685C107.39 221.387 94.2099 228.996 84.8221 234.596C75.4361 240.196 66.5181 244.779 65.0041 244.779C63.4918 244.779 54.9684 240.486 46.0644 235.239C31.3837 226.588 29.9553 225.286 30.7254 221.252C31.4222 217.603 30.9001 216.804 27.8232 216.804C25.7609 216.804 23.613 218.004 23.0507 219.472C22.4185 221.119 21.273 221.569 20.0489 220.647C14.4103 216.395 1.48114 209.877 1.48114 211.285C1.48114 214.115 60.7991 248.304 65.5629 248.22C67.2952 248.19 70.2829 246.945 72.2038 245.455ZM802.028 238.603C803.931 237.163 804.45 236.037 803.214 236.037C802 236.037 799.83 237.217 798.389 238.659C795.041 242.011 797.58 241.973 802.028 238.603ZM673.536 229.84C678.683 226.629 683.397 223.467 684.014 222.815C685.812 220.909 668.018 230.244 664.178 233.218C658.032 237.983 663.864 235.878 673.536 229.84ZM960.936 229.861C962.801 228.45 963.539 227.295 962.579 227.295C961.618 227.295 959.308 228.45 957.443 229.861C955.58 231.274 954.84 232.428 955.8 232.428C956.76 232.428 959.072 231.274 960.936 229.861ZM824.202 225.461L828.325 221.876L822.649 224.63C817.065 227.34 815.474 229.043 818.527 229.043C819.38 229.043 821.935 227.431 824.202 225.461ZM744.505 223.798C741.624 221.887 738.481 220.324 737.52 220.324C736.56 220.324 738.131 221.887 741.013 223.798C743.894 225.709 747.037 227.272 747.998 227.272C748.958 227.272 747.387 225.709 744.505 223.798ZM913.078 222.85C914.692 220.903 914.784 219.623 913.41 218.247C911.171 216.005 906.032 217.547 906.032 220.46C906.032 221.834 906.947 221.717 908.903 220.091C911.456 217.97 911.636 218.142 910.532 221.626C909.079 226.209 909.947 226.627 913.078 222.85ZM803.586 224.38C805.749 222.214 804.77 217.185 801.974 216.112C798.031 214.596 796.019 216.341 796.019 221.278C796.019 224.251 796.99 225.546 799.22 225.546C800.982 225.546 802.947 225.022 803.586 224.38ZM583.729 222.612C584.365 220.953 583.687 218.514 582.17 216.993C579.755 214.577 579.199 214.594 576.627 217.168C575.056 218.741 574.245 221.271 574.827 222.787C576.227 226.441 582.308 226.323 583.729 222.612ZM141 222.385C143.087 218.483 141.966 216.804 137.276 216.804C134.857 216.804 134.104 217.839 134.51 220.602C135.25 225.635 138.749 226.597 141 222.385ZM691.245 221.838C691.245 220.82 693.012 218.516 695.174 216.717C699.04 213.5 698.998 213.495 692.612 216.437C685.53 219.7 684.611 221.139 688.626 222.682C690.066 223.235 691.245 222.855 691.245 221.838ZM732.282 217.635C726.978 213.328 722.003 210.8 723.451 213.145C724.107 214.21 727.149 216.294 730.209 217.776C735.374 220.277 735.523 220.266 732.282 217.635ZM707.41 210.225C711.48 207.7 712.79 207.59 715.876 209.519C721.179 212.835 721.862 210.823 716.602 207.373C712.357 204.588 711.885 204.653 705.665 208.886C698.424 213.811 699.859 214.914 707.41 210.225ZM712.837 164.786C712.706 145.796 712.944 128.662 713.366 126.711C713.867 124.385 719.969 119.892 731.064 113.673C740.377 108.452 755.426 99.6243 764.505 94.0538C773.584 88.4834 782.069 83.9253 783.363 83.9253C788.126 83.9253 795.787 89.2422 796.332 92.9261C796.758 95.804 798.155 96.7586 802.131 96.881C810.321 97.1328 849.721 120.292 852.95 126.753C854.998 130.851 855.531 138.355 855.372 160.855C855.087 201.016 855.905 199.852 857.05 158.463C857.939 126.335 858.273 123.537 861.503 121.208C870.797 114.508 905.154 96.1624 908.43 96.1501C910.688 96.1414 912.946 94.4088 914.189 91.7249L916.232 87.3137L909.385 91.3018C873.563 112.169 858.075 120.642 855.76 120.642C853.268 120.642 805.049 93.6674 803.004 91.1287C802.524 90.5325 798.398 88.2841 793.836 86.1335L785.542 82.2224V41.1121C785.542 16.4473 784.882 0.00177002 783.89 0.00177002C782.896 0.00177002 782.297 16.171 782.385 40.6452L782.531 81.2887L774.481 86.0234C770.053 88.6285 762.282 93.0747 757.214 95.9019C752.145 98.7308 739.916 105.826 730.038 111.669L712.079 122.294L676.777 101.628L641.477 80.96V40.4809V0H634.826C630.836 0.00170898 628.606 0.701111 629.254 1.75018C629.847 2.71179 632.25 3.49854 634.595 3.49854H638.858L638.903 43.2748L638.949 83.0511L658.548 94.0363C669.328 100.079 682.077 107.342 686.879 110.176C691.682 113.01 698.949 117.058 703.032 119.17L710.454 123.011V161.165C710.454 182.151 711.044 199.318 711.763 199.317C712.483 199.315 712.966 183.775 712.837 164.786ZM86.9333 194.657C88.917 193.265 90.5393 190.645 90.5393 188.83C90.5393 181.266 77.8755 178.456 75.6369 185.522C73.0245 193.764 80.0758 199.465 86.9333 194.657ZM636.846 192.526C640.299 190.337 638.566 184.459 634.468 184.459C631.965 184.459 631 185.634 631 188.685C631 193.348 633.235 194.815 636.846 192.526ZM528.595 192.556C530.106 191.573 530.527 189.632 529.755 187.198C527.928 181.436 519.241 182.784 519.241 188.83C519.241 193.514 524.127 195.46 528.595 192.556ZM637.594 130.898C644.64 126.95 638.598 115.29 631.482 119.103C629.776 120.018 628.38 122.677 628.38 125.013C628.38 130.157 633.303 133.302 637.594 130.898ZM748.522 129.034C753.891 123.658 746.774 115.855 740.929 120.712C737.416 123.632 737.761 127.174 741.771 129.323C745.981 131.578 745.981 131.578 748.522 129.034ZM529.849 126.861C531.244 121.296 529.62 118.893 524.464 118.893C519.337 118.893 516.253 123.679 518.577 128.027C521.132 132.806 528.552 132.038 529.849 126.861ZM955.8 97.0838C951.958 94.7147 948.029 92.7758 947.069 92.7758C946.108 92.7758 948.466 94.7147 952.308 97.0838C956.149 99.4529 960.078 101.392 961.039 101.392C961.999 101.392 959.642 99.4529 955.8 97.0838ZM31.8256 97.0051C35.6777 93.1464 32.6078 87.4221 26.6846 87.4221C21.7095 87.4221 19.2753 91.7773 21.9086 95.9648C24.3918 99.9127 28.492 100.343 31.8256 97.0051ZM692.404 95.1729C693.861 91.3753 690.166 87.8033 687.52 90.4521C685.285 92.6901 686.67 97.9125 689.499 97.9125C690.52 97.9125 691.826 96.6799 692.404 95.1729ZM140.401 94.2636C141.046 93.2181 140.768 91.5553 139.783 90.5692C137.579 88.3627 134.195 90.2266 134.195 93.6447C134.195 96.589 138.69 97.0366 140.401 94.2636ZM928.374 41.5264C928.016 -0.744812 927.418 4.15948 926.564 56.3896C926.317 71.5378 926.702 83.9288 927.424 83.9271C928.145 83.9271 928.571 64.8449 928.374 41.5264ZM582.299 36.6589C589.108 34.08 589.338 26.1387 582.708 22.5859C576.028 19.0069 569.417 24.4969 571.706 31.7214C573.109 36.1431 577.837 38.3478 582.299 36.6589ZM803.441 34.83C809.512 31.2895 805.318 21.6995 798.286 23.0423C794.521 23.7609 793.168 30.6566 796.1 34.1918C798.55 37.1484 799.348 37.2166 803.441 34.83ZM30.2906 34.3143C34.3907 31.3123 33.116 23.7591 28.3942 23.0842C23.7684 22.4216 20.0734 26.7751 21.4844 31.2283C22.9058 35.7112 26.6095 37.0103 30.2906 34.3143ZM693.499 33.8789C695.558 31.8158 694.888 24.8221 692.555 24.0353C687.674 22.3918 684.066 24.8799 684.602 29.5167C685.124 34.0135 690.655 36.7253 693.499 33.8789ZM140.81 32.8928C143.997 29.702 143.363 26.602 139.258 25.2977C134.393 23.7521 131.022 27.0688 133.486 30.98C135.929 34.858 138.243 35.463 140.81 32.8928ZM912.682 29.5935C912.338 28.5602 911.311 27.714 910.398 27.714C909.485 27.714 908.458 28.5602 908.114 29.5935C907.77 30.6268 908.797 31.4731 910.398 31.4731C911.999 31.4731 913.026 30.6268 912.682 29.5935ZM861.212 4.08081C863.983 1.3078 861.858 0.00177002 854.572 0.00177002C848.354 0.00177002 846.974 0.535034 847.774 2.62439C848.789 5.26971 858.926 6.36945 861.212 4.08081ZM527.258 1.61554C529.047 0.479065 528.41 0.0472412 524.916 0.0280151C519.702 0 518.762 0.856689 522.455 2.27466C523.742 2.76947 525.904 2.47223 527.258 1.61554ZM86.1737 1.75018C86.811 0.716858 84.8885 0.0122681 81.4746 0.0280151C77.102 0.0490112 76.3336 0.466797 78.3156 1.75018C81.7103 3.94617 84.8186 3.94617 86.1737 1.75018Z" fill="#00A651" fill-opacity="0.1"/>
</svg>
