<svg width="900" height="644" viewBox="0 0 900 644" fill="none" xmlns="http://www.w3.org/2000/svg">
<path fill-rule="evenodd" clip-rule="evenodd" d="M771.919 11.0126C772.121 17.0696 771.741 21.1415 771.075 20.0613C770.411 18.9812 769.371 18.5933 768.766 19.1988C768.162 19.806 768.785 21.423 770.151 22.7928C773.729 26.3802 774.414 23.3034 772.857 10.6378L771.552 0L771.919 11.0126ZM871.6 18.9632C870.175 21.274 873.321 24.4294 875.626 23.0006C878.214 21.3968 877.796 17.1842 875.048 17.1842C873.754 17.1842 872.203 17.9845 871.6 18.9632ZM771.943 45.8245C771.947 56.626 772.211 60.8321 772.529 55.1711C772.849 49.5101 772.847 40.6725 772.524 35.532C772.201 30.3915 771.94 35.023 771.943 45.8245ZM763.901 65.6191C761.249 66.9856 757.978 69.2687 756.632 70.6909C755.103 72.3078 756.939 71.8267 761.528 69.4062C770.706 64.5651 770.378 64.7926 769.477 63.8892C769.063 63.4719 766.553 64.2509 763.901 65.6191ZM774.584 63.8107C774.584 64.9317 784.577 69.8988 785.322 69.1509C785.677 68.7957 783.406 67.2802 780.275 65.7828C777.145 64.2869 774.584 63.3999 774.584 63.8107ZM888.512 71.7743C881.803 75.8249 878.702 76.8657 876.691 75.7365C873.499 73.9444 868.657 77.1292 869.847 80.2388C870.585 82.1634 867.255 84.4268 850.472 93.4215C845.984 95.8273 842.08 98.3951 841.798 99.1299C841.515 99.8647 840.414 100.132 839.35 99.7207C837.884 99.1545 837.529 108.598 837.878 138.745L838.34 178.514L813.398 192.751C799.679 200.581 785.006 209.007 780.79 211.479L773.125 215.971L762.838 210.484C751.694 204.538 734.045 194.65 717.872 185.288C712.263 182.041 707.672 179.95 707.672 180.642C707.672 181.334 710.794 183.557 714.608 185.583C718.422 187.607 725.583 191.681 730.52 194.632C735.457 197.584 746.809 204.192 755.747 209.317L772 218.634L780.227 214.205C787.597 210.238 804.441 200.487 820.28 191.018C823.421 189.139 829.07 185.974 832.832 183.982L839.671 180.36L853.715 188.375C861.972 193.088 868.595 198.077 869.787 200.482C871.347 203.628 872.871 204.459 876.38 204.081C878.89 203.81 881.798 204.284 882.844 205.134C885.193 207.045 896.801 213.575 897.849 213.575C898.271 213.575 898.616 212.839 898.616 211.938C898.616 211.038 897.907 210.302 897.041 210.302C893.769 210.302 879.836 200.255 878.65 197.042C877.746 194.587 876.207 193.81 872.918 194.142C870.446 194.393 866.588 193.434 864.344 192.011C862.1 190.589 855.857 186.894 850.472 183.801L840.68 178.177L840.242 140.364L839.805 102.552L844.322 99.4278C853.132 93.3348 870.63 84.2844 873.6 84.2844C875.259 84.2844 877.504 82.8557 878.591 81.1111C879.678 79.3648 882.976 76.7708 885.919 75.347C891.352 72.717 900.189 66.385 898.519 66.3179C898.018 66.2983 893.514 68.7532 888.512 71.7743ZM664.393 76.5335C661.956 79.4941 662.412 82.8688 665.511 84.8294C669.118 87.1108 673.736 83.3646 673.07 78.7004C672.517 74.8102 666.95 73.4207 664.393 76.5335ZM797.432 76.6088C797.432 77.0589 803.49 80.9048 810.896 85.1567C818.302 89.4069 826.437 94.3298 828.977 96.0941C831.515 97.8583 833.959 98.9352 834.406 98.4851C835.131 97.7585 830.772 95.0466 804.368 79.7969C800.554 77.5924 797.432 76.1587 797.432 76.6088ZM733.376 83.5839C727.276 86.903 727.646 88.2859 733.784 85.1027C736.477 83.7067 738.68 82.2141 738.68 81.787C738.68 80.7346 738.505 80.7936 733.376 83.5839ZM700.328 99.6929C703.021 101.858 705.591 103.264 706.04 102.817C707.115 101.747 699.68 95.7389 697.291 95.7487C696.269 95.7536 697.635 97.5277 700.328 99.6929ZM715.424 104.054C711.672 106.246 711.793 110.897 715.697 114.439C718.192 116.704 719.512 116.908 722.225 115.453C726.562 113.124 726.708 106.257 722.468 103.981C718.711 101.965 719.008 101.961 715.424 104.054ZM819.118 105.234C816.583 106.85 818.201 113.221 821.463 114.476C822.836 115.005 824.965 114.597 826.199 113.571C831.978 108.761 825.517 101.156 819.118 105.234ZM705.108 142.383C705.108 163.086 705.343 171.33 705.627 160.703C705.913 150.075 705.911 133.137 705.625 123.062C705.34 112.985 705.107 121.681 705.108 142.383ZM819.102 164.886C815.338 169.762 815.428 172.75 819.392 174.562C825.016 177.131 828.44 175.259 828.44 169.613C828.44 163.495 822.496 160.486 819.102 164.886ZM511.132 167.048C508.054 170.137 509.146 172.66 513.561 172.66C515.609 172.66 516.728 171.538 516.728 169.484C516.728 165.057 514.212 163.962 511.132 167.048ZM614.105 165.569C611.714 167.967 613.09 172.66 616.184 172.66C620.029 172.66 621.527 170.574 620.19 167.08C619.169 164.407 616.037 163.63 614.105 165.569ZM717.715 168.467C718.027 169.968 719.014 171.158 719.912 171.11C722.334 170.981 721.89 167.32 719.347 166.471C717.975 166.012 717.364 166.76 717.715 168.467ZM562.424 198.846C562.424 201.31 563.276 202.194 565.28 201.808C566.85 201.504 568.136 200.171 568.136 198.846C568.136 197.52 566.85 196.188 565.28 195.884C563.276 195.497 562.424 196.381 562.424 198.846ZM768.784 197.352C767.103 200.081 770.884 203.211 773.136 200.952C775.02 199.063 773.841 195.573 771.32 195.573C770.528 195.573 769.388 196.373 768.784 197.352ZM665.553 198.968C665.875 199.936 666.836 200.728 667.688 200.728C668.54 200.728 669.501 199.936 669.823 198.968C670.144 198.001 669.185 197.209 667.688 197.209C666.192 197.209 665.232 198.001 665.553 198.968ZM665.648 253.937C664.527 254.392 663.608 256.482 663.608 258.581C663.608 262.692 665.988 264.219 670.544 263.034C673.828 262.18 674.317 257.701 671.442 254.817C669.354 252.724 668.839 252.645 665.648 253.937ZM870.89 255.287C867.986 258.794 870.093 262.673 874.901 262.673C879.417 262.673 880.608 258.362 877.073 254.817C874.513 252.249 873.328 252.339 870.89 255.287ZM767.044 256.866C765.789 260.144 767.651 262.673 771.32 262.673C775.075 262.673 776.557 260.558 775.23 257.092C773.985 253.835 768.265 253.678 767.044 256.866ZM715.897 284.688C712.774 288.462 714.531 292.891 719.378 293.454C725.041 294.113 727.625 287.826 723.063 284.482C719.311 281.731 718.321 281.759 715.897 284.688ZM817.081 284.688C812.946 289.685 819.252 296.954 825.602 294.511C828.874 293.251 830.428 287.169 828.172 284.443C825.816 281.595 819.526 281.734 817.081 284.688ZM301.305 374.737V411.519L296.257 414.136C293.481 415.576 291.545 417.09 291.957 417.502C292.366 417.915 295 416.939 297.809 415.336L302.915 412.421L302.927 375.188C302.932 354.711 302.569 337.956 302.121 337.956C301.672 337.956 301.305 354.507 301.305 374.737ZM817.948 343.8C814.914 346.844 814.888 347.062 817.073 351.157C819.095 354.944 825.582 355.32 828.481 351.818C830.064 349.905 830.119 348.363 828.714 345.271C826.615 340.653 821.75 339.989 817.948 343.8ZM716.423 345.321C714.982 349.086 717.125 352.991 720.295 352.378C723.837 351.695 725.076 346.198 722.112 344.314C718.926 342.29 717.485 342.543 716.423 345.321ZM768.583 376.581C767.428 379.599 771.375 382.743 773.562 380.55C775.344 378.763 773.709 373.961 771.32 373.961C770.365 373.961 769.135 375.139 768.583 376.581ZM871.42 376.525C870.88 377.936 871.239 379.894 872.218 380.876C874.575 383.239 879.188 379.548 877.945 376.296C876.75 373.177 872.646 373.321 871.42 376.525ZM832.52 414.242C830.725 415.637 825.217 418.93 820.28 421.56C815.343 424.19 802.251 431.679 791.188 438.202L771.07 450.062L771.248 488.761L771.426 527.462L764.436 531.429C758.272 534.928 705.843 565.544 704.831 566.234C704.204 566.663 704.036 615.64 704.61 630.906C704.898 638.557 705.521 627.528 705.994 606.398L706.856 567.98L739.421 549.22L771.986 530.46L781.853 535.836C790.855 540.743 825.727 561.04 834.56 566.514C838.196 568.768 838.232 569.164 838.232 606.394C838.232 630.372 838.823 643.998 839.864 643.998C840.903 643.998 841.509 630.2 841.53 605.948L841.566 567.897L869.057 551.94C884.177 543.163 897.529 535.983 898.725 535.983C900.289 535.983 900.403 535.484 899.13 534.208C897.857 532.931 893.751 534.486 884.523 539.734C877.463 543.751 869.117 548.5 865.976 550.289C862.834 552.076 855.635 556.275 849.977 559.619L839.691 565.701L807.545 547.286C789.866 537.157 774.888 528.097 774.262 527.151C773.636 526.205 773.076 509.083 773.017 489.1L772.909 452.771L777.419 449.652C779.899 447.936 787.069 443.699 793.352 440.236C799.635 436.772 811.953 429.649 820.727 424.407C829.499 419.165 837.834 414.876 839.249 414.876C840.662 414.876 848.628 418.893 856.949 423.805C870.669 431.903 872.004 433.122 871.285 436.898C870.633 440.313 871.121 441.061 873.997 441.061C875.924 441.061 877.932 439.938 878.457 438.564C879.048 437.022 880.119 436.601 881.263 437.464C886.532 441.444 898.616 447.545 898.616 446.228C898.616 443.578 843.178 411.576 838.726 411.655C837.107 411.683 834.315 412.848 832.52 414.242ZM150.441 420.656C148.662 422.005 148.177 423.059 149.333 423.059C150.467 423.059 152.496 421.954 153.842 420.604C156.971 417.466 154.598 417.502 150.441 420.656ZM270.527 428.859C265.717 431.865 261.311 434.824 260.735 435.435C259.054 437.218 275.684 428.481 279.273 425.697C285.017 421.237 279.566 423.208 270.527 428.859ZM1.92929 428.839C0.186312 430.16 -0.504023 431.242 0.393575 431.242C1.29117 431.242 3.45031 430.16 5.19328 428.839C6.93462 427.517 7.62659 426.437 6.72899 426.437C5.83139 426.437 3.67063 427.517 1.92929 428.839ZM129.718 432.958L125.865 436.313L131.169 433.736C136.388 431.199 137.875 429.605 135.022 429.605C134.224 429.605 131.836 431.114 129.718 432.958ZM204.201 434.515C206.894 436.304 209.831 437.767 210.729 437.767C211.626 437.767 210.158 436.304 207.465 434.515C204.772 432.726 201.834 431.263 200.937 431.263C200.039 431.263 201.508 432.726 204.201 434.515ZM46.6558 435.402C45.1478 437.225 45.0614 438.423 46.3457 439.711C48.438 441.809 53.2409 440.366 53.2409 437.639C53.2409 436.353 52.3858 436.462 50.5579 437.984C48.1719 439.97 48.0038 439.809 49.0353 436.547C50.3931 432.258 49.582 431.867 46.6558 435.402ZM148.985 433.97C146.963 435.997 147.879 440.704 150.492 441.709C154.177 443.128 156.057 441.495 156.057 436.873C156.057 434.091 155.149 432.878 153.065 432.878C151.419 432.878 149.583 433.369 148.985 433.97ZM354.459 435.624C353.865 437.178 354.498 439.461 355.916 440.884C358.173 443.146 358.692 443.13 361.096 440.721C362.565 439.248 363.322 436.88 362.779 435.461C361.47 432.04 355.787 432.152 354.459 435.624ZM768.224 435.837C766.274 439.49 767.322 441.061 771.705 441.061C773.965 441.061 774.669 440.092 774.29 437.506C773.598 432.795 770.328 431.895 768.224 435.837ZM253.977 436.349C253.977 437.302 252.325 439.459 250.305 441.143C246.691 444.154 246.731 444.159 252.699 441.405C259.318 438.351 260.177 437.004 256.425 435.559C255.078 435.042 253.977 435.397 253.977 436.349ZM215.625 440.284C220.581 444.315 225.231 446.681 223.878 444.487C223.264 443.49 220.421 441.539 217.562 440.151C212.734 437.811 212.596 437.821 215.625 440.284ZM238.869 447.22C235.065 449.583 233.841 449.686 230.957 447.881C226.001 444.776 225.363 446.66 230.278 449.889C234.246 452.496 234.686 452.435 240.5 448.473C247.268 443.863 245.926 442.83 238.869 447.22ZM233.797 489.753C233.919 507.528 233.697 523.567 233.303 525.393C232.834 527.57 227.132 531.776 216.762 537.597C208.059 542.484 193.994 550.747 185.509 555.961C177.025 561.175 169.095 565.442 167.885 565.442C163.433 565.442 156.274 560.465 155.765 557.017C155.366 554.323 154.061 553.429 150.345 553.315C142.691 553.079 105.868 531.401 102.85 525.354C100.936 521.518 100.438 514.493 100.587 493.432C100.853 455.84 100.089 456.93 99.0185 495.671C98.1878 525.745 97.8761 528.363 94.8569 530.543C86.1714 536.815 54.0618 553.987 51.0002 553.999C48.89 554.007 46.7798 555.629 45.6179 558.141L43.7084 562.27L50.1075 558.537C83.5863 539.005 98.0605 531.074 100.225 531.074C102.553 531.074 147.618 556.323 149.529 558.699C149.978 559.257 153.834 561.362 158.097 563.375L165.849 567.036V605.517C165.849 628.605 166.466 643.998 167.393 643.998C168.321 643.998 168.881 628.863 168.799 605.954L168.662 567.91L176.186 563.478C180.325 561.04 187.587 556.878 192.323 554.231C197.061 551.583 208.49 544.942 217.722 539.473L234.505 529.527L267.498 548.872L300.489 568.218V606.108V644H306.705C310.434 643.998 312.518 643.344 311.913 642.362C311.358 641.462 309.112 640.725 306.92 640.725H302.937L302.894 603.493L302.852 566.26L284.534 555.978C274.46 550.322 262.545 543.523 258.057 540.87C253.569 538.217 246.776 534.429 242.961 532.452L236.025 528.856V493.142C236.025 473.498 235.473 457.429 234.801 457.43C234.128 457.432 233.676 471.978 233.797 489.753ZM818.754 461.792C816.9 463.095 815.384 465.548 815.384 467.247C815.384 474.326 827.219 476.956 829.311 470.343C831.753 462.628 825.163 457.291 818.754 461.792ZM304.817 463.787C301.59 465.836 303.209 471.338 307.039 471.338C309.378 471.338 310.281 470.238 310.281 467.382C310.281 463.018 308.192 461.645 304.817 463.787ZM405.986 463.759C404.574 464.679 404.181 466.495 404.902 468.774C406.609 474.168 414.728 472.906 414.728 467.247C414.728 462.862 410.162 461.041 405.986 463.759ZM304.118 521.473C297.533 525.169 303.18 536.083 309.83 532.514C311.425 531.658 312.729 529.169 312.729 526.982C312.729 522.167 308.128 519.223 304.118 521.473ZM200.447 523.218C195.429 528.25 202.081 535.555 207.543 531.008C210.827 528.275 210.503 524.959 206.756 522.948C202.822 520.837 202.822 520.837 200.447 523.218ZM404.814 525.252C403.51 530.461 405.028 532.71 409.847 532.71C414.639 532.71 417.521 528.231 415.349 524.161C412.961 519.688 406.027 520.406 404.814 525.252ZM6.72899 553.125C10.3194 555.343 13.9914 557.158 14.889 557.158C15.7866 557.158 13.5834 555.343 9.99299 553.125C6.40259 550.907 2.7306 549.092 1.833 549.092C0.935399 549.092 3.1386 550.907 6.72899 553.125ZM870.257 553.199C866.656 556.811 869.525 562.169 875.061 562.169C879.711 562.169 881.986 558.092 879.525 554.172C877.204 550.477 873.372 550.074 870.257 553.199ZM252.893 554.914C251.532 558.469 254.985 561.812 257.458 559.333C259.547 557.238 258.253 552.349 255.609 552.349C254.654 552.349 253.433 553.503 252.893 554.914ZM768.784 555.765C768.182 556.744 768.441 558.3 769.362 559.223C771.421 561.288 774.584 559.544 774.584 556.344C774.584 553.588 770.383 553.169 768.784 555.765ZM32.3611 605.129C32.6957 644.697 33.2538 640.107 34.0519 591.217C34.2836 577.037 33.923 565.439 33.249 565.44C32.5749 565.44 32.1767 583.302 32.3611 605.129ZM355.795 609.686C349.432 612.1 349.217 619.533 355.413 622.859C361.656 626.209 367.835 621.07 365.695 614.307C364.385 610.168 359.965 608.105 355.795 609.686ZM149.121 611.397C143.446 614.712 147.366 623.688 153.938 622.431C157.457 621.759 158.722 615.304 155.982 611.995C153.692 609.227 152.946 609.164 149.121 611.397ZM871.691 611.88C867.859 614.69 869.05 621.76 873.463 622.392C877.787 623.012 881.24 618.937 879.921 614.769C878.593 610.573 875.131 609.357 871.691 611.88ZM251.87 612.288C249.946 614.219 250.572 620.765 252.753 621.502C257.314 623.04 260.686 620.711 260.185 616.371C259.697 612.162 254.528 609.623 251.87 612.288ZM768.402 613.211C765.424 616.198 766.016 619.099 769.853 620.32C774.4 621.767 777.549 618.662 775.247 615.001C772.963 611.371 770.801 610.805 768.402 613.211ZM47.0263 616.299C47.3478 617.266 48.3074 618.058 49.1609 618.058C50.0145 618.058 50.9741 617.266 51.2956 616.299C51.6171 615.332 50.6575 614.54 49.1609 614.54C47.6644 614.54 46.7048 615.332 47.0263 616.299ZM95.1294 640.18C92.5394 642.776 94.5256 643.998 101.334 643.998C107.146 643.998 108.435 643.499 107.688 641.543C106.739 639.067 97.2657 638.038 95.1294 640.18ZM407.236 642.488C405.563 643.552 406.159 643.956 409.424 643.974C414.298 644 415.176 643.198 411.724 641.871C410.521 641.408 408.501 641.686 407.236 642.488ZM819.464 642.362C818.868 643.329 820.665 643.989 823.856 643.974C827.942 643.954 828.66 643.563 826.808 642.362C823.635 640.306 820.73 640.306 819.464 642.362Z" fill="#00A651" fill-opacity="0.1"/>
</svg>
