<svg width="40" height="40" viewBox="0 0 40 40" fill="none" xmlns="http://www.w3.org/2000/svg">
<g clip-path="url(#clip0_175_91)">
<path d="M34.5455 0H5.45455C2.44208 0 0 2.44208 0 5.45455V34.5455C0 37.5579 2.44208 40 5.45455 40H34.5455C37.5579 40 40 37.5579 40 34.5455V5.45455C40 2.44208 37.5579 0 34.5455 0Z" fill="#F96600"/>
<path d="M18.7705 25.1091C16.8318 24.9068 15.0841 24.4273 13.5886 23.2591C13.4023 23.1137 13.2114 22.9728 13.0409 22.8046C12.3864 22.175 12.3205 21.4546 12.8386 20.7137C13.2818 20.0773 14.025 19.9068 14.8 20.2728C14.9488 20.3481 15.0917 20.4347 15.2273 20.5318C16.6131 21.4737 18.2466 21.9845 19.9222 21.9998C21.5977 22.0152 23.2403 21.5345 24.6432 20.6182C24.9112 20.401 25.2205 20.2402 25.5523 20.1455C25.8608 20.0543 26.191 20.0695 26.4899 20.1886C26.7887 20.3077 27.0388 20.5239 27.2 20.8023C27.6091 21.4705 27.6045 22.1205 27.1 22.6387C26.3266 23.4208 25.3921 24.025 24.3614 24.4091C23.3579 24.7696 22.3135 25.004 21.2523 25.1068C21.4114 25.2818 21.4795 25.3659 21.5886 25.4659C23.0273 26.9137 24.4727 28.3546 25.9068 29.8046C26.1353 30.0123 26.2902 30.2885 26.3484 30.5917C26.4066 30.8949 26.3649 31.2089 26.2295 31.4864C26.0917 31.7906 25.8673 32.0474 25.5844 32.2249C25.3014 32.4023 24.9725 32.4925 24.6386 32.4841C24.2481 32.4457 23.8866 32.2605 23.6273 31.9659C22.5409 30.8728 21.4341 29.8 20.3705 28.6864C20.0614 28.3637 19.9159 28.425 19.6386 28.7046C18.5455 29.8409 17.4341 30.9387 16.3182 32.0387C16.111 32.2683 15.8334 32.4226 15.5289 32.4773C15.2245 32.532 14.9106 32.4841 14.6364 32.3409C14.3393 32.2022 14.0886 31.9806 13.9144 31.7028C13.7403 31.425 13.65 31.1029 13.6545 30.775C13.6874 30.3699 13.8764 29.9933 14.1818 29.725C15.6091 28.3023 17.0318 26.8788 18.45 25.4546C18.5455 25.3568 18.6364 25.2546 18.7705 25.1091Z" fill="white"/>
<path d="M19.9497 20.1546C18.6964 20.1473 17.4735 19.7679 16.4361 19.0646C15.3987 18.3613 14.5935 17.3658 14.1227 16.2042C13.6519 15.0427 13.5366 13.7675 13.7916 12.5404C14.0465 11.3133 14.6601 10.1895 15.5546 9.31161C16.4491 8.43372 17.5842 7.84126 18.8159 7.60937C20.0476 7.37748 21.3204 7.51661 22.4729 8.00911C23.6254 8.50161 24.6057 9.32529 25.2894 10.3757C25.9731 11.4261 26.3295 12.6559 26.3133 13.9091C26.2906 15.5789 25.6091 17.1721 24.4172 18.3419C23.2253 19.5116 21.6196 20.1631 19.9497 20.1546ZM23.0929 13.8205C23.091 13.2079 22.9075 12.6096 22.5655 12.1013C22.2234 11.5931 21.7383 11.1978 21.1715 10.9654C20.6046 10.7331 19.9816 10.6742 19.3812 10.7961C18.7809 10.9181 18.2302 11.2154 17.799 11.6505C17.3677 12.0856 17.0752 12.6388 16.9586 13.2402C16.8419 13.8416 16.9064 14.4641 17.1437 15.0289C17.3811 15.5936 17.7806 16.0753 18.2919 16.4128C18.8031 16.7504 19.403 16.9286 20.0156 16.925C20.4217 16.9241 20.8237 16.843 21.1985 16.6864C21.5732 16.5297 21.9133 16.3005 22.1992 16.0121C22.4851 15.7236 22.7113 15.3815 22.8646 15.0054C23.018 14.6293 23.0955 14.2266 23.0929 13.8205Z" fill="white"/>
</g>
<defs>
<clipPath id="clip0_175_91">
<rect width="40" height="40" fill="white"/>
</clipPath>
</defs>
</svg>
