<svg width="24" height="16" viewBox="0 0 24 16" fill="none" xmlns="http://www.w3.org/2000/svg">
<path d="M12 5C11.2044 5 10.4413 5.31607 9.87868 5.87868C9.31607 6.44129 9 7.20435 9 8C9 8.79565 9.31607 9.55871 9.87868 10.1213C10.4413 10.6839 11.2044 11 12 11C12.7956 11 13.5587 10.6839 14.1213 10.1213C14.6839 9.55871 15 8.79565 15 8C15 7.20435 14.6839 6.44129 14.1213 5.87868C13.5587 5.31607 12.7956 5 12 5ZM12 13C10.6739 13 9.40215 12.4732 8.46447 11.5355C7.52678 10.5979 7 9.32608 7 8C7 6.67392 7.52678 5.40215 8.46447 4.46447C9.40215 3.52678 10.6739 3 12 3C13.3261 3 14.5979 3.52678 15.5355 4.46447C16.4732 5.40215 17 6.67392 17 8C17 9.32608 16.4732 10.5979 15.5355 11.5355C14.5979 12.4732 13.3261 13 12 13ZM12 0.5C7 0.5 2.73 3.61 1 8C2.73 12.39 7 15.5 12 15.5C17 15.5 21.27 12.39 23 8C21.27 3.61 17 0.5 12 0.5Z" fill="#1D1F24"/>
</svg>
