<svg width="20" height="20" viewBox="0 0 20 20" fill="none" xmlns="http://www.w3.org/2000/svg">
<path d="M2.22202 7.62226C4.35519 12.2676 8.14555 15.9494 12.8509 17.9467L13.6065 18.2834C14.4432 18.6559 15.3845 18.7213 16.2646 18.4678C17.1448 18.2143 17.9072 17.6583 18.4176 16.8978L19.4054 15.4267C19.5599 15.196 19.6225 14.9158 19.5808 14.6412C19.539 14.3667 19.396 14.1177 19.1798 13.9434L15.8331 11.2434C15.7166 11.1494 15.5822 11.08 15.4382 11.0392C15.2941 10.9985 15.1433 10.9872 14.9948 11.0062C14.8463 11.0252 14.7032 11.074 14.574 11.1497C14.4448 11.2254 14.3323 11.3264 14.2431 11.4467L13.2076 12.8434C10.5494 11.5305 8.39772 9.37849 7.08536 6.72004L8.48091 5.68448C8.60118 5.59533 8.7022 5.48279 8.77789 5.35362C8.85358 5.22445 8.90239 5.08131 8.92138 4.93281C8.94037 4.7843 8.92915 4.63349 8.8884 4.48943C8.84765 4.34537 8.77821 4.21103 8.68424 4.09448L5.98424 0.747814C5.80991 0.531651 5.56095 0.388607 5.2864 0.346859C5.01185 0.305111 4.73162 0.367686 4.50091 0.522258L3.0198 1.51559C2.25469 2.02868 1.69657 2.79672 1.44486 3.68289C1.19315 4.56906 1.2642 5.51581 1.64536 6.35448L2.22202 7.62226Z" fill="#1D1F24"/>
</svg>
