<svg width="24" height="25" viewBox="0 0 24 25" fill="none" xmlns="http://www.w3.org/2000/svg">
<g clip-path="url(#clip0_175_79)">
<path d="M15.4795 17.684C13.5508 19.1823 11.1235 19.8891 8.6919 19.6606C6.26029 19.432 4.00722 18.2853 2.39143 16.4538C0.775644 14.6224 -0.0813587 12.244 -0.00507757 9.80285C0.0712035 7.36172 1.07503 5.04145 2.80201 3.31447C4.529 1.58748 6.84927 0.583655 9.2904 0.507374C11.7315 0.431093 14.11 1.2881 15.9414 2.90388C17.7728 4.51967 18.9196 6.77275 19.1481 9.20435C19.3767 11.636 18.6698 14.0632 17.1715 15.992L23.5915 22.388L21.8875 24.092L15.4915 17.684H15.4795ZM9.59954 17.3C10.5451 17.3 11.4813 17.1138 12.3549 16.7519C13.2284 16.3901 14.0221 15.8597 14.6907 15.1912C15.3593 14.5226 15.8896 13.7289 16.2515 12.8553C16.6133 11.9818 16.7995 11.0455 16.7995 10.1C16.7995 9.15447 16.6133 8.21822 16.2515 7.34467C15.8896 6.47113 15.3593 5.6774 14.6907 5.00882C14.0221 4.34024 13.2284 3.80989 12.3549 3.44806C11.4813 3.08622 10.5451 2.89999 9.59954 2.89999C7.68998 2.89999 5.85863 3.65856 4.50837 5.00882C3.15811 6.35908 2.39954 8.19043 2.39954 10.1C2.39954 12.0096 3.15811 13.8409 4.50837 15.1912C5.85863 16.5414 7.68998 17.3 9.59954 17.3Z" fill="#1D1F24"/>
</g>
<defs>
<clipPath id="clip0_175_79">
<rect width="24" height="24" fill="white" transform="translate(0 0.5)"/>
</clipPath>
</defs>
</svg>
