<svg width="40" height="40" viewBox="0 0 40 40" fill="none" xmlns="http://www.w3.org/2000/svg">
<g clip-path="url(#clip0_175_103)">
<path d="M32.8457 39.3189C24.3093 40.2296 15.7003 40.2296 7.16389 39.3189C5.5062 39.1439 3.9586 38.4059 2.77909 37.228C1.59959 36.0502 0.859447 34.5036 0.682067 32.8462C-0.228658 24.3098 -0.228658 15.7008 0.682067 7.16437C0.857121 5.50669 1.59509 3.95909 2.77294 2.77958C3.95079 1.60007 5.49735 0.859935 7.15479 0.682555C15.6912 -0.228169 24.3002 -0.228169 32.8366 0.682555C34.4943 0.857609 36.0419 1.59558 37.2214 2.77343C38.4009 3.95128 39.1411 5.49784 39.3184 7.15528C40.2292 15.6917 40.2292 24.3007 39.3184 32.8371C39.1434 34.4948 38.4054 36.0424 37.2276 37.2219C36.0497 38.4014 34.5031 39.1415 32.8457 39.3189Z" fill="#6F3FAA"/>
<path d="M31.5515 13.966V13.9364C31.2833 12.8501 30.5833 11.7273 29.6651 10.7819C28.5924 9.67278 27.2265 8.80233 25.9219 8.52051H25.8946C22.0043 7.77506 18.0077 7.77506 14.1174 8.52051H14.0901C11.6674 9.04551 9.03782 11.5773 8.45146 13.9364V13.966C7.73102 17.2366 7.73102 20.6249 8.45146 23.8955V23.9228C8.86964 25.6046 10.3242 27.3728 12.0015 28.441C12.5492 28.7979 13.1455 29.0742 13.7719 29.2614V31.8932C13.7728 32.1036 13.8363 32.3089 13.9543 32.483C14.0723 32.6571 14.2395 32.7921 14.4345 32.8709C14.6295 32.9496 14.8436 32.9685 15.0494 32.9251C15.2552 32.8817 15.4434 32.7781 15.5901 32.6273L18.2583 29.8546C18.8356 29.8864 19.4174 29.9046 19.9946 29.9046C21.9707 29.904 23.9424 29.7168 25.8833 29.3455H25.9106C28.3265 28.8182 30.9583 26.2864 31.5401 23.9273V23.9001C32.2649 20.6288 32.2688 17.2389 31.5515 13.966ZM29.4401 23.4091C29.0492 24.9478 27.0537 26.8637 25.4651 27.216C23.4017 27.6112 21.3017 27.7827 19.2015 27.7273C19.181 27.7261 19.1605 27.7295 19.1416 27.7374C19.1227 27.7453 19.1059 27.7574 19.0924 27.7728L17.1446 29.7728L15.0719 31.8978C15.0388 31.9328 14.9958 31.9571 14.9487 31.9675C14.9016 31.9779 14.8525 31.9739 14.8077 31.956C14.7628 31.9381 14.7244 31.9072 14.6974 31.8672C14.6704 31.8273 14.6559 31.7801 14.656 31.7319V27.3682C14.6561 27.3331 14.6438 27.2992 14.6214 27.2722C14.599 27.2452 14.5678 27.2269 14.5333 27.2205C14.2019 27.1419 13.8825 27.0196 13.5833 26.8569C12.2333 26.1364 10.8719 24.6591 10.5583 23.4091C9.90864 20.4527 9.90864 17.3905 10.5583 14.4341C10.9469 12.9023 12.9537 10.991 14.531 10.6364C18.1429 9.94532 21.8532 9.94532 25.4651 10.6364C26.3401 10.8319 27.3401 11.4978 28.1219 12.316C28.7651 12.9819 29.2583 13.7501 29.4401 14.441C30.0887 17.3952 30.0887 20.4549 29.4401 23.4091Z" fill="white"/>
<path d="M25.5224 23.6364C25.2271 24.3102 24.7195 24.869 24.0769 25.2273C23.8753 25.3129 23.666 25.3791 23.4519 25.425C23.2087 25.3523 22.9769 25.3023 22.7701 25.2137C21.0473 24.5432 19.4435 23.6001 18.0201 22.4205C17.5973 22.0599 17.2001 21.6703 16.8315 21.2546C15.9211 20.2062 15.1566 19.0396 14.5587 17.7864C14.2678 17.1932 14.0224 16.5796 13.7724 15.9682C13.5451 15.4114 13.8815 14.8318 14.2269 14.4159C14.5651 14.0302 14.981 13.7204 15.4474 13.5068C15.6115 13.4244 15.7993 13.4019 15.9782 13.4434C16.1571 13.485 16.3159 13.5878 16.4269 13.7341C17.0076 14.3865 17.5194 15.0971 17.9542 15.8546C18.0912 16.0748 18.1381 16.3393 18.0852 16.5933C18.0323 16.8472 17.8836 17.071 17.6701 17.2182C17.5565 17.2977 17.4428 17.3887 17.3451 17.4773C17.2488 17.5486 17.1657 17.6363 17.0996 17.7364C17.0427 17.83 17.0081 17.9356 16.9986 18.0448C16.9892 18.154 17.0051 18.2639 17.0451 18.3659C17.4837 19.5727 18.1496 20.5796 19.1451 21.2864C19.482 21.5246 19.8449 21.7236 20.2269 21.8796C20.4764 22.0152 20.7566 22.0841 21.0406 22.0796C21.536 22.0205 21.6996 21.4727 22.0451 21.1909C22.2037 21.0611 22.3999 20.9859 22.6046 20.9765C22.8093 20.9671 23.0116 21.0239 23.1815 21.1387C23.5496 21.3659 23.9042 21.6227 24.2587 21.8727C24.6094 22.1121 24.947 22.37 25.2701 22.6455C25.4212 22.7552 25.5291 22.9144 25.5752 23.0954C25.6213 23.2763 25.6026 23.4677 25.5224 23.6364ZM20.6519 12.7455H20.361C20.4542 12.7409 20.5519 12.7455 20.6519 12.7455Z" fill="white"/>
<path d="M25.6814 19.5568C25.4541 19.5568 25.3428 19.3636 25.3269 19.1522C25.2973 18.7363 25.2746 18.3181 25.2178 17.9045C25.1195 17.2066 24.8765 16.537 24.5041 15.9386C24.1214 15.3152 23.6122 14.7791 23.0093 14.3649C22.4064 13.9507 21.7233 13.6676 21.0041 13.534C20.6769 13.4749 20.3428 13.4613 20.0132 13.4272C19.8041 13.4045 19.5291 13.3908 19.4837 13.1318C19.4769 13.0814 19.4809 13.0302 19.4955 12.9816C19.5101 12.933 19.5348 12.888 19.5682 12.8497C19.6015 12.8114 19.6427 12.7807 19.6888 12.7595C19.735 12.7384 19.7852 12.7274 19.8359 12.7272C19.8904 12.7241 19.9451 12.7241 19.9996 12.7272C20.993 12.7356 21.969 12.9889 22.8412 13.4646C23.7133 13.9403 24.4547 14.6238 24.9996 15.4545C25.4298 16.124 25.7218 16.8728 25.8587 17.6568C25.945 18.1477 25.9769 18.6522 26.0155 19.1522C26.0233 19.2012 26.0205 19.2513 26.0074 19.2992C25.9944 19.347 25.9713 19.3916 25.9397 19.4298C25.9081 19.4681 25.8687 19.4992 25.8242 19.5211C25.7797 19.5429 25.731 19.5551 25.6814 19.5568Z" fill="white"/>
<path d="M24.4512 18.4955C24.4499 18.563 24.4407 18.6302 24.4239 18.6955C24.4041 18.7612 24.3644 18.8192 24.3105 18.8616C24.2565 18.904 24.1908 18.9288 24.1222 18.9325C24.0537 18.9362 23.9857 18.9188 23.9274 18.8825C23.8691 18.8462 23.8235 18.7928 23.7966 18.7296C23.7716 18.6379 23.7601 18.5429 23.7625 18.4478C23.7678 17.9395 23.6672 17.4356 23.4671 16.9683C23.4216 16.8683 23.3716 16.766 23.3148 16.6683C22.9895 16.1075 22.5066 15.6547 21.9262 15.366C21.576 15.2007 21.2041 15.0859 20.8216 15.0251C20.6534 14.9978 20.4853 14.9819 20.3171 14.9592C20.2733 14.957 20.2304 14.9458 20.1912 14.9264C20.1519 14.907 20.117 14.8797 20.0886 14.8463C20.0603 14.8128 20.0391 14.7739 20.0264 14.732C20.0137 14.69 20.0098 14.6459 20.0148 14.6024C20.0148 14.5578 20.0243 14.5138 20.0425 14.4732C20.0608 14.4325 20.0874 14.3962 20.1207 14.3666C20.1539 14.337 20.1931 14.3147 20.2355 14.3013C20.278 14.2879 20.3228 14.2836 20.3671 14.2887C21.0344 14.3145 21.6882 14.4851 22.283 14.7887C23.0093 15.1542 23.6019 15.7396 23.9762 16.4614C24.187 16.8829 24.3282 17.3358 24.3944 17.8024C24.4066 17.8632 24.4157 17.9247 24.4216 17.9864C24.433 18.1228 24.4375 18.2592 24.4489 18.4274C24.4489 18.4433 24.4512 18.4637 24.4512 18.4955Z" fill="white"/>
<path d="M22.8946 18.1819C22.8818 18.2395 22.852 18.292 22.809 18.3325C22.7661 18.373 22.712 18.3997 22.6537 18.4092H22.6037C22.5293 18.414 22.4553 18.3944 22.3929 18.3534C22.3306 18.3124 22.2833 18.2522 22.2583 18.1819C22.2441 18.1446 22.235 18.1057 22.231 18.066C22.2191 17.9131 22.1963 17.7612 22.1628 17.6114C22.0953 17.3084 21.9231 17.0388 21.6765 16.8501C21.5573 16.7645 21.4243 16.6999 21.2833 16.6592C21.1037 16.6069 20.9151 16.6205 20.7378 16.5774C20.6502 16.5618 20.5723 16.5122 20.5212 16.4394C20.4701 16.3665 20.4499 16.2764 20.4651 16.1887C20.482 16.1047 20.529 16.0298 20.5972 15.9779C20.6653 15.926 20.7501 15.9008 20.8356 15.9069C21.8765 15.9819 22.6537 16.4819 22.8537 17.5978C22.8743 17.7014 22.8887 17.8061 22.8969 17.9114C22.9097 18.0012 22.9089 18.0924 22.8946 18.1819Z" fill="white"/>
</g>
<defs>
<clipPath id="clip0_175_103">
<rect width="40" height="40" fill="white"/>
</clipPath>
</defs>
</svg>
