<svg width="40" height="40" viewBox="0 0 40 40" fill="none" xmlns="http://www.w3.org/2000/svg">
<g clip-path="url(#clip0_175_114)">
<path d="M0 19.1666C0 10.1314 0 5.61375 2.80688 2.80688C5.61375 0 10.1314 0 19.1666 0H20.8333C29.8685 0 34.3862 0 37.193 2.80688C40 5.61375 40 10.1314 40 19.1666V20.8333C40 29.8685 40 34.3862 37.193 37.193C34.3862 40 29.8686 40 20.8334 40H19.1667C10.1315 40 5.61383 40 2.80695 37.1931C0 34.3862 0 29.8686 0 20.8334V19.1666Z" fill="#2787F5"/>
<path fill-rule="evenodd" clip-rule="evenodd" d="M10.8336 12.5H7.91625C7.08273 12.5 6.91602 12.8923 6.91602 13.3248C6.91602 14.0974 7.90508 17.929 11.5212 22.9966C13.932 26.4573 17.3284 28.3333 20.4191 28.3333C22.2736 28.3333 22.503 27.9166 22.503 27.1989V24.5833C22.503 23.7499 22.6787 23.5836 23.2658 23.5836C23.6985 23.5836 24.4403 23.7999 26.1711 25.4685C28.1491 27.4461 28.4752 28.3333 29.5878 28.3333H32.5052C33.3387 28.3333 33.7555 27.9166 33.5151 27.0944C33.252 26.2748 32.3076 25.0858 31.0544 23.6764C30.3744 22.873 29.3545 22.0078 29.0454 21.5752C28.6127 21.019 28.7363 20.7717 29.0454 20.2774C29.0454 20.2774 32.5998 15.2716 32.9706 13.5722C33.156 12.9541 32.9706 12.5 32.0884 12.5H29.171C28.4293 12.5 28.0873 12.8923 27.9018 13.3248C27.9018 13.3248 26.4183 16.9402 24.3166 19.2886C23.6366 19.9684 23.3276 20.1847 22.9566 20.1847C22.7713 20.1847 22.5028 19.9684 22.5028 19.3505V13.5722C22.5028 12.8305 22.2876 12.5 21.6693 12.5H17.0849C16.6214 12.5 16.3426 12.8441 16.3426 13.1704C16.3426 13.8734 17.3934 14.0355 17.5017 16.0131V20.3083C17.5017 21.2499 17.3316 21.4207 16.9607 21.4207C15.9717 21.4207 13.5659 17.7892 12.1391 13.6338C11.8597 12.8263 11.5792 12.5 10.8336 12.5Z" fill="white"/>
</g>
<defs>
<clipPath id="clip0_175_114">
<rect width="40" height="40" fill="white"/>
</clipPath>
</defs>
</svg>
