
<svg xmlns="http://www.w3.org/2000/svg" xmlns:xlink="http://www.w3.org/1999/xlink">

<g id="phone">
<path d="M2.22202 7.62226C4.35519 12.2676 8.14555 15.9494 12.8509 17.9467L13.6065 18.2834C14.4432 18.6559 15.3845 18.7213 16.2646 18.4678C17.1448 18.2143 17.9072 17.6583 18.4176 16.8978L19.4054 15.4267C19.5599 15.196 19.6225 14.9158 19.5808 14.6412C19.539 14.3667 19.396 14.1177 19.1798 13.9434L15.8331 11.2434C15.7166 11.1494 15.5822 11.08 15.4382 11.0392C15.2941 10.9985 15.1433 10.9872 14.9948 11.0062C14.8463 11.0252 14.7032 11.074 14.574 11.1497C14.4448 11.2254 14.3323 11.3264 14.2431 11.4467L13.2076 12.8434C10.5494 11.5305 8.39772 9.37849 7.08536 6.72004L8.48091 5.68448C8.60118 5.59533 8.7022 5.48279 8.77789 5.35362C8.85358 5.22445 8.90239 5.08131 8.92138 4.93281C8.94037 4.7843 8.92915 4.63349 8.8884 4.48943C8.84765 4.34537 8.77821 4.21103 8.68424 4.09448L5.98424 0.747814C5.80991 0.531651 5.56095 0.388607 5.2864 0.346859C5.01185 0.305111 4.73162 0.367686 4.50091 0.522258L3.0198 1.51559C2.25469 2.02868 1.69657 2.79672 1.44486 3.68289C1.19315 4.56906 1.2642 5.51581 1.64536 6.35448L2.22202 7.62226Z" />
</g>

<g id="email">
<path d="M16.667 3.33325H3.33366C2.41699 3.33325 1.67533 4.08325 1.67533 4.99992L1.66699 14.9999C1.66699 15.9166 2.41699 16.6666 3.33366 16.6666H16.667C17.5837 16.6666 18.3337 15.9166 18.3337 14.9999V4.99992C18.3337 4.08325 17.5837 3.33325 16.667 3.33325ZM16.667 6.66659L10.0003 10.8333L3.33366 6.66659V4.99992L10.0003 9.16658L16.667 4.99992V6.66659Z" />
</g>

<g id="classmates">
<g clip-path="url(#clip0_175_91)">
<path d="M34.5455 0H5.45455C2.44208 0 0 2.44208 0 5.45455V34.5455C0 37.5579 2.44208 40 5.45455 40H34.5455C37.5579 40 40 37.5579 40 34.5455V5.45455C40 2.44208 37.5579 0 34.5455 0Z" />
<path d="M18.7705 25.1091C16.8318 24.9068 15.0841 24.4273 13.5886 23.2591C13.4023 23.1137 13.2114 22.9728 13.0409 22.8046C12.3864 22.175 12.3205 21.4546 12.8386 20.7137C13.2818 20.0773 14.025 19.9068 14.8 20.2728C14.9488 20.3481 15.0917 20.4347 15.2273 20.5318C16.6131 21.4737 18.2466 21.9845 19.9222 21.9998C21.5977 22.0152 23.2403 21.5345 24.6432 20.6182C24.9112 20.401 25.2205 20.2402 25.5523 20.1455C25.8608 20.0543 26.191 20.0695 26.4899 20.1886C26.7887 20.3077 27.0388 20.5239 27.2 20.8023C27.6091 21.4705 27.6045 22.1205 27.1 22.6387C26.3266 23.4208 25.3921 24.025 24.3614 24.4091C23.3579 24.7696 22.3135 25.004 21.2523 25.1068C21.4114 25.2818 21.4795 25.3659 21.5886 25.4659C23.0273 26.9137 24.4727 28.3546 25.9068 29.8046C26.1353 30.0123 26.2902 30.2885 26.3484 30.5917C26.4066 30.8949 26.3649 31.2089 26.2295 31.4864C26.0917 31.7906 25.8673 32.0474 25.5844 32.2249C25.3014 32.4023 24.9725 32.4925 24.6386 32.4841C24.2481 32.4457 23.8866 32.2605 23.6273 31.9659C22.5409 30.8728 21.4341 29.8 20.3705 28.6864C20.0614 28.3637 19.9159 28.425 19.6386 28.7046C18.5455 29.8409 17.4341 30.9387 16.3182 32.0387C16.111 32.2683 15.8334 32.4226 15.5289 32.4773C15.2245 32.532 14.9106 32.4841 14.6364 32.3409C14.3393 32.2022 14.0886 31.9806 13.9144 31.7028C13.7403 31.425 13.65 31.1029 13.6545 30.775C13.6874 30.3699 13.8764 29.9933 14.1818 29.725C15.6091 28.3023 17.0318 26.8788 18.45 25.4546C18.5455 25.3568 18.6364 25.2546 18.7705 25.1091Z" fill="white"/>
<path d="M19.9497 20.1546C18.6964 20.1473 17.4735 19.7679 16.4361 19.0646C15.3987 18.3613 14.5935 17.3658 14.1227 16.2042C13.6519 15.0427 13.5366 13.7675 13.7916 12.5404C14.0465 11.3133 14.6601 10.1895 15.5546 9.31161C16.4491 8.43372 17.5842 7.84126 18.8159 7.60937C20.0476 7.37748 21.3204 7.51661 22.4729 8.00911C23.6254 8.50161 24.6057 9.32529 25.2894 10.3757C25.9731 11.4261 26.3295 12.6559 26.3133 13.9091C26.2906 15.5789 25.6091 17.1721 24.4172 18.3419C23.2253 19.5116 21.6196 20.1631 19.9497 20.1546ZM23.0929 13.8205C23.091 13.2079 22.9075 12.6096 22.5655 12.1013C22.2234 11.5931 21.7383 11.1978 21.1715 10.9654C20.6046 10.7331 19.9816 10.6742 19.3812 10.7961C18.7809 10.9181 18.2302 11.2154 17.799 11.6505C17.3677 12.0856 17.0752 12.6388 16.9586 13.2402C16.8419 13.8416 16.9064 14.4641 17.1437 15.0289C17.3811 15.5936 17.7806 16.0753 18.2919 16.4128C18.8031 16.7504 19.403 16.9286 20.0156 16.925C20.4217 16.9241 20.8237 16.843 21.1985 16.6864C21.5732 16.5297 21.9133 16.3005 22.1992 16.0121C22.4851 15.7236 22.7113 15.3815 22.8646 15.0054C23.018 14.6293 23.0955 14.2266 23.0929 13.8205Z" fill="white"/>
</g>
<defs>
<clipPath id="clip0_175_91">
<rect width="40" height="40" fill="white"/>
</clipPath>
</defs>
</g>

<g id="telegram">
<g clip-path="url(#clip0_175_98)">
<path d="M34.5455 0H5.45455C2.44208 0 0 2.44208 0 5.45455V34.5455C0 37.5579 2.44208 40 5.45455 40H34.5455C37.5579 40 40 37.5579 40 34.5455V5.45455C40 2.44208 37.5579 0 34.5455 0Z" />
<path d="M30.8955 10.341L30.4818 10.491L8.03182 18.5796C7.87273 18.6288 7.73445 18.7294 7.63867 18.8656C7.54289 19.0018 7.49502 19.166 7.50256 19.3323C7.51009 19.4987 7.57262 19.6578 7.68033 19.7848C7.78803 19.9119 7.93484 19.9995 8.09773 20.0341L13.9091 21.625L14.9932 24.8069L16.0773 27.9887C16.1396 28.1447 16.239 28.2831 16.3669 28.3919C16.4948 28.5008 16.6473 28.5767 16.8113 28.6132C16.9752 28.6497 17.1456 28.6457 17.3076 28.6014C17.4696 28.5571 17.6183 28.4739 17.7409 28.3591L20.7432 25.5228L26.6386 29.5205C27.3591 30.0114 28.3864 29.6478 28.5705 28.8387L32.475 11.5864C32.6659 10.7319 31.7659 10.0296 30.8955 10.341ZM28.0295 14.1705L17.8864 22.4614L17.4091 22.8523C17.3042 22.9354 17.2358 23.056 17.2182 23.1887L17.1114 24.0705L16.8182 26.5478C16.8206 26.5779 16.8109 26.6078 16.7913 26.6308C16.7717 26.6538 16.7438 26.6681 16.7136 26.6705C16.6835 26.6729 16.6536 26.6632 16.6306 26.6436C16.6076 26.624 16.5933 26.5961 16.5909 26.566L15.7659 24.091L14.9136 21.5569C14.8776 21.443 14.8824 21.32 14.9272 21.2093C14.972 21.0985 15.054 21.0069 15.1591 20.95L25.7136 14.9L27.7 13.7637C27.9886 13.5955 28.2841 13.9614 28.0295 14.1705Z" fill="white"/>
</g>
<defs>
<clipPath id="clip0_175_98">
<rect width="40" height="40" fill="white"/>
</clipPath>
</defs>
</g>

<g id="viber">
<g clip-path="url(#clip0_175_103)">
<path d="M32.8457 39.3189C24.3093 40.2296 15.7003 40.2296 7.16389 39.3189C5.5062 39.1439 3.9586 38.4059 2.77909 37.228C1.59959 36.0502 0.859447 34.5036 0.682067 32.8462C-0.228658 24.3098 -0.228658 15.7008 0.682067 7.16437C0.857121 5.50669 1.59509 3.95909 2.77294 2.77958C3.95079 1.60007 5.49735 0.859935 7.15479 0.682555C15.6912 -0.228169 24.3002 -0.228169 32.8366 0.682555C34.4943 0.857609 36.0419 1.59558 37.2214 2.77343C38.4009 3.95128 39.1411 5.49784 39.3184 7.15528C40.2292 15.6917 40.2292 24.3007 39.3184 32.8371C39.1434 34.4948 38.4054 36.0424 37.2276 37.2219C36.0497 38.4014 34.5031 39.1415 32.8457 39.3189Z" />
<path d="M31.5515 13.966V13.9364C31.2833 12.8501 30.5833 11.7273 29.6651 10.7819C28.5924 9.67278 27.2265 8.80233 25.9219 8.52051H25.8946C22.0043 7.77506 18.0077 7.77506 14.1174 8.52051H14.0901C11.6674 9.04551 9.03782 11.5773 8.45146 13.9364V13.966C7.73102 17.2366 7.73102 20.6249 8.45146 23.8955V23.9228C8.86964 25.6046 10.3242 27.3728 12.0015 28.441C12.5492 28.7979 13.1455 29.0742 13.7719 29.2614V31.8932C13.7728 32.1036 13.8363 32.3089 13.9543 32.483C14.0723 32.6571 14.2395 32.7921 14.4345 32.8709C14.6295 32.9496 14.8436 32.9685 15.0494 32.9251C15.2552 32.8817 15.4434 32.7781 15.5901 32.6273L18.2583 29.8546C18.8356 29.8864 19.4174 29.9046 19.9946 29.9046C21.9707 29.904 23.9424 29.7168 25.8833 29.3455H25.9106C28.3265 28.8182 30.9583 26.2864 31.5401 23.9273V23.9001C32.2649 20.6288 32.2688 17.2389 31.5515 13.966ZM29.4401 23.4091C29.0492 24.9478 27.0537 26.8637 25.4651 27.216C23.4017 27.6112 21.3017 27.7827 19.2015 27.7273C19.181 27.7261 19.1605 27.7295 19.1416 27.7374C19.1227 27.7453 19.1059 27.7574 19.0924 27.7728L17.1446 29.7728L15.0719 31.8978C15.0388 31.9328 14.9958 31.9571 14.9487 31.9675C14.9016 31.9779 14.8525 31.9739 14.8077 31.956C14.7628 31.9381 14.7244 31.9072 14.6974 31.8672C14.6704 31.8273 14.6559 31.7801 14.656 31.7319V27.3682C14.6561 27.3331 14.6438 27.2992 14.6214 27.2722C14.599 27.2452 14.5678 27.2269 14.5333 27.2205C14.2019 27.1419 13.8825 27.0196 13.5833 26.8569C12.2333 26.1364 10.8719 24.6591 10.5583 23.4091C9.90864 20.4527 9.90864 17.3905 10.5583 14.4341C10.9469 12.9023 12.9537 10.991 14.531 10.6364C18.1429 9.94532 21.8532 9.94532 25.4651 10.6364C26.3401 10.8319 27.3401 11.4978 28.1219 12.316C28.7651 12.9819 29.2583 13.7501 29.4401 14.441C30.0887 17.3952 30.0887 20.4549 29.4401 23.4091Z" fill="white"/>
<path d="M25.5224 23.6364C25.2271 24.3102 24.7195 24.869 24.0769 25.2273C23.8753 25.3129 23.666 25.3791 23.4519 25.425C23.2087 25.3523 22.9769 25.3023 22.7701 25.2137C21.0473 24.5432 19.4435 23.6001 18.0201 22.4205C17.5973 22.0599 17.2001 21.6703 16.8315 21.2546C15.9211 20.2062 15.1566 19.0396 14.5587 17.7864C14.2678 17.1932 14.0224 16.5796 13.7724 15.9682C13.5451 15.4114 13.8815 14.8318 14.2269 14.4159C14.5651 14.0302 14.981 13.7204 15.4474 13.5068C15.6115 13.4244 15.7993 13.4019 15.9782 13.4434C16.1571 13.485 16.3159 13.5878 16.4269 13.7341C17.0076 14.3865 17.5194 15.0971 17.9542 15.8546C18.0912 16.0748 18.1381 16.3393 18.0852 16.5933C18.0323 16.8472 17.8836 17.071 17.6701 17.2182C17.5565 17.2977 17.4428 17.3887 17.3451 17.4773C17.2488 17.5486 17.1657 17.6363 17.0996 17.7364C17.0427 17.83 17.0081 17.9356 16.9986 18.0448C16.9892 18.154 17.0051 18.2639 17.0451 18.3659C17.4837 19.5727 18.1496 20.5796 19.1451 21.2864C19.482 21.5246 19.8449 21.7236 20.2269 21.8796C20.4764 22.0152 20.7566 22.0841 21.0406 22.0796C21.536 22.0205 21.6996 21.4727 22.0451 21.1909C22.2037 21.0611 22.3999 20.9859 22.6046 20.9765C22.8093 20.9671 23.0116 21.0239 23.1815 21.1387C23.5496 21.3659 23.9042 21.6227 24.2587 21.8727C24.6094 22.1121 24.947 22.37 25.2701 22.6455C25.4212 22.7552 25.5291 22.9144 25.5752 23.0954C25.6213 23.2763 25.6026 23.4677 25.5224 23.6364ZM20.6519 12.7455H20.361C20.4542 12.7409 20.5519 12.7455 20.6519 12.7455Z" fill="white"/>
<path d="M25.6814 19.5568C25.4541 19.5568 25.3428 19.3636 25.3269 19.1522C25.2973 18.7363 25.2746 18.3181 25.2178 17.9045C25.1195 17.2066 24.8765 16.537 24.5041 15.9386C24.1214 15.3152 23.6122 14.7791 23.0093 14.3649C22.4064 13.9507 21.7233 13.6676 21.0041 13.534C20.6769 13.4749 20.3428 13.4613 20.0132 13.4272C19.8041 13.4045 19.5291 13.3908 19.4837 13.1318C19.4769 13.0814 19.4809 13.0302 19.4955 12.9816C19.5101 12.933 19.5348 12.888 19.5682 12.8497C19.6015 12.8114 19.6427 12.7807 19.6888 12.7595C19.735 12.7384 19.7852 12.7274 19.8359 12.7272C19.8904 12.7241 19.9451 12.7241 19.9996 12.7272C20.993 12.7356 21.969 12.9889 22.8412 13.4646C23.7133 13.9403 24.4547 14.6238 24.9996 15.4545C25.4298 16.124 25.7218 16.8728 25.8587 17.6568C25.945 18.1477 25.9769 18.6522 26.0155 19.1522C26.0233 19.2012 26.0205 19.2513 26.0074 19.2992C25.9944 19.347 25.9713 19.3916 25.9397 19.4298C25.9081 19.4681 25.8687 19.4992 25.8242 19.5211C25.7797 19.5429 25.731 19.5551 25.6814 19.5568Z" fill="white"/>
<path d="M24.4512 18.4955C24.4499 18.563 24.4407 18.6302 24.4239 18.6955C24.4041 18.7612 24.3644 18.8192 24.3105 18.8616C24.2565 18.904 24.1908 18.9288 24.1222 18.9325C24.0537 18.9362 23.9857 18.9188 23.9274 18.8825C23.8691 18.8462 23.8235 18.7928 23.7966 18.7296C23.7716 18.6379 23.7601 18.5429 23.7625 18.4478C23.7678 17.9395 23.6672 17.4356 23.4671 16.9683C23.4216 16.8683 23.3716 16.766 23.3148 16.6683C22.9895 16.1075 22.5066 15.6547 21.9262 15.366C21.576 15.2007 21.2041 15.0859 20.8216 15.0251C20.6534 14.9978 20.4853 14.9819 20.3171 14.9592C20.2733 14.957 20.2304 14.9458 20.1912 14.9264C20.1519 14.907 20.117 14.8797 20.0886 14.8463C20.0603 14.8128 20.0391 14.7739 20.0264 14.732C20.0137 14.69 20.0098 14.6459 20.0148 14.6024C20.0148 14.5578 20.0243 14.5138 20.0425 14.4732C20.0608 14.4325 20.0874 14.3962 20.1207 14.3666C20.1539 14.337 20.1931 14.3147 20.2355 14.3013C20.278 14.2879 20.3228 14.2836 20.3671 14.2887C21.0344 14.3145 21.6882 14.4851 22.283 14.7887C23.0093 15.1542 23.6019 15.7396 23.9762 16.4614C24.187 16.8829 24.3282 17.3358 24.3944 17.8024C24.4066 17.8632 24.4157 17.9247 24.4216 17.9864C24.433 18.1228 24.4375 18.2592 24.4489 18.4274C24.4489 18.4433 24.4512 18.4637 24.4512 18.4955Z" fill="white"/>
<path d="M22.8946 18.1819C22.8818 18.2395 22.852 18.292 22.809 18.3325C22.7661 18.373 22.712 18.3997 22.6537 18.4092H22.6037C22.5293 18.414 22.4553 18.3944 22.3929 18.3534C22.3306 18.3124 22.2833 18.2522 22.2583 18.1819C22.2441 18.1446 22.235 18.1057 22.231 18.066C22.2191 17.9131 22.1963 17.7612 22.1628 17.6114C22.0953 17.3084 21.9231 17.0388 21.6765 16.8501C21.5573 16.7645 21.4243 16.6999 21.2833 16.6592C21.1037 16.6069 20.9151 16.6205 20.7378 16.5774C20.6502 16.5618 20.5723 16.5122 20.5212 16.4394C20.4701 16.3665 20.4499 16.2764 20.4651 16.1887C20.482 16.1047 20.529 16.0298 20.5972 15.9779C20.6653 15.926 20.7501 15.9008 20.8356 15.9069C21.8765 15.9819 22.6537 16.4819 22.8537 17.5978C22.8743 17.7014 22.8887 17.8061 22.8969 17.9114C22.9097 18.0012 22.9089 18.0924 22.8946 18.1819Z" fill="white"/>
</g>
<defs>
<clipPath id="clip0_175_103">
<rect width="40" height="40" fill="white"/>
</clipPath>
</defs>
</g>

<g id="vk">
<g clip-path="url(#clip0_175_114)">
<path d="M0 19.1666C0 10.1314 0 5.61375 2.80688 2.80688C5.61375 0 10.1314 0 19.1666 0H20.8333C29.8685 0 34.3862 0 37.193 2.80688C40 5.61375 40 10.1314 40 19.1666V20.8333C40 29.8685 40 34.3862 37.193 37.193C34.3862 40 29.8686 40 20.8334 40H19.1667C10.1315 40 5.61383 40 2.80695 37.1931C0 34.3862 0 29.8686 0 20.8334V19.1666Z" />
<path fill-rule="evenodd" clip-rule="evenodd" d="M10.8336 12.5H7.91625C7.08273 12.5 6.91602 12.8923 6.91602 13.3248C6.91602 14.0974 7.90508 17.929 11.5212 22.9966C13.932 26.4573 17.3284 28.3333 20.4191 28.3333C22.2736 28.3333 22.503 27.9166 22.503 27.1989V24.5833C22.503 23.7499 22.6787 23.5836 23.2658 23.5836C23.6985 23.5836 24.4403 23.7999 26.1711 25.4685C28.1491 27.4461 28.4752 28.3333 29.5878 28.3333H32.5052C33.3387 28.3333 33.7555 27.9166 33.5151 27.0944C33.252 26.2748 32.3076 25.0858 31.0544 23.6764C30.3744 22.873 29.3545 22.0078 29.0454 21.5752C28.6127 21.019 28.7363 20.7717 29.0454 20.2774C29.0454 20.2774 32.5998 15.2716 32.9706 13.5722C33.156 12.9541 32.9706 12.5 32.0884 12.5H29.171C28.4293 12.5 28.0873 12.8923 27.9018 13.3248C27.9018 13.3248 26.4183 16.9402 24.3166 19.2886C23.6366 19.9684 23.3276 20.1847 22.9566 20.1847C22.7713 20.1847 22.5028 19.9684 22.5028 19.3505V13.5722C22.5028 12.8305 22.2876 12.5 21.6693 12.5H17.0849C16.6214 12.5 16.3426 12.8441 16.3426 13.1704C16.3426 13.8734 17.3934 14.0355 17.5017 16.0131V20.3083C17.5017 21.2499 17.3316 21.4207 16.9607 21.4207C15.9717 21.4207 13.5659 17.7892 12.1391 13.6338C11.8597 12.8263 11.5792 12.5 10.8336 12.5Z" 
fill="white" />
</g>
<defs>
<clipPath id="clip0_175_114">
<rect width="40" height="40" fill="white"/>
</clipPath>
</defs>
</g>


<g id="burgermenu">
<path d="M3.5 6.5H21.5M3.5 12.5H21.5M3.5 18.5H21.5"  stroke-width="2.5" stroke-linecap="round" stroke-linejoin="round"/>
</g>

<g id="eye">
<path d="M12 5C11.2044 5 10.4413 5.31607 9.87868 5.87868C9.31607 6.44129 9 7.20435 9 8C9 8.79565 9.31607 9.55871 9.87868 10.1213C10.4413 10.6839 11.2044 11 12 11C12.7956 11 13.5587 10.6839 14.1213 10.1213C14.6839 9.55871 15 8.79565 15 8C15 7.20435 14.6839 6.44129 14.1213 5.87868C13.5587 5.31607 12.7956 5 12 5ZM12 13C10.6739 13 9.40215 12.4732 8.46447 11.5355C7.52678 10.5979 7 9.32608 7 8C7 6.67392 7.52678 5.40215 8.46447 4.46447C9.40215 3.52678 10.6739 3 12 3C13.3261 3 14.5979 3.52678 15.5355 4.46447C16.4732 5.40215 17 6.67392 17 8C17 9.32608 16.4732 10.5979 15.5355 11.5355C14.5979 12.4732 13.3261 13 12 13ZM12 0.5C7 0.5 2.73 3.61 1 8C2.73 12.39 7 15.5 12 15.5C17 15.5 21.27 12.39 23 8C21.27 3.61 17 0.5 12 0.5Z" />
</g>

<g id="eye-off">

<path d="M24 14c5.52 0 10 4.48 10 10 0 1.29-.26 2.52-.71 3.65l5.85 5.85c3.02-2.52 5.4-5.78 6.87-9.5-3.47-8.78-12-15-22.01-15-2.8 0-5.48.5-7.97 1.4l4.32 4.31c1.13-.44 2.36-.71 3.65-.71zm-20-5.45l4.56 4.56.91.91c-3.3 2.58-5.91 6.01-7.47 9.98 3.46 8.78 12 15 22 15 3.1 0 6.06-.6 8.77-1.69l.85.85 5.83 5.84 2.55-2.54-35.45-35.46-2.55 2.55zm11.06 11.05l3.09 3.09c-.09.43-.15.86-.15 1.31 0 3.31 2.69 6 6 6 .45 0 .88-.06 1.3-.15l3.09 3.09c-1.33.66-2.81 1.06-4.39 1.06-5.52 0-10-4.48-10-10 0-1.58.4-3.06 1.06-4.4zm8.61-1.57l6.3 6.3.03-.33c0-3.31-2.69-6-6-6l-.33.03z"/>
</g>

<g id="search">
<g clip-path="url(#clip0_175_79)">
<path d="M15.4795 17.684C13.5508 19.1823 11.1235 19.8891 8.6919 19.6606C6.26029 19.432 4.00722 18.2853 2.39143 16.4538C0.775644 14.6224 -0.0813587 12.244 -0.00507757 9.80285C0.0712035 7.36172 1.07503 5.04145 2.80201 3.31447C4.529 1.58748 6.84927 0.583655 9.2904 0.507374C11.7315 0.431093 14.11 1.2881 15.9414 2.90388C17.7728 4.51967 18.9196 6.77275 19.1481 9.20435C19.3767 11.636 18.6698 14.0632 17.1715 15.992L23.5915 22.388L21.8875 24.092L15.4915 17.684H15.4795ZM9.59954 17.3C10.5451 17.3 11.4813 17.1138 12.3549 16.7519C13.2284 16.3901 14.0221 15.8597 14.6907 15.1912C15.3593 14.5226 15.8896 13.7289 16.2515 12.8553C16.6133 11.9818 16.7995 11.0455 16.7995 10.1C16.7995 9.15447 16.6133 8.21822 16.2515 7.34467C15.8896 6.47113 15.3593 5.6774 14.6907 5.00882C14.0221 4.34024 13.2284 3.80989 12.3549 3.44806C11.4813 3.08622 10.5451 2.89999 9.59954 2.89999C7.68998 2.89999 5.85863 3.65856 4.50837 5.00882C3.15811 6.35908 2.39954 8.19043 2.39954 10.1C2.39954 12.0096 3.15811 13.8409 4.50837 15.1912C5.85863 16.5414 7.68998 17.3 9.59954 17.3Z" />
</g>
<defs>
<clipPath id="clip0_175_79">
<rect width="24" height="24" fill="white" transform="translate(0 0.5)"/>
</clipPath>
</defs>
</g>

<g id="bg_left">
<path fill-rule="evenodd" clip-rule="evenodd" d="M137.047 676.235C136.83 669.764 137.237 665.414 137.95 666.568C138.66 667.722 139.773 668.136 140.421 667.489C141.067 666.841 140.4 665.113 138.938 663.65C135.11 659.817 134.377 663.104 136.043 676.635L137.44 688L137.047 676.235ZM30.3884 667.741C31.9129 665.272 28.5461 661.902 26.0804 663.428C23.3109 665.141 23.7579 669.642 26.6985 669.642C28.0833 669.642 29.7423 668.787 30.3884 667.741ZM137.021 639.045C137.017 627.505 136.734 623.012 136.394 629.059C136.051 635.107 136.053 644.549 136.399 650.04C136.745 655.532 137.024 650.584 137.021 639.045ZM145.626 617.898C148.464 616.438 151.963 613.999 153.404 612.479C155.04 610.752 153.076 611.266 148.165 613.852C138.344 619.024 138.695 618.781 139.659 619.746C140.103 620.192 142.788 619.359 145.626 617.898ZM134.195 619.83C134.195 618.632 123.503 613.326 122.705 614.125C122.326 614.504 124.755 616.123 128.106 617.723C131.455 619.321 134.195 620.268 134.195 619.83ZM12.2921 611.322C19.4709 606.995 22.7888 605.883 24.9402 607.089C28.3558 609.003 33.5368 605.601 32.2638 602.279C31.4745 600.223 35.0369 597.805 52.9952 588.196C57.7973 585.626 61.9743 582.882 62.2764 582.097C62.5786 581.312 63.7573 581.027 64.8958 581.466C66.4639 582.071 66.8445 571.983 66.4708 539.775L65.9767 497.289L92.6645 482.08C107.343 473.715 123.044 464.713 127.554 462.073L135.756 457.273L146.763 463.136C158.688 469.488 177.572 480.051 194.877 490.052C200.879 493.521 205.791 495.756 205.791 495.016C205.791 494.276 202.45 491.902 198.369 489.738C194.289 487.575 186.626 483.223 181.344 480.071C176.061 476.917 163.914 469.856 154.35 464.382L136.96 454.429L128.157 459.16C120.271 463.398 102.248 473.815 85.3005 483.931C81.9391 485.938 75.8954 489.32 71.8703 491.448L64.5518 495.317L49.5254 486.755C40.6895 481.719 33.6031 476.39 32.3284 473.82C30.659 470.46 29.0281 469.571 25.2737 469.975C22.588 470.266 19.4761 469.759 18.3568 468.851C15.844 466.809 3.42291 459.833 2.30182 459.833C1.84955 459.833 1.48114 460.62 1.48114 461.581C1.48114 462.543 2.23907 463.33 3.16632 463.33C6.66754 463.33 21.5751 474.063 22.8447 477.495C23.8121 480.118 25.4587 480.948 28.9774 480.593C31.6229 480.326 35.7511 481.35 38.1522 482.87C40.5532 484.389 47.2326 488.337 52.9952 491.642L63.4726 497.649L63.9406 538.046L64.4086 578.441L59.575 581.779C50.1488 588.288 31.4257 597.957 28.2475 597.957C26.4733 597.957 24.0706 599.483 22.9075 601.347C21.7446 603.213 18.2154 605.984 15.067 607.505C9.25372 610.315 -0.202148 617.079 1.58423 617.151C2.1203 617.172 6.93988 614.549 12.2921 611.322ZM252.099 606.237C254.707 603.075 254.219 599.469 250.903 597.375C247.044 594.938 242.102 598.94 242.815 603.923C243.407 608.079 249.363 609.563 252.099 606.237ZM109.748 606.157C109.748 605.676 103.266 601.567 95.3414 597.025C87.417 592.485 78.712 587.225 75.9949 585.341C73.2795 583.456 70.6636 582.305 70.1851 582.786C69.4098 583.562 74.074 586.459 102.326 602.751C106.407 605.106 109.748 606.638 109.748 606.157ZM178.288 598.705C184.815 595.16 184.419 593.682 177.851 597.083C174.97 598.574 172.612 600.169 172.612 600.625C172.612 601.749 172.799 601.686 178.288 598.705ZM213.649 581.496C210.768 579.183 208.017 577.681 207.537 578.158C206.386 579.302 214.342 585.72 216.899 585.709C217.992 585.704 216.53 583.809 213.649 581.496ZM197.496 576.836C201.511 574.495 201.382 569.526 197.205 565.743C194.535 563.323 193.122 563.104 190.22 564.659C185.578 567.147 185.423 574.483 189.96 576.915C193.979 579.069 193.662 579.072 197.496 576.836ZM86.5438 575.576C89.2557 573.85 87.5253 567.043 84.0346 565.702C82.566 565.138 80.2871 565.573 78.9669 566.669C72.7835 571.808 79.6968 579.933 86.5438 575.576ZM208.534 535.889C208.534 513.771 208.283 504.964 207.979 516.317C207.673 527.671 207.675 545.767 207.981 556.53C208.286 567.295 208.536 558.006 208.534 535.889ZM86.5613 511.848C90.5881 506.639 90.4921 503.447 86.2505 501.511C80.233 498.766 76.5694 500.767 76.5694 506.799C76.5694 513.334 82.9291 516.549 86.5613 511.848ZM416.089 509.538C419.382 506.239 418.214 503.543 413.49 503.543C411.299 503.543 410.101 504.742 410.101 506.937C410.101 511.666 412.793 512.836 416.089 509.538ZM305.908 511.119C308.466 508.557 306.994 503.543 303.683 503.543C299.569 503.543 297.966 505.772 299.396 509.505C300.489 512.36 303.84 513.191 305.908 511.119ZM195.045 508.022C194.711 506.419 193.655 505.148 192.694 505.199C190.103 505.337 190.578 509.248 193.298 510.156C194.767 510.645 195.42 509.846 195.045 508.022ZM361.206 475.569C361.206 472.935 360.295 471.991 358.15 472.404C356.47 472.729 355.094 474.152 355.094 475.569C355.094 476.985 356.47 478.408 358.15 478.733C360.295 479.146 361.206 478.202 361.206 475.569ZM140.401 477.165C142.2 474.248 138.154 470.906 135.744 473.318C133.729 475.336 134.99 479.065 137.688 479.065C138.535 479.065 139.755 478.21 140.401 477.165ZM250.858 475.437C250.514 474.404 249.485 473.558 248.574 473.558C247.662 473.558 246.634 474.404 246.29 475.437C245.946 476.471 246.972 477.317 248.574 477.317C250.175 477.317 251.202 476.471 250.858 475.437ZM250.757 416.714C251.956 416.228 252.939 413.995 252.939 411.752C252.939 407.36 250.393 405.728 245.518 406.994C242.004 407.907 241.481 412.692 244.557 415.773C246.791 418.009 247.343 418.093 250.757 416.714ZM31.148 415.271C34.2546 411.524 32.0002 407.381 26.8558 407.381C22.0239 407.381 20.7491 411.986 24.5315 415.773C27.2714 418.516 28.5391 418.42 31.148 415.271ZM142.263 413.584C143.606 410.082 141.613 407.381 137.688 407.381C133.67 407.381 132.084 409.64 133.504 413.343C134.836 416.822 140.957 416.99 142.263 413.584ZM196.99 383.861C200.332 379.829 198.452 375.098 193.265 374.497C187.206 373.792 184.441 380.509 189.322 384.081C193.337 387.02 194.397 386.991 196.99 383.861ZM88.7232 383.861C93.1482 378.523 86.4007 370.757 79.6061 373.367C76.1049 374.713 74.4424 381.21 76.8558 384.123C79.3773 387.166 86.1074 387.017 88.7232 383.861ZM640.604 287.66V248.365L646.005 245.569C648.976 244.03 651.047 242.413 650.607 241.973C650.168 241.532 647.35 242.574 644.345 244.287L638.881 247.401L638.868 287.178C638.863 309.054 639.251 326.954 639.731 326.954C640.211 326.954 640.604 309.272 640.604 287.66ZM87.796 320.71C91.0422 317.458 91.0702 317.226 88.732 312.851C86.5684 308.805 79.627 308.403 76.5257 312.145C74.8318 314.189 74.7725 315.836 76.2759 319.139C78.5216 324.073 83.7272 324.782 87.796 320.71ZM196.428 319.086C197.97 315.063 195.677 310.891 192.284 311.547C188.495 312.276 187.169 318.149 190.34 320.161C193.749 322.324 195.291 322.053 196.428 319.086ZM140.616 285.69C141.852 282.466 137.628 279.107 135.288 281.45C133.381 283.359 135.131 288.489 137.688 288.489C138.709 288.489 140.026 287.23 140.616 285.69ZM30.5804 285.749C31.1584 284.242 30.7743 282.151 29.7266 281.102C27.205 278.577 22.2684 282.52 23.5991 285.994C24.8773 289.326 29.269 289.173 30.5804 285.749ZM72.2038 245.455C74.1246 243.966 80.0182 240.448 85.3005 237.638C90.5829 234.829 104.591 226.828 116.429 219.859L137.955 207.188L137.765 165.845L137.574 124.501L145.053 120.262C151.649 116.524 207.748 83.8169 208.831 83.079C209.502 82.621 209.682 30.2982 209.067 13.989C208.76 5.81519 208.093 17.5977 207.586 40.1714L206.664 81.2135L171.82 101.255L136.975 121.297L126.417 115.554C116.785 110.312 79.4716 88.6285 70.021 82.7801C66.1304 80.3726 66.092 79.9494 66.092 40.1749C66.092 14.559 65.4598 0.00177002 64.3457 0.00177002C63.2333 0.00177002 62.5855 14.7426 62.5628 40.6522L62.5244 81.3027L33.109 98.3497C16.9301 107.726 2.6441 115.397 1.36414 115.397C-0.308777 115.397 -0.430969 115.93 0.931091 117.294C2.29315 118.657 6.68671 116.996 16.5599 111.389C24.1142 107.099 33.0444 102.025 36.4059 100.114C39.7674 98.2045 47.47 93.7181 53.5242 90.1462L64.5308 83.649L98.9265 103.322C117.843 114.143 133.87 123.822 134.539 124.833C135.21 125.843 135.809 144.135 135.872 165.483L135.987 204.294L131.162 207.627C128.508 209.459 120.836 213.986 114.113 217.685C107.39 221.387 94.2099 228.996 84.8221 234.596C75.4361 240.196 66.5181 244.779 65.0041 244.779C63.4918 244.779 54.9684 240.486 46.0644 235.239C31.3837 226.588 29.9553 225.286 30.7254 221.252C31.4222 217.603 30.9001 216.804 27.8232 216.804C25.7609 216.804 23.613 218.004 23.0507 219.472C22.4185 221.119 21.273 221.569 20.0489 220.647C14.4103 216.395 1.48114 209.877 1.48114 211.285C1.48114 214.115 60.7991 248.304 65.5629 248.22C67.2952 248.19 70.2829 246.945 72.2038 245.455ZM802.028 238.603C803.931 237.163 804.45 236.037 803.214 236.037C802 236.037 799.83 237.217 798.389 238.659C795.041 242.011 797.58 241.973 802.028 238.603ZM673.536 229.84C678.683 226.629 683.397 223.467 684.014 222.815C685.812 220.909 668.018 230.244 664.178 233.218C658.032 237.983 663.864 235.878 673.536 229.84ZM960.936 229.861C962.801 228.45 963.539 227.295 962.579 227.295C961.618 227.295 959.308 228.45 957.443 229.861C955.58 231.274 954.84 232.428 955.8 232.428C956.76 232.428 959.072 231.274 960.936 229.861ZM824.202 225.461L828.325 221.876L822.649 224.63C817.065 227.34 815.474 229.043 818.527 229.043C819.38 229.043 821.935 227.431 824.202 225.461ZM744.505 223.798C741.624 221.887 738.481 220.324 737.52 220.324C736.56 220.324 738.131 221.887 741.013 223.798C743.894 225.709 747.037 227.272 747.998 227.272C748.958 227.272 747.387 225.709 744.505 223.798ZM913.078 222.85C914.692 220.903 914.784 219.623 913.41 218.247C911.171 216.005 906.032 217.547 906.032 220.46C906.032 221.834 906.947 221.717 908.903 220.091C911.456 217.97 911.636 218.142 910.532 221.626C909.079 226.209 909.947 226.627 913.078 222.85ZM803.586 224.38C805.749 222.214 804.77 217.185 801.974 216.112C798.031 214.596 796.019 216.341 796.019 221.278C796.019 224.251 796.99 225.546 799.22 225.546C800.982 225.546 802.947 225.022 803.586 224.38ZM583.729 222.612C584.365 220.953 583.687 218.514 582.17 216.993C579.755 214.577 579.199 214.594 576.627 217.168C575.056 218.741 574.245 221.271 574.827 222.787C576.227 226.441 582.308 226.323 583.729 222.612ZM141 222.385C143.087 218.483 141.966 216.804 137.276 216.804C134.857 216.804 134.104 217.839 134.51 220.602C135.25 225.635 138.749 226.597 141 222.385ZM691.245 221.838C691.245 220.82 693.012 218.516 695.174 216.717C699.04 213.5 698.998 213.495 692.612 216.437C685.53 219.7 684.611 221.139 688.626 222.682C690.066 223.235 691.245 222.855 691.245 221.838ZM732.282 217.635C726.978 213.328 722.003 210.8 723.451 213.145C724.107 214.21 727.149 216.294 730.209 217.776C735.374 220.277 735.523 220.266 732.282 217.635ZM707.41 210.225C711.48 207.7 712.79 207.59 715.876 209.519C721.179 212.835 721.862 210.823 716.602 207.373C712.357 204.588 711.885 204.653 705.665 208.886C698.424 213.811 699.859 214.914 707.41 210.225ZM712.837 164.786C712.706 145.796 712.944 128.662 713.366 126.711C713.867 124.385 719.969 119.892 731.064 113.673C740.377 108.452 755.426 99.6243 764.505 94.0538C773.584 88.4834 782.069 83.9253 783.363 83.9253C788.126 83.9253 795.787 89.2422 796.332 92.9261C796.758 95.804 798.155 96.7586 802.131 96.881C810.321 97.1328 849.721 120.292 852.95 126.753C854.998 130.851 855.531 138.355 855.372 160.855C855.087 201.016 855.905 199.852 857.05 158.463C857.939 126.335 858.273 123.537 861.503 121.208C870.797 114.508 905.154 96.1624 908.43 96.1501C910.688 96.1414 912.946 94.4088 914.189 91.7249L916.232 87.3137L909.385 91.3018C873.563 112.169 858.075 120.642 855.76 120.642C853.268 120.642 805.049 93.6674 803.004 91.1287C802.524 90.5325 798.398 88.2841 793.836 86.1335L785.542 82.2224V41.1121C785.542 16.4473 784.882 0.00177002 783.89 0.00177002C782.896 0.00177002 782.297 16.171 782.385 40.6452L782.531 81.2887L774.481 86.0234C770.053 88.6285 762.282 93.0747 757.214 95.9019C752.145 98.7308 739.916 105.826 730.038 111.669L712.079 122.294L676.777 101.628L641.477 80.96V40.4809V0H634.826C630.836 0.00170898 628.606 0.701111 629.254 1.75018C629.847 2.71179 632.25 3.49854 634.595 3.49854H638.858L638.903 43.2748L638.949 83.0511L658.548 94.0363C669.328 100.079 682.077 107.342 686.879 110.176C691.682 113.01 698.949 117.058 703.032 119.17L710.454 123.011V161.165C710.454 182.151 711.044 199.318 711.763 199.317C712.483 199.315 712.966 183.775 712.837 164.786ZM86.9333 194.657C88.917 193.265 90.5393 190.645 90.5393 188.83C90.5393 181.266 77.8755 178.456 75.6369 185.522C73.0245 193.764 80.0758 199.465 86.9333 194.657ZM636.846 192.526C640.299 190.337 638.566 184.459 634.468 184.459C631.965 184.459 631 185.634 631 188.685C631 193.348 633.235 194.815 636.846 192.526ZM528.595 192.556C530.106 191.573 530.527 189.632 529.755 187.198C527.928 181.436 519.241 182.784 519.241 188.83C519.241 193.514 524.127 195.46 528.595 192.556ZM637.594 130.898C644.64 126.95 638.598 115.29 631.482 119.103C629.776 120.018 628.38 122.677 628.38 125.013C628.38 130.157 633.303 133.302 637.594 130.898ZM748.522 129.034C753.891 123.658 746.774 115.855 740.929 120.712C737.416 123.632 737.761 127.174 741.771 129.323C745.981 131.578 745.981 131.578 748.522 129.034ZM529.849 126.861C531.244 121.296 529.62 118.893 524.464 118.893C519.337 118.893 516.253 123.679 518.577 128.027C521.132 132.806 528.552 132.038 529.849 126.861ZM955.8 97.0838C951.958 94.7147 948.029 92.7758 947.069 92.7758C946.108 92.7758 948.466 94.7147 952.308 97.0838C956.149 99.4529 960.078 101.392 961.039 101.392C961.999 101.392 959.642 99.4529 955.8 97.0838ZM31.8256 97.0051C35.6777 93.1464 32.6078 87.4221 26.6846 87.4221C21.7095 87.4221 19.2753 91.7773 21.9086 95.9648C24.3918 99.9127 28.492 100.343 31.8256 97.0051ZM692.404 95.1729C693.861 91.3753 690.166 87.8033 687.52 90.4521C685.285 92.6901 686.67 97.9125 689.499 97.9125C690.52 97.9125 691.826 96.6799 692.404 95.1729ZM140.401 94.2636C141.046 93.2181 140.768 91.5553 139.783 90.5692C137.579 88.3627 134.195 90.2266 134.195 93.6447C134.195 96.589 138.69 97.0366 140.401 94.2636ZM928.374 41.5264C928.016 -0.744812 927.418 4.15948 926.564 56.3896C926.317 71.5378 926.702 83.9288 927.424 83.9271C928.145 83.9271 928.571 64.8449 928.374 41.5264ZM582.299 36.6589C589.108 34.08 589.338 26.1387 582.708 22.5859C576.028 19.0069 569.417 24.4969 571.706 31.7214C573.109 36.1431 577.837 38.3478 582.299 36.6589ZM803.441 34.83C809.512 31.2895 805.318 21.6995 798.286 23.0423C794.521 23.7609 793.168 30.6566 796.1 34.1918C798.55 37.1484 799.348 37.2166 803.441 34.83ZM30.2906 34.3143C34.3907 31.3123 33.116 23.7591 28.3942 23.0842C23.7684 22.4216 20.0734 26.7751 21.4844 31.2283C22.9058 35.7112 26.6095 37.0103 30.2906 34.3143ZM693.499 33.8789C695.558 31.8158 694.888 24.8221 692.555 24.0353C687.674 22.3918 684.066 24.8799 684.602 29.5167C685.124 34.0135 690.655 36.7253 693.499 33.8789ZM140.81 32.8928C143.997 29.702 143.363 26.602 139.258 25.2977C134.393 23.7521 131.022 27.0688 133.486 30.98C135.929 34.858 138.243 35.463 140.81 32.8928ZM912.682 29.5935C912.338 28.5602 911.311 27.714 910.398 27.714C909.485 27.714 908.458 28.5602 908.114 29.5935C907.77 30.6268 908.797 31.4731 910.398 31.4731C911.999 31.4731 913.026 30.6268 912.682 29.5935ZM861.212 4.08081C863.983 1.3078 861.858 0.00177002 854.572 0.00177002C848.354 0.00177002 846.974 0.535034 847.774 2.62439C848.789 5.26971 858.926 6.36945 861.212 4.08081ZM527.258 1.61554C529.047 0.479065 528.41 0.0472412 524.916 0.0280151C519.702 0 518.762 0.856689 522.455 2.27466C523.742 2.76947 525.904 2.47223 527.258 1.61554ZM86.1737 1.75018C86.811 0.716858 84.8885 0.0122681 81.4746 0.0280151C77.102 0.0490112 76.3336 0.466797 78.3156 1.75018C81.7103 3.94617 84.8186 3.94617 86.1737 1.75018Z" fill="#00A651" fill-opacity="0.1"/>
</g>

<g id="bg_right">
<path fill-rule="evenodd" clip-rule="evenodd" d="M771.919 11.0126C772.121 17.0696 771.741 21.1415 771.075 20.0613C770.411 18.9812 769.371 18.5933 768.766 19.1988C768.162 19.806 768.785 21.423 770.151 22.7928C773.729 26.3802 774.414 23.3034 772.857 10.6378L771.552 0L771.919 11.0126ZM871.6 18.9632C870.175 21.274 873.321 24.4294 875.626 23.0006C878.214 21.3968 877.796 17.1842 875.048 17.1842C873.754 17.1842 872.203 17.9845 871.6 18.9632ZM771.943 45.8245C771.947 56.626 772.211 60.8321 772.529 55.1711C772.849 49.5101 772.847 40.6725 772.524 35.532C772.201 30.3915 771.94 35.023 771.943 45.8245ZM763.901 65.6191C761.249 66.9856 757.978 69.2687 756.632 70.6909C755.103 72.3078 756.939 71.8267 761.528 69.4062C770.706 64.5651 770.378 64.7926 769.477 63.8892C769.063 63.4719 766.553 64.2509 763.901 65.6191ZM774.584 63.8107C774.584 64.9317 784.577 69.8988 785.322 69.1509C785.677 68.7957 783.406 67.2802 780.275 65.7828C777.145 64.2869 774.584 63.3999 774.584 63.8107ZM888.512 71.7743C881.803 75.8249 878.702 76.8657 876.691 75.7365C873.499 73.9444 868.657 77.1292 869.847 80.2388C870.585 82.1634 867.255 84.4268 850.472 93.4215C845.984 95.8273 842.08 98.3951 841.798 99.1299C841.515 99.8647 840.414 100.132 839.35 99.7207C837.884 99.1545 837.529 108.598 837.878 138.745L838.34 178.514L813.398 192.751C799.679 200.581 785.006 209.007 780.79 211.479L773.125 215.971L762.838 210.484C751.694 204.538 734.045 194.65 717.872 185.288C712.263 182.041 707.672 179.95 707.672 180.642C707.672 181.334 710.794 183.557 714.608 185.583C718.422 187.607 725.583 191.681 730.52 194.632C735.457 197.584 746.809 204.192 755.747 209.317L772 218.634L780.227 214.205C787.597 210.238 804.441 200.487 820.28 191.018C823.421 189.139 829.07 185.974 832.832 183.982L839.671 180.36L853.715 188.375C861.972 193.088 868.595 198.077 869.787 200.482C871.347 203.628 872.871 204.459 876.38 204.081C878.89 203.81 881.798 204.284 882.844 205.134C885.193 207.045 896.801 213.575 897.849 213.575C898.271 213.575 898.616 212.839 898.616 211.938C898.616 211.038 897.907 210.302 897.041 210.302C893.769 210.302 879.836 200.255 878.65 197.042C877.746 194.587 876.207 193.81 872.918 194.142C870.446 194.393 866.588 193.434 864.344 192.011C862.1 190.589 855.857 186.894 850.472 183.801L840.68 178.177L840.242 140.364L839.805 102.552L844.322 99.4278C853.132 93.3348 870.63 84.2844 873.6 84.2844C875.259 84.2844 877.504 82.8557 878.591 81.1111C879.678 79.3648 882.976 76.7708 885.919 75.347C891.352 72.717 900.189 66.385 898.519 66.3179C898.018 66.2983 893.514 68.7532 888.512 71.7743ZM664.393 76.5335C661.956 79.4941 662.412 82.8688 665.511 84.8294C669.118 87.1108 673.736 83.3646 673.07 78.7004C672.517 74.8102 666.95 73.4207 664.393 76.5335ZM797.432 76.6088C797.432 77.0589 803.49 80.9048 810.896 85.1567C818.302 89.4069 826.437 94.3298 828.977 96.0941C831.515 97.8583 833.959 98.9352 834.406 98.4851C835.131 97.7585 830.772 95.0466 804.368 79.7969C800.554 77.5924 797.432 76.1587 797.432 76.6088ZM733.376 83.5839C727.276 86.903 727.646 88.2859 733.784 85.1027C736.477 83.7067 738.68 82.2141 738.68 81.787C738.68 80.7346 738.505 80.7936 733.376 83.5839ZM700.328 99.6929C703.021 101.858 705.591 103.264 706.04 102.817C707.115 101.747 699.68 95.7389 697.291 95.7487C696.269 95.7536 697.635 97.5277 700.328 99.6929ZM715.424 104.054C711.672 106.246 711.793 110.897 715.697 114.439C718.192 116.704 719.512 116.908 722.225 115.453C726.562 113.124 726.708 106.257 722.468 103.981C718.711 101.965 719.008 101.961 715.424 104.054ZM819.118 105.234C816.583 106.85 818.201 113.221 821.463 114.476C822.836 115.005 824.965 114.597 826.199 113.571C831.978 108.761 825.517 101.156 819.118 105.234ZM705.108 142.383C705.108 163.086 705.343 171.33 705.627 160.703C705.913 150.075 705.911 133.137 705.625 123.062C705.34 112.985 705.107 121.681 705.108 142.383ZM819.102 164.886C815.338 169.762 815.428 172.75 819.392 174.562C825.016 177.131 828.44 175.259 828.44 169.613C828.44 163.495 822.496 160.486 819.102 164.886ZM511.132 167.048C508.054 170.137 509.146 172.66 513.561 172.66C515.609 172.66 516.728 171.538 516.728 169.484C516.728 165.057 514.212 163.962 511.132 167.048ZM614.105 165.569C611.714 167.967 613.09 172.66 616.184 172.66C620.029 172.66 621.527 170.574 620.19 167.08C619.169 164.407 616.037 163.63 614.105 165.569ZM717.715 168.467C718.027 169.968 719.014 171.158 719.912 171.11C722.334 170.981 721.89 167.32 719.347 166.471C717.975 166.012 717.364 166.76 717.715 168.467ZM562.424 198.846C562.424 201.31 563.276 202.194 565.28 201.808C566.85 201.504 568.136 200.171 568.136 198.846C568.136 197.52 566.85 196.188 565.28 195.884C563.276 195.497 562.424 196.381 562.424 198.846ZM768.784 197.352C767.103 200.081 770.884 203.211 773.136 200.952C775.02 199.063 773.841 195.573 771.32 195.573C770.528 195.573 769.388 196.373 768.784 197.352ZM665.553 198.968C665.875 199.936 666.836 200.728 667.688 200.728C668.54 200.728 669.501 199.936 669.823 198.968C670.144 198.001 669.185 197.209 667.688 197.209C666.192 197.209 665.232 198.001 665.553 198.968ZM665.648 253.937C664.527 254.392 663.608 256.482 663.608 258.581C663.608 262.692 665.988 264.219 670.544 263.034C673.828 262.18 674.317 257.701 671.442 254.817C669.354 252.724 668.839 252.645 665.648 253.937ZM870.89 255.287C867.986 258.794 870.093 262.673 874.901 262.673C879.417 262.673 880.608 258.362 877.073 254.817C874.513 252.249 873.328 252.339 870.89 255.287ZM767.044 256.866C765.789 260.144 767.651 262.673 771.32 262.673C775.075 262.673 776.557 260.558 775.23 257.092C773.985 253.835 768.265 253.678 767.044 256.866ZM715.897 284.688C712.774 288.462 714.531 292.891 719.378 293.454C725.041 294.113 727.625 287.826 723.063 284.482C719.311 281.731 718.321 281.759 715.897 284.688ZM817.081 284.688C812.946 289.685 819.252 296.954 825.602 294.511C828.874 293.251 830.428 287.169 828.172 284.443C825.816 281.595 819.526 281.734 817.081 284.688ZM301.305 374.737V411.519L296.257 414.136C293.481 415.576 291.545 417.09 291.957 417.502C292.366 417.915 295 416.939 297.809 415.336L302.915 412.421L302.927 375.188C302.932 354.711 302.569 337.956 302.121 337.956C301.672 337.956 301.305 354.507 301.305 374.737ZM817.948 343.8C814.914 346.844 814.888 347.062 817.073 351.157C819.095 354.944 825.582 355.32 828.481 351.818C830.064 349.905 830.119 348.363 828.714 345.271C826.615 340.653 821.75 339.989 817.948 343.8ZM716.423 345.321C714.982 349.086 717.125 352.991 720.295 352.378C723.837 351.695 725.076 346.198 722.112 344.314C718.926 342.29 717.485 342.543 716.423 345.321ZM768.583 376.581C767.428 379.599 771.375 382.743 773.562 380.55C775.344 378.763 773.709 373.961 771.32 373.961C770.365 373.961 769.135 375.139 768.583 376.581ZM871.42 376.525C870.88 377.936 871.239 379.894 872.218 380.876C874.575 383.239 879.188 379.548 877.945 376.296C876.75 373.177 872.646 373.321 871.42 376.525ZM832.52 414.242C830.725 415.637 825.217 418.93 820.28 421.56C815.343 424.19 802.251 431.679 791.188 438.202L771.07 450.062L771.248 488.761L771.426 527.462L764.436 531.429C758.272 534.928 705.843 565.544 704.831 566.234C704.204 566.663 704.036 615.64 704.61 630.906C704.898 638.557 705.521 627.528 705.994 606.398L706.856 567.98L739.421 549.22L771.986 530.46L781.853 535.836C790.855 540.743 825.727 561.04 834.56 566.514C838.196 568.768 838.232 569.164 838.232 606.394C838.232 630.372 838.823 643.998 839.864 643.998C840.903 643.998 841.509 630.2 841.53 605.948L841.566 567.897L869.057 551.94C884.177 543.163 897.529 535.983 898.725 535.983C900.289 535.983 900.403 535.484 899.13 534.208C897.857 532.931 893.751 534.486 884.523 539.734C877.463 543.751 869.117 548.5 865.976 550.289C862.834 552.076 855.635 556.275 849.977 559.619L839.691 565.701L807.545 547.286C789.866 537.157 774.888 528.097 774.262 527.151C773.636 526.205 773.076 509.083 773.017 489.1L772.909 452.771L777.419 449.652C779.899 447.936 787.069 443.699 793.352 440.236C799.635 436.772 811.953 429.649 820.727 424.407C829.499 419.165 837.834 414.876 839.249 414.876C840.662 414.876 848.628 418.893 856.949 423.805C870.669 431.903 872.004 433.122 871.285 436.898C870.633 440.313 871.121 441.061 873.997 441.061C875.924 441.061 877.932 439.938 878.457 438.564C879.048 437.022 880.119 436.601 881.263 437.464C886.532 441.444 898.616 447.545 898.616 446.228C898.616 443.578 843.178 411.576 838.726 411.655C837.107 411.683 834.315 412.848 832.52 414.242ZM150.441 420.656C148.662 422.005 148.177 423.059 149.333 423.059C150.467 423.059 152.496 421.954 153.842 420.604C156.971 417.466 154.598 417.502 150.441 420.656ZM270.527 428.859C265.717 431.865 261.311 434.824 260.735 435.435C259.054 437.218 275.684 428.481 279.273 425.697C285.017 421.237 279.566 423.208 270.527 428.859ZM1.92929 428.839C0.186312 430.16 -0.504023 431.242 0.393575 431.242C1.29117 431.242 3.45031 430.16 5.19328 428.839C6.93462 427.517 7.62659 426.437 6.72899 426.437C5.83139 426.437 3.67063 427.517 1.92929 428.839ZM129.718 432.958L125.865 436.313L131.169 433.736C136.388 431.199 137.875 429.605 135.022 429.605C134.224 429.605 131.836 431.114 129.718 432.958ZM204.201 434.515C206.894 436.304 209.831 437.767 210.729 437.767C211.626 437.767 210.158 436.304 207.465 434.515C204.772 432.726 201.834 431.263 200.937 431.263C200.039 431.263 201.508 432.726 204.201 434.515ZM46.6558 435.402C45.1478 437.225 45.0614 438.423 46.3457 439.711C48.438 441.809 53.2409 440.366 53.2409 437.639C53.2409 436.353 52.3858 436.462 50.5579 437.984C48.1719 439.97 48.0038 439.809 49.0353 436.547C50.3931 432.258 49.582 431.867 46.6558 435.402ZM148.985 433.97C146.963 435.997 147.879 440.704 150.492 441.709C154.177 443.128 156.057 441.495 156.057 436.873C156.057 434.091 155.149 432.878 153.065 432.878C151.419 432.878 149.583 433.369 148.985 433.97ZM354.459 435.624C353.865 437.178 354.498 439.461 355.916 440.884C358.173 443.146 358.692 443.13 361.096 440.721C362.565 439.248 363.322 436.88 362.779 435.461C361.47 432.04 355.787 432.152 354.459 435.624ZM768.224 435.837C766.274 439.49 767.322 441.061 771.705 441.061C773.965 441.061 774.669 440.092 774.29 437.506C773.598 432.795 770.328 431.895 768.224 435.837ZM253.977 436.349C253.977 437.302 252.325 439.459 250.305 441.143C246.691 444.154 246.731 444.159 252.699 441.405C259.318 438.351 260.177 437.004 256.425 435.559C255.078 435.042 253.977 435.397 253.977 436.349ZM215.625 440.284C220.581 444.315 225.231 446.681 223.878 444.487C223.264 443.49 220.421 441.539 217.562 440.151C212.734 437.811 212.596 437.821 215.625 440.284ZM238.869 447.22C235.065 449.583 233.841 449.686 230.957 447.881C226.001 444.776 225.363 446.66 230.278 449.889C234.246 452.496 234.686 452.435 240.5 448.473C247.268 443.863 245.926 442.83 238.869 447.22ZM233.797 489.753C233.919 507.528 233.697 523.567 233.303 525.393C232.834 527.57 227.132 531.776 216.762 537.597C208.059 542.484 193.994 550.747 185.509 555.961C177.025 561.175 169.095 565.442 167.885 565.442C163.433 565.442 156.274 560.465 155.765 557.017C155.366 554.323 154.061 553.429 150.345 553.315C142.691 553.079 105.868 531.401 102.85 525.354C100.936 521.518 100.438 514.493 100.587 493.432C100.853 455.84 100.089 456.93 99.0185 495.671C98.1878 525.745 97.8761 528.363 94.8569 530.543C86.1714 536.815 54.0618 553.987 51.0002 553.999C48.89 554.007 46.7798 555.629 45.6179 558.141L43.7084 562.27L50.1075 558.537C83.5863 539.005 98.0605 531.074 100.225 531.074C102.553 531.074 147.618 556.323 149.529 558.699C149.978 559.257 153.834 561.362 158.097 563.375L165.849 567.036V605.517C165.849 628.605 166.466 643.998 167.393 643.998C168.321 643.998 168.881 628.863 168.799 605.954L168.662 567.91L176.186 563.478C180.325 561.04 187.587 556.878 192.323 554.231C197.061 551.583 208.49 544.942 217.722 539.473L234.505 529.527L267.498 548.872L300.489 568.218V606.108V644H306.705C310.434 643.998 312.518 643.344 311.913 642.362C311.358 641.462 309.112 640.725 306.92 640.725H302.937L302.894 603.493L302.852 566.26L284.534 555.978C274.46 550.322 262.545 543.523 258.057 540.87C253.569 538.217 246.776 534.429 242.961 532.452L236.025 528.856V493.142C236.025 473.498 235.473 457.429 234.801 457.43C234.128 457.432 233.676 471.978 233.797 489.753ZM818.754 461.792C816.9 463.095 815.384 465.548 815.384 467.247C815.384 474.326 827.219 476.956 829.311 470.343C831.753 462.628 825.163 457.291 818.754 461.792ZM304.817 463.787C301.59 465.836 303.209 471.338 307.039 471.338C309.378 471.338 310.281 470.238 310.281 467.382C310.281 463.018 308.192 461.645 304.817 463.787ZM405.986 463.759C404.574 464.679 404.181 466.495 404.902 468.774C406.609 474.168 414.728 472.906 414.728 467.247C414.728 462.862 410.162 461.041 405.986 463.759ZM304.118 521.473C297.533 525.169 303.18 536.083 309.83 532.514C311.425 531.658 312.729 529.169 312.729 526.982C312.729 522.167 308.128 519.223 304.118 521.473ZM200.447 523.218C195.429 528.25 202.081 535.555 207.543 531.008C210.827 528.275 210.503 524.959 206.756 522.948C202.822 520.837 202.822 520.837 200.447 523.218ZM404.814 525.252C403.51 530.461 405.028 532.71 409.847 532.71C414.639 532.71 417.521 528.231 415.349 524.161C412.961 519.688 406.027 520.406 404.814 525.252ZM6.72899 553.125C10.3194 555.343 13.9914 557.158 14.889 557.158C15.7866 557.158 13.5834 555.343 9.99299 553.125C6.40259 550.907 2.7306 549.092 1.833 549.092C0.935399 549.092 3.1386 550.907 6.72899 553.125ZM870.257 553.199C866.656 556.811 869.525 562.169 875.061 562.169C879.711 562.169 881.986 558.092 879.525 554.172C877.204 550.477 873.372 550.074 870.257 553.199ZM252.893 554.914C251.532 558.469 254.985 561.812 257.458 559.333C259.547 557.238 258.253 552.349 255.609 552.349C254.654 552.349 253.433 553.503 252.893 554.914ZM768.784 555.765C768.182 556.744 768.441 558.3 769.362 559.223C771.421 561.288 774.584 559.544 774.584 556.344C774.584 553.588 770.383 553.169 768.784 555.765ZM32.3611 605.129C32.6957 644.697 33.2538 640.107 34.0519 591.217C34.2836 577.037 33.923 565.439 33.249 565.44C32.5749 565.44 32.1767 583.302 32.3611 605.129ZM355.795 609.686C349.432 612.1 349.217 619.533 355.413 622.859C361.656 626.209 367.835 621.07 365.695 614.307C364.385 610.168 359.965 608.105 355.795 609.686ZM149.121 611.397C143.446 614.712 147.366 623.688 153.938 622.431C157.457 621.759 158.722 615.304 155.982 611.995C153.692 609.227 152.946 609.164 149.121 611.397ZM871.691 611.88C867.859 614.69 869.05 621.76 873.463 622.392C877.787 623.012 881.24 618.937 879.921 614.769C878.593 610.573 875.131 609.357 871.691 611.88ZM251.87 612.288C249.946 614.219 250.572 620.765 252.753 621.502C257.314 623.04 260.686 620.711 260.185 616.371C259.697 612.162 254.528 609.623 251.87 612.288ZM768.402 613.211C765.424 616.198 766.016 619.099 769.853 620.32C774.4 621.767 777.549 618.662 775.247 615.001C772.963 611.371 770.801 610.805 768.402 613.211ZM47.0263 616.299C47.3478 617.266 48.3074 618.058 49.1609 618.058C50.0145 618.058 50.9741 617.266 51.2956 616.299C51.6171 615.332 50.6575 614.54 49.1609 614.54C47.6644 614.54 46.7048 615.332 47.0263 616.299ZM95.1294 640.18C92.5394 642.776 94.5256 643.998 101.334 643.998C107.146 643.998 108.435 643.499 107.688 641.543C106.739 639.067 97.2657 638.038 95.1294 640.18ZM407.236 642.488C405.563 643.552 406.159 643.956 409.424 643.974C414.298 644 415.176 643.198 411.724 641.871C410.521 641.408 408.501 641.686 407.236 642.488ZM819.464 642.362C818.868 643.329 820.665 643.989 823.856 643.974C827.942 643.954 828.66 643.563 826.808 642.362C823.635 640.306 820.73 640.306 819.464 642.362Z" fill="#00A651" fill-opacity="0.1"/>
</g>

<g id="">
</g>

<g id="">
</g>

</svg>
